<svg width="814" height="342" viewBox="0 0 814 342" fill="none" xmlns="http://www.w3.org/2000/svg">
<path d="M214.961 232.161L0 341.999V110.34C26.7951 110.34 153.472 103.938 272.95 82.8803C315.442 75.3913 358.934 34.4514 455.916 34.4514C496.909 34.4514 507.907 45.4353 547.4 45.4353C578.994 45.4353 602.556 34.7842 610.388 29.4587L641.383 8.48876C654.58 -0.29834 662.379 0.00153192 664.878 0.00122048C679.276 0.00122048 678.409 8.48876 674.376 13.9807C669.977 19.9719 646.382 40.9411 626.885 53.9221C618.887 59.5139 609.688 63.9074 610.888 65.9045C612.388 68.4008 644.382 59.0396 656.88 50.9265C664.878 45.7341 680.085 27.4609 689.374 19.4726C703.771 7.09081 714.869 1.99829 726.867 0.999755C740.064 0.999755 744.364 11.9836 739.864 15.9778L684.375 74.8913C688.207 73.5599 696.872 70.0983 700.872 66.903C704.871 63.7077 735.532 36.6142 750.363 23.4668C759.161 16.6767 768.859 13.9807 776.858 13.9807C789.255 13.9807 791.855 23.966 789.355 27.4609C775.025 44.7689 744.664 81.0822 737.865 87.8723C731.066 94.6623 698.039 119.326 682.375 130.809C682.375 137.999 696.372 137.799 701.372 134.803L753.862 93.8635C759.861 88.3715 775.858 78.3862 791.855 78.3862C814.351 78.3862 816.35 87.373 812.351 91.8664C784.19 117.329 726.367 169.552 720.368 174.745C712.869 181.235 697.372 185.229 671.377 185.229C645.382 185.229 648.381 189.224 620.886 189.224C593.391 189.224 577.894 181.235 571.395 181.235C564.896 181.235 539.401 196.713 503.908 196.713C468.414 196.713 407.925 182.234 358.934 182.234C319.741 182.234 246.621 215.518 214.961 232.161Z" fill="url(#paint0_linear)"/>
<path d="M214.961 232.161L0 342L343.437 88.8716C343.437 88.8716 380.43 72.895 418.423 72.895C500.908 72.895 484.911 114.334 562.397 114.334C639.883 114.334 641.383 89.8701 674.376 89.8701C700.772 89.8701 708.037 104.182 708.37 111.339L682.375 130.81C670.877 138.798 662.379 138.299 641.383 163.762C630.774 176.626 589.892 180.404 571.395 181.236C564.896 181.236 539.401 196.713 503.908 196.713C468.414 196.713 407.925 182.235 358.934 182.235C319.741 182.235 246.621 215.519 214.961 232.161Z" fill="url(#paint1_linear)"/>
<defs>
<linearGradient id="paint0_linear" x1="671.877" y1="12.9809" x2="633.979" y2="288.59" gradientUnits="userSpaceOnUse">
<stop stop-color="white" stop-opacity="0.1"/>
<stop offset="0.382493" stop-color="white" stop-opacity="0.05"/>
<stop offset="1" stop-color="white" stop-opacity="0"/>
</linearGradient>
<linearGradient id="paint1_linear" x1="618.887" y1="91.8653" x2="439.225" y2="342.716" gradientUnits="userSpaceOnUse">
<stop stop-color="white" stop-opacity="0.03"/>
<stop offset="0.545539" stop-color="white" stop-opacity="0"/>
</linearGradient>
</defs>
</svg>
