<svg width="838" height="253" viewBox="0 0 838 253" fill="none" xmlns="http://www.w3.org/2000/svg">
<mask id="path-1-inside-1" fill="white">
<path d="M191 191.002C212.6 191.002 235.333 193.002 244 194.002C242.667 196.669 240 199.502 240 209.502C240 217.002 228 217.002 229 226.002C230 235.002 229.5 252.002 206 252.002C191.2 252.002 190 243.002 190 243.002C190 243.002 173.1 248.502 167.5 248.502C160.5 248.502 144.5 234.501 144.5 198.002C144.5 198.002 164 191.002 191 191.002Z"/>
</mask>
<path d="M188.062 242.508C187.789 243.579 188.436 244.668 189.506 244.94C190.576 245.213 191.665 244.567 191.938 243.496L188.062 242.508ZM188.373 206.8C187.985 205.766 186.832 205.242 185.798 205.63C184.764 206.018 184.24 207.17 184.627 208.205L188.373 206.8ZM191.938 243.496C193.536 237.227 194.52 223.193 188.373 206.8L184.627 208.205C190.48 223.812 189.464 237.011 188.062 242.508L191.938 243.496ZM244 194.002L247.578 195.79L250.131 190.683L244.459 190.028L244 194.002ZM144.5 198.002L143.149 194.237L140.5 195.188V198.002H144.5ZM190 243.002L193.965 242.474C193.808 241.296 193.136 240.25 192.131 239.617C191.126 238.985 189.891 238.831 188.762 239.199L190 243.002ZM244.459 190.028C235.688 189.016 212.795 187.002 191 187.002V195.002C212.405 195.002 234.979 196.987 243.542 197.975L244.459 190.028ZM191 187.002C177.162 187.002 165.253 188.795 156.795 190.589C152.562 191.487 149.184 192.387 146.849 193.068C145.681 193.409 144.773 193.695 144.149 193.899C143.836 194.001 143.595 194.082 143.427 194.14C143.344 194.168 143.278 194.191 143.232 194.208C143.208 194.216 143.19 194.222 143.176 194.227C143.169 194.23 143.163 194.232 143.159 194.233C143.156 194.234 143.154 194.235 143.153 194.235C143.152 194.236 143.151 194.236 143.15 194.236C143.149 194.237 143.149 194.237 144.5 198.002C145.851 201.766 145.851 201.767 145.85 201.767C145.85 201.767 145.849 201.767 145.849 201.767C145.849 201.768 145.848 201.768 145.849 201.768C145.849 201.767 145.85 201.767 145.853 201.766C145.858 201.764 145.868 201.761 145.882 201.756C145.911 201.746 145.958 201.729 146.024 201.707C146.155 201.662 146.359 201.593 146.633 201.503C147.18 201.324 148.007 201.064 149.089 200.748C151.253 200.117 154.438 199.267 158.455 198.415C166.497 196.709 177.838 195.002 191 195.002V187.002ZM240.422 192.213C240.107 192.844 238.655 195.12 237.741 197.635C236.717 200.45 236 204.136 236 209.502H244C244 204.868 244.616 202.138 245.259 200.369C246.011 198.301 246.56 197.826 247.578 195.79L240.422 192.213ZM236 209.502C236 210.133 235.81 210.61 235.209 211.258C234.447 212.079 233.421 212.772 231.793 213.94C230.366 214.964 228.45 216.379 227.038 218.362C225.501 220.521 224.663 223.187 225.024 226.444L232.976 225.561C232.837 224.318 233.124 223.609 233.556 223.002C234.112 222.22 235.009 221.479 236.457 220.44C237.704 219.545 239.616 218.27 241.072 216.7C242.69 214.957 244 212.622 244 209.502H236ZM225.024 226.444C225.505 230.767 225.497 236.215 223.177 240.459C221.1 244.261 216.65 248.002 206 248.002V256.002C218.85 256.002 226.4 251.244 230.198 244.296C233.753 237.79 233.495 230.238 232.976 225.561L225.024 226.444ZM206 248.002C199.469 248.002 196.596 246.051 195.342 244.739C194.668 244.034 194.309 243.356 194.123 242.899C194.03 242.67 193.981 242.5 193.96 242.416C193.95 242.375 193.947 242.356 193.948 242.364C193.949 242.368 193.951 242.379 193.954 242.397C193.955 242.406 193.957 242.417 193.959 242.43C193.96 242.436 193.961 242.443 193.962 242.45C193.962 242.454 193.963 242.458 193.963 242.462C193.964 242.464 193.964 242.467 193.964 242.468C193.964 242.471 193.965 242.474 190 243.002C186.035 243.531 186.036 243.534 186.036 243.537C186.036 243.539 186.037 243.542 186.037 243.544C186.037 243.548 186.038 243.553 186.039 243.558C186.04 243.567 186.042 243.578 186.043 243.588C186.046 243.61 186.05 243.634 186.054 243.66C186.062 243.712 186.073 243.773 186.086 243.843C186.112 243.983 186.149 244.158 186.201 244.362C186.303 244.771 186.464 245.303 186.714 245.918C187.216 247.149 188.082 248.721 189.558 250.266C192.604 253.454 197.731 256.002 206 256.002V248.002ZM190 243.002C188.762 239.199 188.762 239.199 188.762 239.199C188.762 239.199 188.762 239.199 188.762 239.199C188.762 239.199 188.761 239.199 188.761 239.199C188.759 239.2 188.756 239.201 188.753 239.202C188.746 239.204 188.734 239.208 188.719 239.213C188.689 239.222 188.644 239.237 188.583 239.257C188.462 239.295 188.283 239.353 188.051 239.427C187.588 239.574 186.917 239.785 186.093 240.039C184.444 240.548 182.192 241.225 179.774 241.9C177.349 242.577 174.794 243.242 172.528 243.734C170.169 244.247 168.431 244.502 167.5 244.502V252.502C169.369 252.502 171.844 252.07 174.228 251.552C176.706 251.013 179.426 250.303 181.926 249.605C184.433 248.905 186.756 248.207 188.451 247.684C189.299 247.422 189.992 247.204 190.475 247.051C190.716 246.974 190.905 246.913 191.034 246.872C191.099 246.851 191.149 246.835 191.183 246.824C191.2 246.818 191.214 246.814 191.223 246.811C191.227 246.809 191.231 246.808 191.233 246.808C191.235 246.807 191.236 246.807 191.236 246.807C191.237 246.806 191.237 246.806 191.237 246.806C191.238 246.806 191.238 246.806 190 243.002ZM167.5 244.502C166.952 244.502 165.477 244.154 163.369 242.557C161.347 241.024 159.015 238.536 156.798 234.87C152.375 227.554 148.5 215.68 148.5 198.002H140.5C140.5 216.823 144.625 230.199 149.952 239.009C152.61 243.405 155.59 246.699 158.537 248.932C161.398 251.1 164.548 252.502 167.5 252.502V244.502Z" fill="black" mask="url(#path-1-inside-1)"/>
<path d="M188.062 242.508C187.789 243.579 188.436 244.668 189.506 244.94C190.576 245.213 191.665 244.567 191.938 243.496L188.062 242.508ZM188.373 206.8C187.985 205.766 186.832 205.242 185.798 205.63C184.764 206.018 184.24 207.17 184.627 208.205L188.373 206.8ZM191.938 243.496C193.536 237.227 194.52 223.193 188.373 206.8L184.627 208.205C190.48 223.812 189.464 237.011 188.062 242.508L191.938 243.496ZM244 194.002L247.578 195.79L250.131 190.683L244.459 190.028L244 194.002ZM144.5 198.002L143.149 194.237L140.5 195.188V198.002H144.5ZM190 243.002L193.965 242.474C193.808 241.296 193.136 240.25 192.131 239.617C191.126 238.985 189.891 238.831 188.762 239.199L190 243.002ZM244.459 190.028C235.688 189.016 212.795 187.002 191 187.002V195.002C212.405 195.002 234.979 196.987 243.542 197.975L244.459 190.028ZM191 187.002C177.162 187.002 165.253 188.795 156.795 190.589C152.562 191.487 149.184 192.387 146.849 193.068C145.681 193.409 144.773 193.695 144.149 193.899C143.836 194.001 143.595 194.082 143.427 194.14C143.344 194.168 143.278 194.191 143.232 194.208C143.208 194.216 143.19 194.222 143.176 194.227C143.169 194.23 143.163 194.232 143.159 194.233C143.156 194.234 143.154 194.235 143.153 194.235C143.152 194.236 143.151 194.236 143.15 194.236C143.149 194.237 143.149 194.237 144.5 198.002C145.851 201.766 145.851 201.767 145.85 201.767C145.85 201.767 145.849 201.767 145.849 201.767C145.849 201.768 145.848 201.768 145.849 201.768C145.849 201.767 145.85 201.767 145.853 201.766C145.858 201.764 145.868 201.761 145.882 201.756C145.911 201.746 145.958 201.729 146.024 201.707C146.155 201.662 146.359 201.593 146.633 201.503C147.18 201.324 148.007 201.064 149.089 200.748C151.253 200.117 154.438 199.267 158.455 198.415C166.497 196.709 177.838 195.002 191 195.002V187.002ZM240.422 192.213C240.107 192.844 238.655 195.12 237.741 197.635C236.717 200.45 236 204.136 236 209.502H244C244 204.868 244.616 202.138 245.259 200.369C246.011 198.301 246.56 197.826 247.578 195.79L240.422 192.213ZM236 209.502C236 210.133 235.81 210.61 235.209 211.258C234.447 212.079 233.421 212.772 231.793 213.94C230.366 214.964 228.45 216.379 227.038 218.362C225.501 220.521 224.663 223.187 225.024 226.444L232.976 225.561C232.837 224.318 233.124 223.609 233.556 223.002C234.112 222.22 235.009 221.479 236.457 220.44C237.704 219.545 239.616 218.27 241.072 216.7C242.69 214.957 244 212.622 244 209.502H236ZM225.024 226.444C225.505 230.767 225.497 236.215 223.177 240.459C221.1 244.261 216.65 248.002 206 248.002V256.002C218.85 256.002 226.4 251.244 230.198 244.296C233.753 237.79 233.495 230.238 232.976 225.561L225.024 226.444ZM206 248.002C199.469 248.002 196.596 246.051 195.342 244.739C194.668 244.034 194.309 243.356 194.123 242.899C194.03 242.67 193.981 242.5 193.96 242.416C193.95 242.375 193.947 242.356 193.948 242.364C193.949 242.368 193.951 242.379 193.954 242.397C193.955 242.406 193.957 242.417 193.959 242.43C193.96 242.436 193.961 242.443 193.962 242.45C193.962 242.454 193.963 242.458 193.963 242.462C193.964 242.464 193.964 242.467 193.964 242.468C193.964 242.471 193.965 242.474 190 243.002C186.035 243.531 186.036 243.534 186.036 243.537C186.036 243.539 186.037 243.542 186.037 243.544C186.037 243.548 186.038 243.553 186.039 243.558C186.04 243.567 186.042 243.578 186.043 243.588C186.046 243.61 186.05 243.634 186.054 243.66C186.062 243.712 186.073 243.773 186.086 243.843C186.112 243.983 186.149 244.158 186.201 244.362C186.303 244.771 186.464 245.303 186.714 245.918C187.216 247.149 188.082 248.721 189.558 250.266C192.604 253.454 197.731 256.002 206 256.002V248.002ZM190 243.002C188.762 239.199 188.762 239.199 188.762 239.199C188.762 239.199 188.762 239.199 188.762 239.199C188.762 239.199 188.761 239.199 188.761 239.199C188.759 239.2 188.756 239.201 188.753 239.202C188.746 239.204 188.734 239.208 188.719 239.213C188.689 239.222 188.644 239.237 188.583 239.257C188.462 239.295 188.283 239.353 188.051 239.427C187.588 239.574 186.917 239.785 186.093 240.039C184.444 240.548 182.192 241.225 179.774 241.9C177.349 242.577 174.794 243.242 172.528 243.734C170.169 244.247 168.431 244.502 167.5 244.502V252.502C169.369 252.502 171.844 252.07 174.228 251.552C176.706 251.013 179.426 250.303 181.926 249.605C184.433 248.905 186.756 248.207 188.451 247.684C189.299 247.422 189.992 247.204 190.475 247.051C190.716 246.974 190.905 246.913 191.034 246.872C191.099 246.851 191.149 246.835 191.183 246.824C191.2 246.818 191.214 246.814 191.223 246.811C191.227 246.809 191.231 246.808 191.233 246.808C191.235 246.807 191.236 246.807 191.236 246.807C191.237 246.806 191.237 246.806 191.237 246.806C191.238 246.806 191.238 246.806 190 243.002ZM167.5 244.502C166.952 244.502 165.477 244.154 163.369 242.557C161.347 241.024 159.015 238.536 156.798 234.87C152.375 227.554 148.5 215.68 148.5 198.002H140.5C140.5 216.823 144.625 230.199 149.952 239.009C152.61 243.405 155.59 246.699 158.537 248.932C161.398 251.1 164.548 252.502 167.5 252.502V244.502Z" fill="url(#paint0_linear)" mask="url(#path-1-inside-1)"/>
<path d="M500 204L836 237.5L836 72.5007L520 71.0007C437 71.0007 260.041 1.99987 232.5 2C200 2.00015 139.5 62.5015 121.5 82.5C109.348 96.0015 83 135.001 89 148.001C68 153.501 69.0002 165.368 69.0002 175C69.0002 201.5 119 198 144.5 198C144.5 198 164 191 191 191C212.6 191 235.334 193 244 194C244 194 296 232.5 353.5 232.5C411 232.5 449 202.5 481.5 202.5C489.1 202.5 497 203.5 500 204Z" fill="black"/>
<path d="M500 204L836 237.5L836 72.5007L520 71.0007C437 71.0007 260.041 1.99987 232.5 2C200 2.00015 139.5 62.5015 121.5 82.5C109.348 96.0015 83 135.001 89 148.001C68 153.501 69.0002 165.368 69.0002 175C69.0002 201.5 119 198 144.5 198C144.5 198 164 191 191 191C212.6 191 235.334 193 244 194C244 194 296 232.5 353.5 232.5C411 232.5 449 202.5 481.5 202.5C489.1 202.5 497 203.5 500 204Z" fill="url(#paint1_radial)"/>
<path d="M109 164.002C109 165.178 108.962 170.345 108.886 171.502C107.084 199.141 84.0951 221.002 56 221.002C27.9049 221.002 4.91563 199.141 3.11373 171.502C3.0383 170.345 3 165.178 3 164.002C3 134.731 26.7289 111.002 56 111.002C85.2711 111.002 109 134.731 109 164.002Z" fill="#806442"/>
<path d="M108.886 171.502C108.962 170.345 109 165.178 109 164.002C109 134.731 85.2711 111.002 56 111.002C26.7289 111.002 3 134.731 3 164.002C3 165.178 3.0383 170.345 3.11373 171.502M108.886 171.502C107.084 199.141 84.0951 221.002 56 221.002C27.9049 221.002 4.91563 199.141 3.11373 171.502M108.886 171.502C107.084 143.862 84.0951 122.002 56 122.002C27.9049 122.002 4.91562 143.862 3.11373 171.502" stroke="url(#paint2_linear)" stroke-width="5"/>
<path d="M500 204L836 237.5C836 237.5 402.5 90.501 360.5 90.501C318.5 90.501 278.5 90.1009 232.5 112.501C186.5 134.901 115.167 145.501 89 148.001C68 153.501 69.0002 165.368 69.0002 175C69.0002 201.5 119 198 144.5 198C144.5 198 164 191 191 191C212.6 191 235.334 193 244 194C244 194 296 232.5 353.5 232.5C411 232.5 449 202.5 481.5 202.5C489.1 202.5 497 203.5 500 204Z" fill="black"/>
<path d="M500 204L836 237.5C836 237.5 402.5 90.501 360.5 90.501C318.5 90.501 278.5 90.1009 232.5 112.501C186.5 134.901 115.167 145.501 89 148.001C68 153.501 69.0002 165.368 69.0002 175C69.0002 201.5 119 198 144.5 198C144.5 198 164 191 191 191C212.6 191 235.334 193 244 194C244 194 296 232.5 353.5 232.5C411 232.5 449 202.5 481.5 202.5C489.1 202.5 497 203.5 500 204Z" fill="url(#paint3_linear)"/>
<path d="M144 139.619C159.2 130.819 175.333 105.619 181.5 94.1189C188.3 100.119 217.333 109.286 231 113.119C206.6 126.319 162.833 136.286 144 139.619Z" fill="url(#paint4_linear)"/>
<path d="M836 237.5L835.802 239.49C836.364 239.546 836.923 239.362 837.342 238.983C837.761 238.604 838 238.065 838 237.5L836 237.5ZM500 204L499.672 205.973C499.715 205.98 499.758 205.986 499.802 205.99L500 204ZM244 194L245.19 192.393C245.173 192.38 245.155 192.367 245.137 192.354L244 194ZM121.5 82.5003L120.014 81.1623L120.014 81.1623L121.5 82.5003ZM232.5 2.00024L232.5 0.000244141L232.5 2.00024ZM520 71.0009L520.01 69.0009H520V71.0009ZM836 72.5009L838 72.5009C838 71.4001 837.11 70.5062 836.01 70.501L836 72.5009ZM89 148.001L88.8097 146.01C88.7029 146.02 88.5971 146.039 88.4932 146.066L89 148.001ZM360.387 90.4977C361.49 90.5603 362.434 89.717 362.497 88.6142C362.56 87.5114 361.716 86.5667 360.614 86.5041L360.387 90.4977ZM182.61 92.3368C181.691 91.7241 180.449 91.9725 179.836 92.8915C179.223 93.8106 179.472 95.0523 180.391 95.665L182.61 92.3368ZM836.198 235.51L500.199 202.01L499.802 205.99L835.802 239.49L836.198 235.51ZM500.329 202.027C497.254 201.515 489.24 200.5 481.5 200.5V204.5C488.961 204.5 496.747 205.486 499.672 205.973L500.329 202.027ZM481.5 200.5C473.082 200.5 464.39 202.441 455.281 205.278C446.193 208.108 436.501 211.894 426.195 215.619C405.505 223.098 381.895 230.5 353.5 230.5V234.5C382.606 234.5 406.746 226.903 427.555 219.381C438 215.606 447.496 211.892 456.47 209.097C465.423 206.309 473.669 204.5 481.5 204.5V200.5ZM353.5 230.5C325.168 230.5 298.102 221.006 278.049 211.445C268.036 206.671 259.806 201.897 254.084 198.32C251.223 196.532 248.991 195.044 247.478 194.005C246.722 193.486 246.146 193.08 245.76 192.805C245.568 192.667 245.423 192.563 245.328 192.493C245.28 192.459 245.244 192.433 245.222 192.416C245.21 192.407 245.202 192.401 245.196 192.397C245.194 192.395 245.192 192.394 245.191 192.393C245.191 192.393 245.19 192.393 245.19 192.393C245.19 192.393 245.19 192.393 244 194C242.81 195.608 242.811 195.608 242.812 195.609C242.812 195.609 242.813 195.61 242.814 195.611C242.816 195.612 242.819 195.614 242.823 195.617C242.83 195.623 242.841 195.63 242.855 195.64C242.882 195.661 242.922 195.69 242.975 195.728C243.079 195.804 243.234 195.916 243.436 196.06C243.841 196.349 244.438 196.77 245.215 197.304C246.771 198.371 249.051 199.891 251.963 201.712C257.788 205.353 266.152 210.204 276.327 215.056C296.649 224.745 324.333 234.5 353.5 234.5V230.5ZM245.137 192.354C244.698 192.052 244.161 191.895 243.826 191.806C243.413 191.696 242.918 191.596 242.37 191.503C241.269 191.316 239.822 191.134 238.117 190.959C234.698 190.609 230.127 190.275 224.962 189.985C214.63 189.406 201.842 189 191 189V193C201.758 193 214.471 193.404 224.738 193.979C229.874 194.267 234.377 194.597 237.709 194.938C239.378 195.109 240.725 195.281 241.699 195.446C242.189 195.53 242.551 195.606 242.8 195.672C243.126 195.758 243.052 195.776 242.864 195.646L245.137 192.354ZM191 189C177.326 189 166.178 190.773 158.132 192.547C154.11 193.434 150.866 194.32 148.489 194.979C147.29 195.312 146.347 195.576 145.618 195.76C145.256 195.852 144.975 195.917 144.763 195.957C144.528 196.002 144.464 196 144.5 196V200C145.107 200 145.895 199.816 146.599 199.638C147.384 199.44 148.39 199.158 149.558 198.834C151.915 198.18 155.078 197.317 158.993 196.453C166.822 194.727 177.675 193 191 193V189ZM144.5 196C131.598 196 112.981 196.868 97.4948 194.461C89.7557 193.259 83.049 191.269 78.3223 188.111C73.7004 185.022 71.0002 180.854 71.0002 175H67.0002C67.0002 182.396 70.5501 187.728 76.1 191.437C81.5453 195.075 88.9323 197.179 96.8807 198.414C112.77 200.883 131.903 200 144.5 200V196ZM122.987 83.8382C131.873 73.9648 154.019 53.9228 176.725 36.3318C188.068 27.5441 199.497 19.4102 209.431 13.4836C214.399 10.5196 218.957 8.1297 222.919 6.48632C226.919 4.82669 230.145 4.00024 232.5 4.00024L232.5 0.000244141C229.356 0.000237623 225.55 1.06445 221.386 2.79161C217.184 4.53502 212.445 7.028 207.382 10.0485C197.253 16.0909 185.682 24.3323 174.275 33.1698C151.481 50.8292 129.127 71.0372 120.014 81.1623L122.987 83.8382ZM232.5 4.00024C235.666 4.00025 241.219 5.01475 248.877 6.90675C256.467 8.78192 265.926 11.4664 276.799 14.6987C287.668 17.93 299.922 21.7003 313.098 25.7445C326.271 29.7875 340.36 34.1024 354.883 38.4178C412.873 55.6478 478.155 73.0009 520 73.0009V69.0009C478.846 69.0009 414.148 51.8538 356.023 34.5834C341.518 30.2737 327.444 25.9636 314.272 21.9206C301.103 17.8787 288.829 14.1021 277.939 10.8645C267.052 7.62803 257.52 4.92183 249.836 3.02352C242.221 1.14204 236.22 0.00025185 232.5 0.000244141L232.5 4.00024ZM519.991 73.0009L835.991 74.5009L836.01 70.501L520.01 69.001L519.991 73.0009ZM834 72.5009L834 237.5L838 237.5L838 72.5009L834 72.5009ZM71.0002 175C71.0002 170.009 70.7956 165.179 72.9219 160.829C74.9609 156.658 79.3653 152.592 89.5067 149.936L88.4932 146.066C77.6346 148.91 72.0392 153.527 69.3283 159.073C66.7048 164.44 67.0002 170.359 67.0002 175H71.0002ZM89.1902 149.992C115.396 147.488 187.034 136.865 233.376 114.299L231.625 110.703C185.966 132.937 114.937 143.514 88.8097 146.01L89.1902 149.992ZM233.376 114.299C278.947 92.1078 337.062 89.1743 360.387 90.4977L360.614 86.5041C336.939 85.1609 278.053 88.094 231.625 110.703L233.376 114.299ZM232.887 110.539C227.463 109.47 218.393 107.266 208.901 104.139C199.38 101.002 189.583 96.986 182.61 92.3368L180.391 95.665C187.817 100.616 198.021 104.766 207.649 107.938C217.307 111.119 226.537 113.365 232.114 114.463L232.887 110.539ZM95.5879 125.013C97.0868 123.471 99.1083 120.551 101.329 117.107C103.584 113.608 106.161 109.382 108.779 105.106C114.08 96.4506 119.465 87.7515 122.987 83.8382L120.014 81.1623C116.181 85.4207 110.565 94.531 105.368 103.017C102.738 107.312 100.191 111.489 97.9668 114.939C95.7078 118.443 93.8938 121.017 92.7196 122.225L95.5879 125.013Z" fill="black"/>
<path d="M836 237.5L835.802 239.49C836.364 239.546 836.923 239.362 837.342 238.983C837.761 238.604 838 238.065 838 237.5L836 237.5ZM500 204L499.672 205.973C499.715 205.98 499.758 205.986 499.802 205.99L500 204ZM244 194L245.19 192.393C245.173 192.38 245.155 192.367 245.137 192.354L244 194ZM121.5 82.5003L120.014 81.1623L120.014 81.1623L121.5 82.5003ZM232.5 2.00024L232.5 0.000244141L232.5 2.00024ZM520 71.0009L520.01 69.0009H520V71.0009ZM836 72.5009L838 72.5009C838 71.4001 837.11 70.5062 836.01 70.501L836 72.5009ZM89 148.001L88.8097 146.01C88.7029 146.02 88.5971 146.039 88.4932 146.066L89 148.001ZM360.387 90.4977C361.49 90.5603 362.434 89.717 362.497 88.6142C362.56 87.5114 361.716 86.5667 360.614 86.5041L360.387 90.4977ZM182.61 92.3368C181.691 91.7241 180.449 91.9725 179.836 92.8915C179.223 93.8106 179.472 95.0523 180.391 95.665L182.61 92.3368ZM836.198 235.51L500.199 202.01L499.802 205.99L835.802 239.49L836.198 235.51ZM500.329 202.027C497.254 201.515 489.24 200.5 481.5 200.5V204.5C488.961 204.5 496.747 205.486 499.672 205.973L500.329 202.027ZM481.5 200.5C473.082 200.5 464.39 202.441 455.281 205.278C446.193 208.108 436.501 211.894 426.195 215.619C405.505 223.098 381.895 230.5 353.5 230.5V234.5C382.606 234.5 406.746 226.903 427.555 219.381C438 215.606 447.496 211.892 456.47 209.097C465.423 206.309 473.669 204.5 481.5 204.5V200.5ZM353.5 230.5C325.168 230.5 298.102 221.006 278.049 211.445C268.036 206.671 259.806 201.897 254.084 198.32C251.223 196.532 248.991 195.044 247.478 194.005C246.722 193.486 246.146 193.08 245.76 192.805C245.568 192.667 245.423 192.563 245.328 192.493C245.28 192.459 245.244 192.433 245.222 192.416C245.21 192.407 245.202 192.401 245.196 192.397C245.194 192.395 245.192 192.394 245.191 192.393C245.191 192.393 245.19 192.393 245.19 192.393C245.19 192.393 245.19 192.393 244 194C242.81 195.608 242.811 195.608 242.812 195.609C242.812 195.609 242.813 195.61 242.814 195.611C242.816 195.612 242.819 195.614 242.823 195.617C242.83 195.623 242.841 195.63 242.855 195.64C242.882 195.661 242.922 195.69 242.975 195.728C243.079 195.804 243.234 195.916 243.436 196.06C243.841 196.349 244.438 196.77 245.215 197.304C246.771 198.371 249.051 199.891 251.963 201.712C257.788 205.353 266.152 210.204 276.327 215.056C296.649 224.745 324.333 234.5 353.5 234.5V230.5ZM245.137 192.354C244.698 192.052 244.161 191.895 243.826 191.806C243.413 191.696 242.918 191.596 242.37 191.503C241.269 191.316 239.822 191.134 238.117 190.959C234.698 190.609 230.127 190.275 224.962 189.985C214.63 189.406 201.842 189 191 189V193C201.758 193 214.471 193.404 224.738 193.979C229.874 194.267 234.377 194.597 237.709 194.938C239.378 195.109 240.725 195.281 241.699 195.446C242.189 195.53 242.551 195.606 242.8 195.672C243.126 195.758 243.052 195.776 242.864 195.646L245.137 192.354ZM191 189C177.326 189 166.178 190.773 158.132 192.547C154.11 193.434 150.866 194.32 148.489 194.979C147.29 195.312 146.347 195.576 145.618 195.76C145.256 195.852 144.975 195.917 144.763 195.957C144.528 196.002 144.464 196 144.5 196V200C145.107 200 145.895 199.816 146.599 199.638C147.384 199.44 148.39 199.158 149.558 198.834C151.915 198.18 155.078 197.317 158.993 196.453C166.822 194.727 177.675 193 191 193V189ZM144.5 196C131.598 196 112.981 196.868 97.4948 194.461C89.7557 193.259 83.049 191.269 78.3223 188.111C73.7004 185.022 71.0002 180.854 71.0002 175H67.0002C67.0002 182.396 70.5501 187.728 76.1 191.437C81.5453 195.075 88.9323 197.179 96.8807 198.414C112.77 200.883 131.903 200 144.5 200V196ZM122.987 83.8382C131.873 73.9648 154.019 53.9228 176.725 36.3318C188.068 27.5441 199.497 19.4102 209.431 13.4836C214.399 10.5196 218.957 8.1297 222.919 6.48632C226.919 4.82669 230.145 4.00024 232.5 4.00024L232.5 0.000244141C229.356 0.000237623 225.55 1.06445 221.386 2.79161C217.184 4.53502 212.445 7.028 207.382 10.0485C197.253 16.0909 185.682 24.3323 174.275 33.1698C151.481 50.8292 129.127 71.0372 120.014 81.1623L122.987 83.8382ZM232.5 4.00024C235.666 4.00025 241.219 5.01475 248.877 6.90675C256.467 8.78192 265.926 11.4664 276.799 14.6987C287.668 17.93 299.922 21.7003 313.098 25.7445C326.271 29.7875 340.36 34.1024 354.883 38.4178C412.873 55.6478 478.155 73.0009 520 73.0009V69.0009C478.846 69.0009 414.148 51.8538 356.023 34.5834C341.518 30.2737 327.444 25.9636 314.272 21.9206C301.103 17.8787 288.829 14.1021 277.939 10.8645C267.052 7.62803 257.52 4.92183 249.836 3.02352C242.221 1.14204 236.22 0.00025185 232.5 0.000244141L232.5 4.00024ZM519.991 73.0009L835.991 74.5009L836.01 70.501L520.01 69.001L519.991 73.0009ZM834 72.5009L834 237.5L838 237.5L838 72.5009L834 72.5009ZM71.0002 175C71.0002 170.009 70.7956 165.179 72.9219 160.829C74.9609 156.658 79.3653 152.592 89.5067 149.936L88.4932 146.066C77.6346 148.91 72.0392 153.527 69.3283 159.073C66.7048 164.44 67.0002 170.359 67.0002 175H71.0002ZM89.1902 149.992C115.396 147.488 187.034 136.865 233.376 114.299L231.625 110.703C185.966 132.937 114.937 143.514 88.8097 146.01L89.1902 149.992ZM233.376 114.299C278.947 92.1078 337.062 89.1743 360.387 90.4977L360.614 86.5041C336.939 85.1609 278.053 88.094 231.625 110.703L233.376 114.299ZM232.887 110.539C227.463 109.47 218.393 107.266 208.901 104.139C199.38 101.002 189.583 96.986 182.61 92.3368L180.391 95.665C187.817 100.616 198.021 104.766 207.649 107.938C217.307 111.119 226.537 113.365 232.114 114.463L232.887 110.539ZM95.5879 125.013C97.0868 123.471 99.1083 120.551 101.329 117.107C103.584 113.608 106.161 109.382 108.779 105.106C114.08 96.4506 119.465 87.7515 122.987 83.8382L120.014 81.1623C116.181 85.4207 110.565 94.531 105.368 103.017C102.738 107.312 100.191 111.489 97.9668 114.939C95.7078 118.443 93.8938 121.017 92.7196 122.225L95.5879 125.013Z" fill="url(#paint5_linear)"/>
<path d="M353.5 232.5C296 232.5 244 194 244 194C242 192.619 212.6 191 191 191C164 191 147 198 144.5 198C119 198 69.0002 201.5 69.0002 175C69.0002 165.368 68 153.501 89 148.001C115.167 145.501 186.5 134.901 232.5 112.501M232.5 112.501C278.5 90.1009 337 87.1676 360.5 88.5009M232.5 112.501C221.5 110.334 195.9 103.601 181.5 94.0009" stroke="black" stroke-width="4" stroke-linecap="round" stroke-linejoin="round"/>
<path d="M353.5 232.5C296 232.5 244 194 244 194C242 192.619 212.6 191 191 191C164 191 147 198 144.5 198C119 198 69.0002 201.5 69.0002 175C69.0002 165.368 68 153.501 89 148.001C115.167 145.501 186.5 134.901 232.5 112.501M232.5 112.501C278.5 90.1009 337 87.1676 360.5 88.5009M232.5 112.501C221.5 110.334 195.9 103.601 181.5 94.0009" stroke="url(#paint6_linear)" stroke-width="4" stroke-linecap="round" stroke-linejoin="round"/>
<defs>
<linearGradient id="paint0_linear" x1="169.5" y1="251.619" x2="189" y2="180.619" gradientUnits="userSpaceOnUse">
<stop stop-color="#372116"/>
<stop offset="1" stop-color="#24110B" stop-opacity="0"/>
</linearGradient>
<radialGradient id="paint1_radial" cx="0" cy="0" r="1" gradientUnits="userSpaceOnUse" gradientTransform="translate(169 -15.3812) rotate(23.7724) scale(550.727)">
<stop stop-color="#24110B"/>
<stop offset="1" stop-color="#24110B" stop-opacity="0"/>
</radialGradient>
<linearGradient id="paint2_linear" x1="10.1874" y1="168.743" x2="88.5283" y2="173.728" gradientUnits="userSpaceOnUse">
<stop stop-color="#C9A66E"/>
<stop offset="1" stop-color="#5B422C"/>
</linearGradient>
<linearGradient id="paint3_linear" x1="228.5" y1="111.619" x2="625" y2="238" gradientUnits="userSpaceOnUse">
<stop stop-color="#24110B"/>
<stop offset="1" stop-color="#24110B" stop-opacity="0"/>
</linearGradient>
<linearGradient id="paint4_linear" x1="187.5" y1="94.1189" x2="187.5" y2="139.619" gradientUnits="userSpaceOnUse">
<stop stop-opacity="0"/>
<stop offset="1"/>
</linearGradient>
<linearGradient id="paint5_linear" x1="217" y1="10.6189" x2="414" y2="350.619" gradientUnits="userSpaceOnUse">
<stop stop-color="#806442"/>
<stop offset="0.874696" stop-color="#372116" stop-opacity="0"/>
</linearGradient>
<linearGradient id="paint6_linear" x1="110.5" y1="61.5" x2="324" y2="217" gradientUnits="userSpaceOnUse">
<stop stop-color="#806442"/>
<stop offset="0.536577" stop-color="#24110B"/>
<stop offset="1" stop-color="#24110B" stop-opacity="0.4"/>
</linearGradient>
</defs>
</svg>
