<svg width="1440" height="896" viewBox="0 0 1440 896" fill="none" xmlns="http://www.w3.org/2000/svg">
<path d="M1620 200C1421.66 200 1150.5 311.5 1059.89 477.876L1060 895.703L1620 896V200Z" fill="url(#paint0_linear)"/>
<path d="M1060 477C983 626 799.5 629.297 536.082 629.297H0V896H1060V477Z" fill="url(#paint1_linear)"/>
<path d="M1063.14 471C983 640 736.68 628.297 516.082 628.297H80" stroke="url(#paint2_linear)" stroke-width="4"/>
<path d="M130 890.297C884 890.297 963 643 1052.9 491.5" stroke="url(#paint3_linear)" stroke-width="4"/>
<g filter="url(#filter0_dd)">
<path d="M1630 200C1436 200 1155 292 1052.9 491.5" stroke="#C9A66E" stroke-width="4"/>
</g>
<g filter="url(#filter1_dd)">
<circle cx="1220" cy="316" r="8" fill="#5B422C"/>
<circle cx="1220" cy="316" r="6" stroke="#C9A66E" stroke-width="4"/>
</g>
<g filter="url(#filter2_dd)">
<circle cx="1140" cy="379" r="8" fill="#5B422C"/>
<circle cx="1140" cy="379" r="6" stroke="#C9A66E" stroke-width="4"/>
</g>
<g filter="url(#filter3_dd)">
<circle cx="1060" cy="478" r="8" fill="#5B422C"/>
<circle cx="1060" cy="478" r="6" stroke="#C9A66E" stroke-width="4"/>
</g>
<g filter="url(#filter4_dd)">
<circle cx="900" cy="601" r="8" fill="#666767"/>
<circle cx="900" cy="601" r="6" stroke="#CCCCCC" stroke-width="4"/>
</g>
<g filter="url(#filter5_dd)">
<circle cx="740" cy="626" r="8" fill="#4C4D4D"/>
<circle cx="740" cy="626" r="6" stroke="#B2B3B3" stroke-width="4"/>
</g>
<path d="M858.801 558.28V561.76C858.801 562.293 858.854 562.687 858.961 562.94C859.081 563.18 859.281 563.34 859.561 563.42C859.854 563.5 860.314 563.547 860.941 563.56V564C859.301 563.96 858.081 563.94 857.281 563.94C856.614 563.94 855.774 563.953 854.761 563.98L854.121 564V563.6C854.561 563.573 854.881 563.52 855.081 563.44C855.294 563.36 855.434 563.207 855.501 562.98C855.581 562.753 855.621 562.387 855.621 561.88V551.96C855.621 551.453 855.581 551.087 855.501 550.86C855.434 550.633 855.294 550.48 855.081 550.4C854.881 550.32 854.561 550.267 854.121 550.24V549.84C854.801 549.88 855.814 549.9 857.161 549.9L859.381 549.88C859.648 549.867 859.954 549.86 860.301 549.86C862.101 549.86 863.474 550.22 864.421 550.94C865.368 551.647 865.841 552.6 865.841 553.8C865.841 554.533 865.654 555.24 865.281 555.92C864.908 556.587 864.274 557.147 863.381 557.6C862.501 558.053 861.328 558.28 859.861 558.28H858.801ZM860.041 550.24C859.681 550.24 859.414 550.287 859.241 550.38C859.081 550.473 858.968 550.64 858.901 550.88C858.834 551.12 858.801 551.48 858.801 551.96V557.88H859.661C860.741 557.88 861.488 557.533 861.901 556.84C862.314 556.147 862.521 555.207 862.521 554.02C862.521 552.727 862.328 551.773 861.941 551.16C861.568 550.547 860.934 550.24 860.041 550.24ZM874.014 553.38C874.614 553.38 875.067 553.56 875.374 553.92C875.68 554.28 875.834 554.713 875.834 555.22C875.834 555.713 875.687 556.12 875.394 556.44C875.114 556.747 874.74 556.9 874.274 556.9C873.82 556.9 873.46 556.787 873.194 556.56C872.927 556.32 872.794 556.007 872.794 555.62C872.794 554.98 873.087 554.46 873.674 554.06C873.62 554.047 873.54 554.04 873.434 554.04C873.3 554.04 873.194 554.053 873.114 554.08C872.607 554.16 872.174 554.467 871.814 555C871.467 555.533 871.294 556.08 871.294 556.64V561.94C871.294 562.553 871.44 562.98 871.734 563.22C872.04 563.46 872.52 563.58 873.174 563.58V564C872.987 564 872.834 563.993 872.714 563.98C871.354 563.94 870.447 563.92 869.994 563.92C869.634 563.92 868.814 563.94 867.534 563.98C867.427 563.993 867.294 564 867.134 564V563.58C867.614 563.58 867.947 563.48 868.134 563.28C868.32 563.067 868.414 562.687 868.414 562.14V555.84C868.414 555.227 868.32 554.78 868.134 554.5C867.947 554.22 867.614 554.08 867.134 554.08V553.66C867.56 553.7 867.974 553.72 868.374 553.72C869.56 553.72 870.534 553.627 871.294 553.44V555.3C871.547 554.727 871.914 554.267 872.394 553.92C872.874 553.56 873.414 553.38 874.014 553.38ZM881.756 553.38C883.289 553.38 884.489 553.82 885.356 554.7C886.223 555.567 886.656 556.947 886.656 558.84C886.656 560.733 886.223 562.113 885.356 562.98C884.489 563.847 883.289 564.28 881.756 564.28C880.236 564.28 879.036 563.847 878.156 562.98C877.289 562.113 876.856 560.733 876.856 558.84C876.856 556.947 877.289 555.567 878.156 554.7C879.036 553.82 880.236 553.38 881.756 553.38ZM881.756 553.78C881.183 553.78 880.723 554.2 880.376 555.04C880.043 555.867 879.876 557.133 879.876 558.84C879.876 560.547 880.043 561.813 880.376 562.64C880.723 563.467 881.183 563.88 881.756 563.88C882.343 563.88 882.803 563.473 883.136 562.66C883.469 561.833 883.636 560.56 883.636 558.84C883.636 557.12 883.463 555.847 883.116 555.02C882.783 554.193 882.329 553.78 881.756 553.78ZM892.365 553.66H894.725V554.06H892.365V562.14C892.365 562.54 892.431 562.827 892.565 563C892.711 563.16 892.938 563.24 893.245 563.24C893.818 563.24 894.271 562.84 894.605 562.04L894.945 562.22C894.438 563.593 893.525 564.28 892.205 564.28C891.325 564.28 890.658 564.053 890.205 563.6C889.925 563.32 889.731 562.973 889.625 562.56C889.531 562.133 889.485 561.553 889.485 560.82V554.06H887.805V553.66H889.485V551.02C890.591 551.02 891.551 550.807 892.365 550.38V553.66ZM900.818 553.38C902.351 553.38 903.551 553.82 904.418 554.7C905.284 555.567 905.718 556.947 905.718 558.84C905.718 560.733 905.284 562.113 904.418 562.98C903.551 563.847 902.351 564.28 900.818 564.28C899.298 564.28 898.098 563.847 897.218 562.98C896.351 562.113 895.918 560.733 895.918 558.84C895.918 556.947 896.351 555.567 897.218 554.7C898.098 553.82 899.298 553.38 900.818 553.38ZM900.818 553.78C900.244 553.78 899.784 554.2 899.438 555.04C899.104 555.867 898.938 557.133 898.938 558.84C898.938 560.547 899.104 561.813 899.438 562.64C899.784 563.467 900.244 563.88 900.818 563.88C901.404 563.88 901.864 563.473 902.198 562.66C902.531 561.833 902.698 560.56 902.698 558.84C902.698 557.12 902.524 555.847 902.178 555.02C901.844 554.193 901.391 553.78 900.818 553.78ZM911.426 553.66H913.786V554.06H911.426V562.14C911.426 562.54 911.493 562.827 911.626 563C911.773 563.16 912 563.24 912.306 563.24C912.88 563.24 913.333 562.84 913.666 562.04L914.006 562.22C913.5 563.593 912.586 564.28 911.266 564.28C910.386 564.28 909.72 564.053 909.266 563.6C908.986 563.32 908.793 562.973 908.686 562.56C908.593 562.133 908.546 561.553 908.546 560.82V554.06H906.866V553.66H908.546V551.02C909.653 551.02 910.613 550.807 911.426 550.38V553.66ZM923.038 553.72C923.704 553.72 924.218 553.7 924.578 553.66V554.06C924.298 554.14 924.044 554.313 923.818 554.58C923.604 554.833 923.398 555.233 923.198 555.78L919.618 565.84C919.351 566.533 919.058 567.007 918.738 567.26C918.351 567.593 917.771 567.76 916.998 567.76C916.438 567.76 915.931 567.62 915.478 567.34C915.038 567.073 914.818 566.68 914.818 566.16C914.818 565.747 914.964 565.413 915.258 565.16C915.551 564.92 915.938 564.8 916.418 564.8C916.871 564.8 917.231 564.907 917.498 565.12C917.778 565.347 917.918 565.66 917.918 566.06C917.918 566.34 917.831 566.593 917.658 566.82C917.484 567.06 917.238 567.24 916.918 567.36C917.011 567.373 917.164 567.38 917.378 567.38C918.204 567.38 918.811 566.853 919.198 565.8L919.518 564.84L915.278 555.2C915.064 554.747 914.858 554.447 914.658 554.3C914.458 554.153 914.251 554.08 914.038 554.08V553.66C914.918 553.74 915.831 553.78 916.778 553.78C917.564 553.78 918.491 553.74 919.558 553.66V554.08C919.131 554.08 918.811 554.113 918.598 554.18C918.398 554.233 918.298 554.387 918.298 554.64C918.298 554.787 918.344 554.973 918.438 555.2L920.878 561.1L922.258 557.26C922.471 556.633 922.578 556.1 922.578 555.66C922.578 554.687 922.084 554.153 921.098 554.06V553.66C921.724 553.7 922.371 553.72 923.038 553.72ZM932.749 553.38C933.442 553.38 934.055 553.567 934.589 553.94C935.135 554.313 935.562 554.873 935.869 555.62C936.175 556.367 936.329 557.28 936.329 558.36C936.329 560.267 935.909 561.733 935.069 562.76C934.242 563.773 933.115 564.28 931.689 564.28C931.289 564.28 930.909 564.227 930.549 564.12C930.202 564.013 929.902 563.853 929.649 563.64V565.64C929.649 566.227 929.795 566.633 930.089 566.86C930.382 567.087 930.835 567.2 931.449 567.2V567.62L930.909 567.6C929.429 567.56 928.489 567.54 928.089 567.54C927.689 567.54 926.849 567.567 925.569 567.62V567.2C926.009 567.2 926.315 567.1 926.489 566.9C926.675 566.713 926.769 566.36 926.769 565.84V555.84C926.769 555.227 926.669 554.78 926.469 554.5C926.282 554.22 925.955 554.08 925.489 554.08V553.66C925.915 553.7 926.329 553.72 926.729 553.72C927.889 553.72 928.862 553.627 929.649 553.44V555.28C929.929 554.667 930.335 554.2 930.869 553.88C931.402 553.547 932.029 553.38 932.749 553.38ZM930.909 563.74C931.762 563.74 932.375 563.32 932.749 562.48C933.122 561.627 933.309 560.387 933.309 558.76C933.309 557.133 933.155 555.973 932.849 555.28C932.555 554.587 932.129 554.24 931.569 554.24C931.115 554.24 930.709 554.393 930.349 554.7C930.002 555.007 929.769 555.433 929.649 555.98V563.2C929.969 563.56 930.389 563.74 930.909 563.74ZM943.841 562.64C944.934 562.64 945.814 562.107 946.481 561.04L946.841 561.16C946.574 562.027 946.094 562.767 945.401 563.38C944.721 563.98 943.868 564.28 942.841 564.28C941.428 564.28 940.301 563.833 939.461 562.94C938.634 562.033 938.221 560.7 938.221 558.94C938.221 557.14 938.668 555.767 939.561 554.82C940.454 553.86 941.641 553.38 943.121 553.38C945.628 553.38 946.881 554.86 946.881 557.82H941.261C941.248 558.02 941.241 558.333 941.241 558.76C941.241 559.64 941.361 560.373 941.601 560.96C941.854 561.547 942.174 561.973 942.561 562.24C942.961 562.507 943.388 562.64 943.841 562.64ZM943.001 553.8C942.521 553.8 942.121 554.1 941.801 554.7C941.494 555.287 941.301 556.2 941.221 557.44H944.361C944.388 556.387 944.281 555.52 944.041 554.84C943.814 554.147 943.468 553.8 943.001 553.8Z" fill="#999999"/>
<path d="M1002.69 443.58C1003.38 443.58 1003.93 443.647 1004.35 443.78C1004.76 443.913 1005.18 444.107 1005.61 444.36C1005.75 444.44 1005.88 444.507 1005.99 444.56C1006.11 444.613 1006.21 444.64 1006.29 444.64C1006.41 444.64 1006.5 444.573 1006.57 444.44C1006.63 444.293 1006.69 444.067 1006.73 443.76H1007.19C1007.12 444.653 1007.09 446.173 1007.09 448.32H1006.63C1006.57 447.6 1006.41 446.913 1006.13 446.26C1005.86 445.607 1005.47 445.08 1004.97 444.68C1004.47 444.267 1003.89 444.06 1003.23 444.06C1002.57 444.06 1002.04 444.247 1001.63 444.62C1001.23 444.98 1001.03 445.473 1001.03 446.1C1001.03 446.567 1001.13 446.973 1001.33 447.32C1001.53 447.667 1001.81 447.987 1002.17 448.28C1002.53 448.56 1003.08 448.947 1003.83 449.44L1004.47 449.88C1005.25 450.4 1005.87 450.853 1006.33 451.24C1006.78 451.627 1007.15 452.08 1007.43 452.6C1007.72 453.107 1007.87 453.7 1007.87 454.38C1007.87 455.233 1007.65 455.953 1007.21 456.54C1006.77 457.113 1006.17 457.547 1005.41 457.84C1004.66 458.133 1003.83 458.28 1002.91 458.28C1002.16 458.28 1001.54 458.213 1001.05 458.08C1000.55 457.947 1000.1 457.767 999.685 457.54C999.392 457.353 999.165 457.26 999.005 457.26C998.885 457.26 998.792 457.333 998.725 457.48C998.659 457.613 998.605 457.833 998.565 458.14H998.105C998.159 457.3 998.185 455.5 998.185 452.74H998.645C998.739 454.233 999.072 455.447 999.645 456.38C1000.22 457.3 1001.1 457.76 1002.29 457.76C1003.01 457.76 1003.6 457.567 1004.07 457.18C1004.53 456.793 1004.77 456.24 1004.77 455.52C1004.77 454.773 1004.53 454.133 1004.05 453.6C1003.57 453.067 1002.81 452.467 1001.77 451.8C1000.97 451.28 1000.33 450.827 999.845 450.44C999.365 450.053 998.972 449.6 998.665 449.08C998.359 448.547 998.205 447.933 998.205 447.24C998.205 446.44 998.405 445.767 998.805 445.22C999.219 444.66 999.765 444.247 1000.45 443.98C1001.13 443.713 1001.87 443.58 1002.69 443.58ZM1015.45 456.64C1016.54 456.64 1017.42 456.107 1018.09 455.04L1018.45 455.16C1018.18 456.027 1017.7 456.767 1017.01 457.38C1016.33 457.98 1015.47 458.28 1014.45 458.28C1013.03 458.28 1011.91 457.833 1011.07 456.94C1010.24 456.033 1009.83 454.7 1009.83 452.94C1009.83 451.14 1010.27 449.767 1011.17 448.82C1012.06 447.86 1013.25 447.38 1014.73 447.38C1017.23 447.38 1018.49 448.86 1018.49 451.82H1012.87C1012.85 452.02 1012.85 452.333 1012.85 452.76C1012.85 453.64 1012.97 454.373 1013.21 454.96C1013.46 455.547 1013.78 455.973 1014.17 456.24C1014.57 456.507 1014.99 456.64 1015.45 456.64ZM1014.61 447.8C1014.13 447.8 1013.73 448.1 1013.41 448.7C1013.1 449.287 1012.91 450.2 1012.83 451.44H1015.97C1015.99 450.387 1015.89 449.52 1015.65 448.84C1015.42 448.147 1015.07 447.8 1014.61 447.8ZM1025.92 456.64C1027.02 456.64 1027.9 456.107 1028.56 455.04L1028.92 455.16C1028.66 456.027 1028.18 456.767 1027.48 457.38C1026.8 457.98 1025.95 458.28 1024.92 458.28C1023.51 458.28 1022.38 457.833 1021.54 456.94C1020.72 456.033 1020.3 454.7 1020.3 452.94C1020.3 451.14 1020.75 449.767 1021.64 448.82C1022.54 447.86 1023.72 447.38 1025.2 447.38C1027.71 447.38 1028.96 448.86 1028.96 451.82H1023.34C1023.33 452.02 1023.32 452.333 1023.32 452.76C1023.32 453.64 1023.44 454.373 1023.68 454.96C1023.94 455.547 1024.26 455.973 1024.64 456.24C1025.04 456.507 1025.47 456.64 1025.92 456.64ZM1025.08 447.8C1024.6 447.8 1024.2 448.1 1023.88 448.7C1023.58 449.287 1023.38 450.2 1023.3 451.44H1026.44C1026.47 450.387 1026.36 449.52 1026.12 448.84C1025.9 448.147 1025.55 447.8 1025.08 447.8ZM1040.36 455.8C1040.36 456.413 1040.45 456.86 1040.64 457.14C1040.83 457.42 1041.16 457.56 1041.64 457.56V457.98C1041.23 457.94 1040.81 457.92 1040.4 457.92C1039.21 457.92 1038.24 458.013 1037.48 458.2V456.48C1037.03 457.68 1036.16 458.28 1034.88 458.28C1033.63 458.28 1032.63 457.827 1031.88 456.92C1031.15 456 1030.79 454.62 1030.8 452.78C1030.8 451.607 1030.99 450.62 1031.36 449.82C1031.75 449.007 1032.27 448.4 1032.94 448C1033.62 447.587 1034.39 447.38 1035.26 447.38C1036.23 447.38 1036.97 447.633 1037.48 448.14V444.74C1037.48 444.127 1037.38 443.68 1037.18 443.4C1036.99 443.12 1036.67 442.98 1036.2 442.98V442.56C1036.63 442.6 1037.04 442.62 1037.44 442.62C1038.6 442.62 1039.57 442.527 1040.36 442.34V455.8ZM1035.7 457.42C1036.14 457.42 1036.53 457.26 1036.86 456.94C1037.21 456.62 1037.41 456.187 1037.48 455.64V448.64C1037.15 448.187 1036.66 447.96 1036.02 447.96C1035.31 447.96 1034.77 448.367 1034.38 449.18C1033.99 449.993 1033.81 451.207 1033.82 452.82C1033.81 454.447 1033.96 455.62 1034.28 456.34C1034.61 457.06 1035.09 457.42 1035.7 457.42Z" fill="#CCCCCC"/>
<path d="M1073.52 348.12C1073.16 348.533 1072.77 348.827 1072.36 349C1071.94 349.187 1071.44 349.28 1070.86 349.28C1070.08 349.28 1069.47 349.12 1069.02 348.8C1068.58 348.467 1068.29 347.907 1068.16 347.12L1067.8 345.12C1067.62 344.147 1067.41 343.433 1067.16 342.98C1066.92 342.513 1066.51 342.28 1065.94 342.28H1064.64V346.88C1064.64 347.387 1064.67 347.753 1064.74 347.98C1064.82 348.207 1064.96 348.36 1065.16 348.44C1065.36 348.52 1065.68 348.573 1066.14 348.6V349C1065.42 348.96 1064.41 348.94 1063.12 348.94C1061.69 348.94 1060.64 348.96 1059.96 349V348.6C1060.4 348.573 1060.72 348.52 1060.92 348.44C1061.13 348.36 1061.27 348.207 1061.34 347.98C1061.42 347.753 1061.46 347.387 1061.46 346.88V336.96C1061.46 336.453 1061.42 336.087 1061.34 335.86C1061.27 335.633 1061.13 335.48 1060.92 335.4C1060.72 335.32 1060.4 335.267 1059.96 335.24V334.84C1060.64 334.88 1061.65 334.9 1063 334.9L1065.22 334.88C1065.48 334.867 1065.79 334.86 1066.14 334.86C1067.98 334.86 1069.36 335.16 1070.28 335.76C1071.21 336.36 1071.68 337.22 1071.68 338.34C1071.68 339.287 1071.33 340.12 1070.64 340.84C1069.94 341.56 1068.8 342.013 1067.2 342.2C1068.4 342.307 1069.29 342.567 1069.88 342.98C1070.46 343.393 1070.84 344.013 1071.02 344.84L1071.48 346.9C1071.58 347.433 1071.7 347.807 1071.84 348.02C1071.98 348.233 1072.18 348.34 1072.44 348.34C1072.6 348.327 1072.73 348.287 1072.84 348.22C1072.96 348.153 1073.09 348.04 1073.24 347.88L1073.52 348.12ZM1065.88 335.24C1065.52 335.24 1065.25 335.287 1065.08 335.38C1064.92 335.473 1064.8 335.64 1064.74 335.88C1064.67 336.12 1064.64 336.48 1064.64 336.96V341.88H1065.5C1066.59 341.88 1067.34 341.593 1067.74 341.02C1068.15 340.433 1068.36 339.613 1068.36 338.56C1068.36 337.467 1068.16 336.64 1067.78 336.08C1067.39 335.52 1066.76 335.24 1065.88 335.24ZM1079.88 347.64C1080.98 347.64 1081.86 347.107 1082.52 346.04L1082.88 346.16C1082.62 347.027 1082.14 347.767 1081.44 348.38C1080.76 348.98 1079.91 349.28 1078.88 349.28C1077.47 349.28 1076.34 348.833 1075.5 347.94C1074.68 347.033 1074.26 345.7 1074.26 343.94C1074.26 342.14 1074.71 340.767 1075.6 339.82C1076.5 338.86 1077.68 338.38 1079.16 338.38C1081.67 338.38 1082.92 339.86 1082.92 342.82H1077.3C1077.29 343.02 1077.28 343.333 1077.28 343.76C1077.28 344.64 1077.4 345.373 1077.64 345.96C1077.9 346.547 1078.22 346.973 1078.6 347.24C1079 347.507 1079.43 347.64 1079.88 347.64ZM1079.04 338.8C1078.56 338.8 1078.16 339.1 1077.84 339.7C1077.54 340.287 1077.34 341.2 1077.26 342.44H1080.4C1080.43 341.387 1080.32 340.52 1080.08 339.84C1079.86 339.147 1079.51 338.8 1079.04 338.8ZM1092.41 338.72C1093.09 338.72 1093.6 338.7 1093.95 338.66V339.06C1093.67 339.14 1093.41 339.313 1093.19 339.58C1092.97 339.833 1092.77 340.233 1092.57 340.78L1089.65 349.04C1089.5 349.027 1089.28 349.02 1088.99 349.02C1088.71 349.02 1088.49 349.027 1088.35 349.04L1084.79 340.2C1084.6 339.747 1084.41 339.447 1084.21 339.3C1084.02 339.153 1083.83 339.08 1083.63 339.08V338.66C1084.56 338.727 1085.51 338.76 1086.47 338.76C1087.31 338.76 1088.17 338.727 1089.07 338.66V339.08C1088.61 339.08 1088.29 339.113 1088.09 339.18C1087.9 339.233 1087.81 339.393 1087.81 339.66C1087.81 339.767 1087.84 339.933 1087.91 340.16L1090.19 346.22L1091.63 342.26C1091.84 341.633 1091.95 341.093 1091.95 340.64C1091.95 339.667 1091.46 339.14 1090.49 339.06V338.66C1091.1 338.7 1091.74 338.72 1092.41 338.72ZM1100.43 347.64C1101.52 347.64 1102.4 347.107 1103.07 346.04L1103.43 346.16C1103.16 347.027 1102.68 347.767 1101.99 348.38C1101.31 348.98 1100.46 349.28 1099.43 349.28C1098.02 349.28 1096.89 348.833 1096.05 347.94C1095.22 347.033 1094.81 345.7 1094.81 343.94C1094.81 342.14 1095.26 340.767 1096.15 339.82C1097.04 338.86 1098.23 338.38 1099.71 338.38C1102.22 338.38 1103.47 339.86 1103.47 342.82H1097.85C1097.84 343.02 1097.83 343.333 1097.83 343.76C1097.83 344.64 1097.95 345.373 1098.19 345.96C1098.44 346.547 1098.76 346.973 1099.15 347.24C1099.55 347.507 1099.98 347.64 1100.43 347.64ZM1099.59 338.8C1099.11 338.8 1098.71 339.1 1098.39 339.7C1098.08 340.287 1097.89 341.2 1097.81 342.44H1100.95C1100.98 341.387 1100.87 340.52 1100.63 339.84C1100.4 339.147 1100.06 338.8 1099.59 338.8ZM1112.35 338.38C1113.36 338.38 1114.1 338.64 1114.55 339.16C1114.78 339.413 1114.94 339.74 1115.03 340.14C1115.12 340.54 1115.17 341.08 1115.17 341.76V347.14C1115.17 347.687 1115.26 348.067 1115.45 348.28C1115.65 348.48 1115.98 348.58 1116.45 348.58V349C1115.12 348.947 1114.24 348.92 1113.81 348.92C1113.41 348.92 1112.54 348.947 1111.21 349V348.58C1111.61 348.58 1111.89 348.48 1112.05 348.28C1112.21 348.067 1112.29 347.687 1112.29 347.14V340.92C1112.29 340.373 1112.2 339.96 1112.01 339.68C1111.84 339.4 1111.52 339.26 1111.05 339.26C1110.5 339.26 1110.04 339.487 1109.65 339.94C1109.26 340.38 1109.07 340.927 1109.07 341.58V347.14C1109.07 347.687 1109.15 348.067 1109.31 348.28C1109.47 348.48 1109.75 348.58 1110.15 348.58V349C1108.92 348.947 1108.1 348.92 1107.67 348.92C1107.27 348.92 1106.35 348.947 1104.91 349V348.58C1105.39 348.58 1105.72 348.48 1105.91 348.28C1106.1 348.067 1106.19 347.687 1106.19 347.14V340.84C1106.19 340.227 1106.1 339.78 1105.91 339.5C1105.72 339.22 1105.39 339.08 1104.91 339.08V338.66C1105.34 338.7 1105.75 338.72 1106.15 338.72C1107.34 338.72 1108.31 338.627 1109.07 338.44V340.24C1109.67 339 1110.76 338.38 1112.35 338.38ZM1127.56 346.82C1127.56 347.433 1127.65 347.88 1127.84 348.16C1128.04 348.44 1128.37 348.58 1128.84 348.58V349C1128.42 348.96 1128.01 348.94 1127.6 348.94C1126.44 348.94 1125.46 349.033 1124.68 349.22V347.42C1124.06 348.66 1122.99 349.28 1121.46 349.28C1120.46 349.28 1119.73 349.02 1119.28 348.5C1119.06 348.247 1118.9 347.92 1118.8 347.52C1118.7 347.107 1118.66 346.567 1118.66 345.9V340.84C1118.66 340.227 1118.56 339.78 1118.36 339.5C1118.17 339.22 1117.84 339.08 1117.38 339.08V338.66C1117.79 338.7 1118.2 338.72 1118.62 338.72C1119.78 338.72 1120.75 338.627 1121.54 338.44V346.72C1121.54 347.28 1121.62 347.7 1121.78 347.98C1121.95 348.26 1122.27 348.4 1122.74 348.4C1123.27 348.4 1123.72 348.18 1124.1 347.74C1124.48 347.287 1124.68 346.733 1124.68 346.08V340.84C1124.68 340.227 1124.58 339.78 1124.38 339.5C1124.19 339.22 1123.86 339.08 1123.4 339.08V338.66C1123.82 338.7 1124.24 338.72 1124.64 338.72C1125.8 338.72 1126.77 338.627 1127.56 338.44V346.82ZM1136.01 347.64C1137.1 347.64 1137.98 347.107 1138.65 346.04L1139.01 346.16C1138.74 347.027 1138.26 347.767 1137.57 348.38C1136.89 348.98 1136.03 349.28 1135.01 349.28C1133.59 349.28 1132.47 348.833 1131.63 347.94C1130.8 347.033 1130.39 345.7 1130.39 343.94C1130.39 342.14 1130.83 340.767 1131.73 339.82C1132.62 338.86 1133.81 338.38 1135.29 338.38C1137.79 338.38 1139.05 339.86 1139.05 342.82H1133.43C1133.41 343.02 1133.41 343.333 1133.41 343.76C1133.41 344.64 1133.53 345.373 1133.77 345.96C1134.02 346.547 1134.34 346.973 1134.73 347.24C1135.13 347.507 1135.55 347.64 1136.01 347.64ZM1135.17 338.8C1134.69 338.8 1134.29 339.1 1133.97 339.7C1133.66 340.287 1133.47 341.2 1133.39 342.44H1136.53C1136.55 341.387 1136.45 340.52 1136.21 339.84C1135.98 339.147 1135.63 338.8 1135.17 338.8Z" fill="#E6E6E6"/>
<path d="M1185.42 248.56C1187.16 248.693 1188.43 249.093 1189.24 249.76C1190.06 250.427 1190.46 251.213 1190.46 252.12C1190.46 253.36 1189.98 254.32 1189 255C1188.03 255.667 1186.68 256 1184.94 256C1184.56 256 1184.23 255.993 1183.96 255.98C1183.08 255.953 1182.22 255.94 1181.38 255.94C1180.01 255.94 1178.98 255.96 1178.3 256V255.6C1178.74 255.573 1179.06 255.52 1179.26 255.44C1179.48 255.36 1179.62 255.207 1179.68 254.98C1179.76 254.753 1179.8 254.387 1179.8 253.88V243.96C1179.8 243.453 1179.76 243.087 1179.68 242.86C1179.62 242.633 1179.48 242.48 1179.26 242.4C1179.06 242.32 1178.74 242.267 1178.3 242.24V241.84C1178.98 241.88 1180 241.9 1181.34 241.9L1183.56 241.88C1183.83 241.867 1184.14 241.86 1184.48 241.86C1186.08 241.86 1187.3 242.147 1188.14 242.72C1189 243.293 1189.42 244.053 1189.42 245C1189.42 245.773 1189.08 246.493 1188.4 247.16C1187.74 247.827 1186.74 248.28 1185.42 248.52V248.56ZM1184.22 242.24C1183.86 242.24 1183.6 242.287 1183.42 242.38C1183.26 242.473 1183.15 242.64 1183.08 242.88C1183.02 243.12 1182.98 243.48 1182.98 243.96V248.48H1183.84C1184.71 248.48 1185.32 248.187 1185.66 247.6C1186.01 247 1186.18 246.207 1186.18 245.22C1186.18 244.22 1186.02 243.473 1185.7 242.98C1185.4 242.487 1184.9 242.24 1184.22 242.24ZM1184.36 255.54C1186.22 255.54 1187.14 254.373 1187.14 252.04C1187.14 250.987 1186.88 250.187 1186.34 249.64C1185.81 249.093 1184.97 248.82 1183.82 248.82H1182.98V253.88C1182.98 254.36 1183.02 254.713 1183.08 254.94C1183.15 255.167 1183.28 255.327 1183.46 255.42C1183.66 255.5 1183.96 255.54 1184.36 255.54ZM1201.9 253.82C1201.9 254.433 1201.99 254.88 1202.18 255.16C1202.38 255.44 1202.71 255.58 1203.18 255.58V256C1202.77 255.96 1202.35 255.94 1201.94 255.94C1200.78 255.94 1199.81 256.033 1199.02 256.22V254.42C1198.41 255.66 1197.33 256.28 1195.8 256.28C1194.8 256.28 1194.07 256.02 1193.62 255.5C1193.41 255.247 1193.25 254.92 1193.14 254.52C1193.05 254.107 1193 253.567 1193 252.9V247.84C1193 247.227 1192.9 246.78 1192.7 246.5C1192.51 246.22 1192.19 246.08 1191.72 246.08V245.66C1192.13 245.7 1192.55 245.72 1192.96 245.72C1194.12 245.72 1195.09 245.627 1195.88 245.44V253.72C1195.88 254.28 1195.96 254.7 1196.12 254.98C1196.29 255.26 1196.61 255.4 1197.08 255.4C1197.61 255.4 1198.07 255.18 1198.44 254.74C1198.83 254.287 1199.02 253.733 1199.02 253.08V247.84C1199.02 247.227 1198.92 246.78 1198.72 246.5C1198.53 246.22 1198.21 246.08 1197.74 246.08V245.66C1198.17 245.7 1198.58 245.72 1198.98 245.72C1200.14 245.72 1201.11 245.627 1201.9 245.44V253.82ZM1208.43 245.38C1208.94 245.38 1209.4 245.447 1209.83 245.58C1210.26 245.7 1210.58 245.84 1210.81 246C1210.94 246.093 1211.06 246.14 1211.17 246.14C1211.29 246.14 1211.39 246.08 1211.47 245.96C1211.56 245.827 1211.62 245.64 1211.65 245.4H1212.07C1212.02 246.08 1211.99 247.253 1211.99 248.92H1211.57C1211.45 248.04 1211.18 247.307 1210.77 246.72C1210.37 246.12 1209.78 245.82 1209.01 245.82C1208.61 245.82 1208.28 245.933 1208.01 246.16C1207.76 246.387 1207.63 246.7 1207.63 247.1C1207.63 247.553 1207.78 247.947 1208.09 248.28C1208.4 248.6 1208.88 248.993 1209.53 249.46L1210.11 249.88C1210.92 250.493 1211.52 251.04 1211.91 251.52C1212.3 252 1212.49 252.6 1212.49 253.32C1212.49 253.907 1212.32 254.427 1211.97 254.88C1211.64 255.333 1211.18 255.68 1210.61 255.92C1210.04 256.16 1209.4 256.28 1208.71 256.28C1207.98 256.28 1207.35 256.14 1206.83 255.86C1206.4 255.647 1206.1 255.507 1205.91 255.44C1205.78 255.4 1205.66 255.447 1205.55 255.58C1205.46 255.7 1205.38 255.887 1205.33 256.14H1204.91C1204.96 255.38 1204.99 254.047 1204.99 252.14H1205.41C1205.68 254.593 1206.58 255.82 1208.11 255.82C1208.5 255.82 1208.82 255.707 1209.09 255.48C1209.37 255.24 1209.51 254.88 1209.51 254.4C1209.51 254.027 1209.42 253.693 1209.25 253.4C1209.09 253.107 1208.88 252.847 1208.63 252.62C1208.38 252.393 1208 252.08 1207.49 251.68C1206.89 251.2 1206.43 250.813 1206.11 250.52C1205.8 250.227 1205.54 249.88 1205.31 249.48C1205.1 249.08 1204.99 248.633 1204.99 248.14C1204.99 247.287 1205.32 246.613 1205.99 246.12C1206.66 245.627 1207.47 245.38 1208.43 245.38ZM1216.71 240.5C1217.27 240.5 1217.71 240.64 1218.03 240.92C1218.36 241.187 1218.53 241.56 1218.53 242.04C1218.53 242.52 1218.36 242.9 1218.03 243.18C1217.71 243.447 1217.27 243.58 1216.71 243.58C1216.15 243.58 1215.7 243.447 1215.37 243.18C1215.05 242.9 1214.89 242.52 1214.89 242.04C1214.89 241.56 1215.05 241.187 1215.37 240.92C1215.7 240.64 1216.15 240.5 1216.71 240.5ZM1218.27 254.14C1218.27 254.687 1218.36 255.067 1218.55 255.28C1218.75 255.48 1219.08 255.58 1219.55 255.58V256C1218.21 255.947 1217.33 255.92 1216.89 255.92C1216.47 255.92 1215.55 255.947 1214.11 256V255.58C1214.59 255.58 1214.92 255.48 1215.11 255.28C1215.29 255.067 1215.39 254.687 1215.39 254.14V247.84C1215.39 247.227 1215.29 246.78 1215.11 246.5C1214.92 246.22 1214.59 246.08 1214.11 246.08V245.66C1214.53 245.7 1214.95 245.72 1215.35 245.72C1216.53 245.72 1217.51 245.627 1218.27 245.44V254.14ZM1228.26 245.38C1229.27 245.38 1230 245.64 1230.46 246.16C1230.68 246.413 1230.84 246.74 1230.94 247.14C1231.03 247.54 1231.08 248.08 1231.08 248.76V254.14C1231.08 254.687 1231.17 255.067 1231.36 255.28C1231.56 255.48 1231.89 255.58 1232.36 255.58V256C1231.02 255.947 1230.14 255.92 1229.72 255.92C1229.32 255.92 1228.45 255.947 1227.12 256V255.58C1227.52 255.58 1227.8 255.48 1227.96 255.28C1228.12 255.067 1228.2 254.687 1228.2 254.14V247.92C1228.2 247.373 1228.1 246.96 1227.92 246.68C1227.74 246.4 1227.42 246.26 1226.96 246.26C1226.41 246.26 1225.94 246.487 1225.56 246.94C1225.17 247.38 1224.98 247.927 1224.98 248.58V254.14C1224.98 254.687 1225.06 255.067 1225.22 255.28C1225.38 255.48 1225.66 255.58 1226.06 255.58V256C1224.83 255.947 1224 255.92 1223.58 255.92C1223.18 255.92 1222.26 255.947 1220.82 256V255.58C1221.3 255.58 1221.63 255.48 1221.82 255.28C1222 255.067 1222.1 254.687 1222.1 254.14V247.84C1222.1 247.227 1222 246.78 1221.82 246.5C1221.63 246.22 1221.3 246.08 1220.82 246.08V245.66C1221.24 245.7 1221.66 245.72 1222.06 245.72C1223.24 245.72 1224.22 245.627 1224.98 245.44V247.24C1225.58 246 1226.67 245.38 1228.26 245.38ZM1239.38 254.64C1240.48 254.64 1241.36 254.107 1242.02 253.04L1242.38 253.16C1242.12 254.027 1241.64 254.767 1240.94 255.38C1240.26 255.98 1239.41 256.28 1238.38 256.28C1236.97 256.28 1235.84 255.833 1235 254.94C1234.18 254.033 1233.76 252.7 1233.76 250.94C1233.76 249.14 1234.21 247.767 1235.1 246.82C1236 245.86 1237.18 245.38 1238.66 245.38C1241.17 245.38 1242.42 246.86 1242.42 249.82H1236.8C1236.79 250.02 1236.78 250.333 1236.78 250.76C1236.78 251.64 1236.9 252.373 1237.14 252.96C1237.4 253.547 1237.72 253.973 1238.1 254.24C1238.5 254.507 1238.93 254.64 1239.38 254.64ZM1238.54 245.8C1238.06 245.8 1237.66 246.1 1237.34 246.7C1237.04 247.287 1236.84 248.2 1236.76 249.44H1239.9C1239.93 248.387 1239.82 247.52 1239.58 246.84C1239.36 246.147 1239.01 245.8 1238.54 245.8ZM1247.94 245.38C1248.45 245.38 1248.91 245.447 1249.34 245.58C1249.77 245.7 1250.09 245.84 1250.32 246C1250.45 246.093 1250.57 246.14 1250.68 246.14C1250.8 246.14 1250.9 246.08 1250.98 245.96C1251.07 245.827 1251.13 245.64 1251.16 245.4H1251.58C1251.53 246.08 1251.5 247.253 1251.5 248.92H1251.08C1250.96 248.04 1250.69 247.307 1250.28 246.72C1249.88 246.12 1249.29 245.82 1248.52 245.82C1248.12 245.82 1247.79 245.933 1247.52 246.16C1247.27 246.387 1247.14 246.7 1247.14 247.1C1247.14 247.553 1247.29 247.947 1247.6 248.28C1247.91 248.6 1248.39 248.993 1249.04 249.46L1249.62 249.88C1250.43 250.493 1251.03 251.04 1251.42 251.52C1251.81 252 1252 252.6 1252 253.32C1252 253.907 1251.83 254.427 1251.48 254.88C1251.15 255.333 1250.69 255.68 1250.12 255.92C1249.55 256.16 1248.91 256.28 1248.22 256.28C1247.49 256.28 1246.86 256.14 1246.34 255.86C1245.91 255.647 1245.61 255.507 1245.42 255.44C1245.29 255.4 1245.17 255.447 1245.06 255.58C1244.97 255.7 1244.89 255.887 1244.84 256.14H1244.42C1244.47 255.38 1244.5 254.047 1244.5 252.14H1244.92C1245.19 254.593 1246.09 255.82 1247.62 255.82C1248.01 255.82 1248.33 255.707 1248.6 255.48C1248.88 255.24 1249.02 254.88 1249.02 254.4C1249.02 254.027 1248.93 253.693 1248.76 253.4C1248.6 253.107 1248.39 252.847 1248.14 252.62C1247.89 252.393 1247.51 252.08 1247 251.68C1246.4 251.2 1245.94 250.813 1245.62 250.52C1245.31 250.227 1245.05 249.88 1244.82 249.48C1244.61 249.08 1244.5 248.633 1244.5 248.14C1244.5 247.287 1244.83 246.613 1245.5 246.12C1246.17 245.627 1246.98 245.38 1247.94 245.38ZM1257.58 245.38C1258.08 245.38 1258.55 245.447 1258.98 245.58C1259.4 245.7 1259.73 245.84 1259.96 246C1260.09 246.093 1260.21 246.14 1260.32 246.14C1260.44 246.14 1260.54 246.08 1260.62 245.96C1260.71 245.827 1260.77 245.64 1260.8 245.4H1261.22C1261.16 246.08 1261.14 247.253 1261.14 248.92H1260.72C1260.6 248.04 1260.33 247.307 1259.92 246.72C1259.52 246.12 1258.93 245.82 1258.16 245.82C1257.76 245.82 1257.42 245.933 1257.16 246.16C1256.9 246.387 1256.78 246.7 1256.78 247.1C1256.78 247.553 1256.93 247.947 1257.24 248.28C1257.54 248.6 1258.02 248.993 1258.68 249.46L1259.26 249.88C1260.07 250.493 1260.67 251.04 1261.06 251.52C1261.44 252 1261.64 252.6 1261.64 253.32C1261.64 253.907 1261.46 254.427 1261.12 254.88C1260.78 255.333 1260.33 255.68 1259.76 255.92C1259.18 256.16 1258.55 256.28 1257.86 256.28C1257.12 256.28 1256.5 256.14 1255.98 255.86C1255.55 255.647 1255.24 255.507 1255.06 255.44C1254.92 255.4 1254.8 255.447 1254.7 255.58C1254.6 255.7 1254.53 255.887 1254.48 256.14H1254.06C1254.11 255.38 1254.14 254.047 1254.14 252.14H1254.56C1254.82 254.593 1255.72 255.82 1257.26 255.82C1257.64 255.82 1257.97 255.707 1258.24 255.48C1258.52 255.24 1258.66 254.88 1258.66 254.4C1258.66 254.027 1258.57 253.693 1258.4 253.4C1258.24 253.107 1258.03 252.847 1257.78 252.62C1257.52 252.393 1257.14 252.08 1256.64 251.68C1256.04 251.2 1255.58 250.813 1255.26 250.52C1254.95 250.227 1254.68 249.88 1254.46 249.48C1254.24 249.08 1254.14 248.633 1254.14 248.14C1254.14 247.287 1254.47 246.613 1255.14 246.12C1255.8 245.627 1256.62 245.38 1257.58 245.38ZM1177.62 274.64C1178.71 274.64 1179.59 274.107 1180.26 273.04L1180.62 273.16C1180.35 274.027 1179.87 274.767 1179.18 275.38C1178.5 275.98 1177.65 276.28 1176.62 276.28C1175.21 276.28 1174.08 275.833 1173.24 274.94C1172.41 274.033 1172 272.7 1172 270.94C1172 269.14 1172.45 267.767 1173.34 266.82C1174.23 265.86 1175.42 265.38 1176.9 265.38C1179.41 265.38 1180.66 266.86 1180.66 269.82H1175.04C1175.03 270.02 1175.02 270.333 1175.02 270.76C1175.02 271.64 1175.14 272.373 1175.38 272.96C1175.63 273.547 1175.95 273.973 1176.34 274.24C1176.74 274.507 1177.17 274.64 1177.62 274.64ZM1176.78 265.8C1176.3 265.8 1175.9 266.1 1175.58 266.7C1175.27 267.287 1175.08 268.2 1175 269.44H1178.14C1178.17 268.387 1178.06 267.52 1177.82 266.84C1177.59 266.147 1177.25 265.8 1176.78 265.8ZM1191.05 274.58C1191.26 274.887 1191.45 275.12 1191.61 275.28C1191.77 275.44 1191.95 275.54 1192.17 275.58V276C1191.1 275.947 1190.39 275.92 1190.03 275.92C1189.63 275.92 1188.76 275.947 1187.43 276V275.58C1187.63 275.58 1187.79 275.547 1187.91 275.48C1188.04 275.413 1188.11 275.313 1188.11 275.18C1188.11 275.1 1188.07 275.007 1188.01 274.9L1185.93 271.8L1185.23 272.68C1184.79 273.253 1184.57 273.787 1184.57 274.28C1184.57 274.653 1184.69 274.96 1184.95 275.2C1185.21 275.427 1185.57 275.56 1186.01 275.6V276C1185.23 275.96 1184.27 275.94 1183.13 275.94C1182.58 275.94 1182.11 275.96 1181.73 276V275.6C1182.03 275.493 1182.33 275.32 1182.61 275.08C1182.89 274.84 1183.2 274.5 1183.55 274.06L1185.69 271.44L1182.75 267.08C1182.49 266.72 1182.29 266.473 1182.15 266.34C1182 266.193 1181.83 266.107 1181.63 266.08V265.66C1182.8 265.713 1183.59 265.74 1184.01 265.74C1184.35 265.74 1185.14 265.713 1186.37 265.66V266.08C1186.17 266.08 1186 266.113 1185.87 266.18C1185.75 266.247 1185.69 266.347 1185.69 266.48C1185.69 266.587 1185.72 266.68 1185.79 266.76L1187.67 269.56L1188.43 268.56C1188.89 267.947 1189.13 267.433 1189.13 267.02C1189.13 266.74 1189.02 266.52 1188.81 266.36C1188.61 266.187 1188.31 266.087 1187.91 266.06V265.66C1188.68 265.7 1189.43 265.72 1190.17 265.72C1190.73 265.72 1191.2 265.7 1191.59 265.66V266.06C1191.03 266.247 1190.41 266.76 1189.75 267.6L1187.91 269.9L1191.05 274.58ZM1200.23 265.38C1200.92 265.38 1201.54 265.567 1202.07 265.94C1202.62 266.313 1203.04 266.873 1203.35 267.62C1203.66 268.367 1203.81 269.28 1203.81 270.36C1203.81 272.267 1203.39 273.733 1202.55 274.76C1201.72 275.773 1200.6 276.28 1199.17 276.28C1198.77 276.28 1198.39 276.227 1198.03 276.12C1197.68 276.013 1197.38 275.853 1197.13 275.64V277.64C1197.13 278.227 1197.28 278.633 1197.57 278.86C1197.86 279.087 1198.32 279.2 1198.93 279.2V279.62L1198.39 279.6C1196.91 279.56 1195.97 279.54 1195.57 279.54C1195.17 279.54 1194.33 279.567 1193.05 279.62V279.2C1193.49 279.2 1193.8 279.1 1193.97 278.9C1194.16 278.713 1194.25 278.36 1194.25 277.84V267.84C1194.25 267.227 1194.15 266.78 1193.95 266.5C1193.76 266.22 1193.44 266.08 1192.97 266.08V265.66C1193.4 265.7 1193.81 265.72 1194.21 265.72C1195.37 265.72 1196.34 265.627 1197.13 265.44V267.28C1197.41 266.667 1197.82 266.2 1198.35 265.88C1198.88 265.547 1199.51 265.38 1200.23 265.38ZM1198.39 275.74C1199.24 275.74 1199.86 275.32 1200.23 274.48C1200.6 273.627 1200.79 272.387 1200.79 270.76C1200.79 269.133 1200.64 267.973 1200.33 267.28C1200.04 266.587 1199.61 266.24 1199.05 266.24C1198.6 266.24 1198.19 266.393 1197.83 266.7C1197.48 267.007 1197.25 267.433 1197.13 267.98V275.2C1197.45 275.56 1197.87 275.74 1198.39 275.74ZM1208.08 276.14C1207.23 276.14 1206.59 275.92 1206.16 275.48C1205.75 275.04 1205.54 274.46 1205.54 273.74C1205.54 273.14 1205.69 272.647 1206 272.26C1206.32 271.86 1206.7 271.553 1207.14 271.34C1207.59 271.127 1208.17 270.9 1208.86 270.66C1209.59 270.407 1210.13 270.18 1210.46 269.98C1210.81 269.767 1210.98 269.48 1210.98 269.12V267.56C1210.98 267 1210.85 266.567 1210.58 266.26C1210.33 265.94 1209.93 265.78 1209.38 265.78C1208.74 265.78 1208.25 265.94 1207.92 266.26C1208.29 266.393 1208.58 266.593 1208.78 266.86C1208.99 267.127 1209.1 267.44 1209.1 267.8C1209.1 268.253 1208.95 268.613 1208.64 268.88C1208.33 269.147 1207.96 269.28 1207.52 269.28C1207.05 269.28 1206.69 269.133 1206.44 268.84C1206.19 268.547 1206.06 268.18 1206.06 267.74C1206.06 267.367 1206.15 267.053 1206.32 266.8C1206.51 266.533 1206.79 266.287 1207.16 266.06C1207.52 265.847 1207.96 265.68 1208.48 265.56C1209.01 265.44 1209.59 265.38 1210.22 265.38C1210.87 265.38 1211.44 265.447 1211.92 265.58C1212.4 265.713 1212.8 265.94 1213.12 266.26C1213.41 266.553 1213.61 266.913 1213.7 267.34C1213.81 267.767 1213.86 268.347 1213.86 269.08V274.52C1213.86 274.84 1213.89 275.067 1213.94 275.2C1214.01 275.333 1214.13 275.4 1214.3 275.4C1214.5 275.4 1214.74 275.287 1215.02 275.06L1215.22 275.4C1214.62 275.893 1213.89 276.14 1213.02 276.14C1212.29 276.14 1211.77 275.993 1211.48 275.7C1211.19 275.407 1211.03 275.013 1211.02 274.52C1210.35 275.6 1209.37 276.14 1208.08 276.14ZM1209.62 274.86C1210.14 274.86 1210.59 274.587 1210.98 274.04V269.94C1210.82 270.207 1210.48 270.5 1209.96 270.82C1209.44 271.153 1209.05 271.487 1208.78 271.82C1208.51 272.153 1208.38 272.633 1208.38 273.26C1208.38 273.807 1208.49 274.213 1208.72 274.48C1208.95 274.733 1209.25 274.86 1209.62 274.86ZM1223.63 265.38C1224.65 265.38 1225.38 265.64 1225.83 266.16C1226.06 266.413 1226.22 266.74 1226.31 267.14C1226.41 267.54 1226.45 268.08 1226.45 268.76V274.14C1226.45 274.687 1226.55 275.067 1226.73 275.28C1226.93 275.48 1227.27 275.58 1227.73 275.58V276C1226.4 275.947 1225.52 275.92 1225.09 275.92C1224.69 275.92 1223.83 275.947 1222.49 276V275.58C1222.89 275.58 1223.17 275.48 1223.33 275.28C1223.49 275.067 1223.57 274.687 1223.57 274.14V267.92C1223.57 267.373 1223.48 266.96 1223.29 266.68C1223.12 266.4 1222.8 266.26 1222.33 266.26C1221.79 266.26 1221.32 266.487 1220.93 266.94C1220.55 267.38 1220.35 267.927 1220.35 268.58V274.14C1220.35 274.687 1220.43 275.067 1220.59 275.28C1220.75 275.48 1221.03 275.58 1221.43 275.58V276C1220.21 275.947 1219.38 275.92 1218.95 275.92C1218.55 275.92 1217.63 275.947 1216.19 276V275.58C1216.67 275.58 1217.01 275.48 1217.19 275.28C1217.38 275.067 1217.47 274.687 1217.47 274.14V267.84C1217.47 267.227 1217.38 266.78 1217.19 266.5C1217.01 266.22 1216.67 266.08 1216.19 266.08V265.66C1216.62 265.7 1217.03 265.72 1217.43 265.72C1218.62 265.72 1219.59 265.627 1220.35 265.44V267.24C1220.95 266 1222.05 265.38 1223.63 265.38ZM1232.84 265.38C1233.34 265.38 1233.81 265.447 1234.24 265.58C1234.66 265.7 1234.99 265.84 1235.22 266C1235.35 266.093 1235.47 266.14 1235.58 266.14C1235.7 266.14 1235.8 266.08 1235.88 265.96C1235.97 265.827 1236.03 265.64 1236.06 265.4H1236.48C1236.42 266.08 1236.4 267.253 1236.4 268.92H1235.98C1235.86 268.04 1235.59 267.307 1235.18 266.72C1234.78 266.12 1234.19 265.82 1233.42 265.82C1233.02 265.82 1232.68 265.933 1232.42 266.16C1232.16 266.387 1232.04 266.7 1232.04 267.1C1232.04 267.553 1232.19 267.947 1232.5 268.28C1232.8 268.6 1233.28 268.993 1233.94 269.46L1234.52 269.88C1235.33 270.493 1235.93 271.04 1236.32 271.52C1236.7 272 1236.9 272.6 1236.9 273.32C1236.9 273.907 1236.72 274.427 1236.38 274.88C1236.04 275.333 1235.59 275.68 1235.02 275.92C1234.44 276.16 1233.81 276.28 1233.12 276.28C1232.38 276.28 1231.76 276.14 1231.24 275.86C1230.81 275.647 1230.5 275.507 1230.32 275.44C1230.18 275.4 1230.06 275.447 1229.96 275.58C1229.86 275.7 1229.79 275.887 1229.74 276.14H1229.32C1229.37 275.38 1229.4 274.047 1229.4 272.14H1229.82C1230.08 274.593 1230.98 275.82 1232.52 275.82C1232.9 275.82 1233.23 275.707 1233.5 275.48C1233.78 275.24 1233.92 274.88 1233.92 274.4C1233.92 274.027 1233.83 273.693 1233.66 273.4C1233.5 273.107 1233.29 272.847 1233.04 272.62C1232.78 272.393 1232.4 272.08 1231.9 271.68C1231.3 271.2 1230.84 270.813 1230.52 270.52C1230.21 270.227 1229.94 269.88 1229.72 269.48C1229.5 269.08 1229.4 268.633 1229.4 268.14C1229.4 267.287 1229.73 266.613 1230.4 266.12C1231.06 265.627 1231.88 265.38 1232.84 265.38ZM1241.12 260.5C1241.68 260.5 1242.12 260.64 1242.44 260.92C1242.77 261.187 1242.94 261.56 1242.94 262.04C1242.94 262.52 1242.77 262.9 1242.44 263.18C1242.12 263.447 1241.68 263.58 1241.12 263.58C1240.56 263.58 1240.11 263.447 1239.78 263.18C1239.46 262.9 1239.3 262.52 1239.3 262.04C1239.3 261.56 1239.46 261.187 1239.78 260.92C1240.11 260.64 1240.56 260.5 1241.12 260.5ZM1242.68 274.14C1242.68 274.687 1242.77 275.067 1242.96 275.28C1243.16 275.48 1243.49 275.58 1243.96 275.58V276C1242.62 275.947 1241.74 275.92 1241.3 275.92C1240.88 275.92 1239.96 275.947 1238.52 276V275.58C1239 275.58 1239.33 275.48 1239.52 275.28C1239.7 275.067 1239.8 274.687 1239.8 274.14V267.84C1239.8 267.227 1239.7 266.78 1239.52 266.5C1239.33 266.22 1239 266.08 1238.52 266.08V265.66C1238.94 265.7 1239.36 265.72 1239.76 265.72C1240.94 265.72 1241.92 265.627 1242.68 265.44V274.14ZM1250.38 265.38C1251.92 265.38 1253.12 265.82 1253.98 266.7C1254.85 267.567 1255.28 268.947 1255.28 270.84C1255.28 272.733 1254.85 274.113 1253.98 274.98C1253.12 275.847 1251.92 276.28 1250.38 276.28C1248.86 276.28 1247.66 275.847 1246.78 274.98C1245.92 274.113 1245.48 272.733 1245.48 270.84C1245.48 268.947 1245.92 267.567 1246.78 266.7C1247.66 265.82 1248.86 265.38 1250.38 265.38ZM1250.38 265.78C1249.81 265.78 1249.35 266.2 1249 267.04C1248.67 267.867 1248.5 269.133 1248.5 270.84C1248.5 272.547 1248.67 273.813 1249 274.64C1249.35 275.467 1249.81 275.88 1250.38 275.88C1250.97 275.88 1251.43 275.473 1251.76 274.66C1252.1 273.833 1252.26 272.56 1252.26 270.84C1252.26 269.12 1252.09 267.847 1251.74 267.02C1251.41 266.193 1250.96 265.78 1250.38 265.78ZM1264.37 265.38C1265.39 265.38 1266.12 265.64 1266.57 266.16C1266.8 266.413 1266.96 266.74 1267.05 267.14C1267.15 267.54 1267.19 268.08 1267.19 268.76V274.14C1267.19 274.687 1267.29 275.067 1267.47 275.28C1267.67 275.48 1268.01 275.58 1268.47 275.58V276C1267.14 275.947 1266.26 275.92 1265.83 275.92C1265.43 275.92 1264.57 275.947 1263.23 276V275.58C1263.63 275.58 1263.91 275.48 1264.07 275.28C1264.23 275.067 1264.31 274.687 1264.31 274.14V267.92C1264.31 267.373 1264.22 266.96 1264.03 266.68C1263.86 266.4 1263.54 266.26 1263.07 266.26C1262.53 266.26 1262.06 266.487 1261.67 266.94C1261.29 267.38 1261.09 267.927 1261.09 268.58V274.14C1261.09 274.687 1261.17 275.067 1261.33 275.28C1261.49 275.48 1261.77 275.58 1262.17 275.58V276C1260.95 275.947 1260.12 275.92 1259.69 275.92C1259.29 275.92 1258.37 275.947 1256.93 276V275.58C1257.41 275.58 1257.75 275.48 1257.93 275.28C1258.12 275.067 1258.21 274.687 1258.21 274.14V267.84C1258.21 267.227 1258.12 266.78 1257.93 266.5C1257.75 266.22 1257.41 266.08 1256.93 266.08V265.66C1257.36 265.7 1257.77 265.72 1258.17 265.72C1259.36 265.72 1260.33 265.627 1261.09 265.44V267.24C1261.69 266 1262.79 265.38 1264.37 265.38Z" fill="white"/>
<path d="M707.381 581.56C708.181 581.56 708.861 581.673 709.421 581.9C709.981 582.127 710.527 582.447 711.061 582.86C711.207 582.98 711.334 583.04 711.441 583.04C711.707 583.04 711.881 582.64 711.961 581.84H712.421C712.367 582.747 712.341 584.36 712.341 586.68H711.881C711.761 585.693 711.601 584.94 711.401 584.42C711.201 583.9 710.861 583.447 710.381 583.06C710.047 582.74 709.661 582.5 709.221 582.34C708.781 582.167 708.321 582.08 707.841 582.08C706.494 582.08 705.494 582.74 704.841 584.06C704.187 585.367 703.861 587 703.861 588.96C703.861 590.907 704.201 592.533 704.881 593.84C705.561 595.147 706.574 595.8 707.921 595.8C708.374 595.8 708.821 595.72 709.261 595.56C709.714 595.387 710.094 595.14 710.401 594.82C710.894 594.447 711.234 593.98 711.421 593.42C711.621 592.86 711.774 592.04 711.881 590.96H712.341C712.341 593.373 712.367 595.053 712.421 596H711.961C711.921 595.573 711.861 595.273 711.781 595.1C711.714 594.913 711.614 594.82 711.481 594.82C711.374 594.82 711.234 594.873 711.061 594.98C710.461 595.407 709.887 595.733 709.341 595.96C708.794 596.173 708.134 596.28 707.361 596.28C705.947 596.28 704.707 595.993 703.641 595.42C702.587 594.847 701.767 594.02 701.181 592.94C700.594 591.847 700.301 590.547 700.301 589.04C700.301 587.573 700.601 586.273 701.201 585.14C701.801 584.007 702.634 583.127 703.701 582.5C704.781 581.873 706.007 581.56 707.381 581.56ZM719.582 585.38C721.116 585.38 722.316 585.82 723.182 586.7C724.049 587.567 724.482 588.947 724.482 590.84C724.482 592.733 724.049 594.113 723.182 594.98C722.316 595.847 721.116 596.28 719.582 596.28C718.062 596.28 716.862 595.847 715.982 594.98C715.116 594.113 714.682 592.733 714.682 590.84C714.682 588.947 715.116 587.567 715.982 586.7C716.862 585.82 718.062 585.38 719.582 585.38ZM719.582 585.78C719.009 585.78 718.549 586.2 718.202 587.04C717.869 587.867 717.702 589.133 717.702 590.84C717.702 592.547 717.869 593.813 718.202 594.64C718.549 595.467 719.009 595.88 719.582 595.88C720.169 595.88 720.629 595.473 720.962 594.66C721.296 593.833 721.462 592.56 721.462 590.84C721.462 589.12 721.289 587.847 720.942 587.02C720.609 586.193 720.156 585.78 719.582 585.78ZM733.571 585.38C734.584 585.38 735.317 585.64 735.771 586.16C735.997 586.413 736.157 586.74 736.251 587.14C736.344 587.54 736.391 588.08 736.391 588.76V594.14C736.391 594.687 736.484 595.067 736.671 595.28C736.871 595.48 737.204 595.58 737.671 595.58V596C736.337 595.947 735.457 595.92 735.031 595.92C734.631 595.92 733.764 595.947 732.431 596V595.58C732.831 595.58 733.111 595.48 733.271 595.28C733.431 595.067 733.511 594.687 733.511 594.14V587.92C733.511 587.373 733.417 586.96 733.231 586.68C733.057 586.4 732.737 586.26 732.271 586.26C731.724 586.26 731.257 586.487 730.871 586.94C730.484 587.38 730.291 587.927 730.291 588.58V594.14C730.291 594.687 730.371 595.067 730.531 595.28C730.691 595.48 730.971 595.58 731.371 595.58V596C730.144 595.947 729.317 595.92 728.891 595.92C728.491 595.92 727.571 595.947 726.131 596V595.58C726.611 595.58 726.944 595.48 727.131 595.28C727.317 595.067 727.411 594.687 727.411 594.14V587.84C727.411 587.227 727.317 586.78 727.131 586.5C726.944 586.22 726.611 586.08 726.131 586.08V585.66C726.557 585.7 726.971 585.72 727.371 585.72C728.557 585.72 729.531 585.627 730.291 585.44V587.24C730.891 586 731.984 585.38 733.571 585.38ZM744.016 585.38C744.509 585.38 744.976 585.433 745.416 585.54C745.856 585.647 746.223 585.793 746.516 585.98C746.863 586.193 747.129 586.467 747.316 586.8C747.516 587.12 747.616 587.473 747.616 587.86C747.616 588.327 747.469 588.713 747.176 589.02C746.883 589.313 746.503 589.46 746.036 589.46C745.569 589.46 745.196 589.327 744.916 589.06C744.636 588.793 744.496 588.433 744.496 587.98C744.496 587.58 744.623 587.233 744.876 586.94C745.129 586.647 745.443 586.447 745.816 586.34C745.709 586.193 745.543 586.08 745.316 586C745.103 585.907 744.869 585.86 744.616 585.86C743.816 585.86 743.189 586.3 742.736 587.18C742.296 588.047 742.076 589.187 742.076 590.6C742.076 592.027 742.329 593.053 742.836 593.68C743.343 594.307 743.976 594.62 744.736 594.62C745.189 594.62 745.643 594.5 746.096 594.26C746.563 594.02 746.983 593.6 747.356 593L747.696 593.12C747.429 593.987 746.963 594.733 746.296 595.36C745.629 595.973 744.769 596.28 743.716 596.28C742.343 596.28 741.223 595.827 740.356 594.92C739.489 594.013 739.056 592.667 739.056 590.88C739.056 589.707 739.269 588.707 739.696 587.88C740.123 587.053 740.709 586.433 741.456 586.02C742.203 585.593 743.056 585.38 744.016 585.38ZM755.018 594.64C756.111 594.64 756.991 594.107 757.658 593.04L758.018 593.16C757.751 594.027 757.271 594.767 756.578 595.38C755.898 595.98 755.044 596.28 754.018 596.28C752.604 596.28 751.478 595.833 750.638 594.94C749.811 594.033 749.398 592.7 749.398 590.94C749.398 589.14 749.844 587.767 750.738 586.82C751.631 585.86 752.818 585.38 754.298 585.38C756.804 585.38 758.058 586.86 758.058 589.82H752.438C752.424 590.02 752.418 590.333 752.418 590.76C752.418 591.64 752.538 592.373 752.778 592.96C753.031 593.547 753.351 593.973 753.738 594.24C754.138 594.507 754.564 594.64 755.018 594.64ZM754.178 585.8C753.698 585.8 753.298 586.1 752.978 586.7C752.671 587.287 752.478 588.2 752.398 589.44H755.538C755.564 588.387 755.458 587.52 755.218 586.84C754.991 586.147 754.644 585.8 754.178 585.8ZM766.796 585.38C767.489 585.38 768.103 585.567 768.636 585.94C769.183 586.313 769.609 586.873 769.916 587.62C770.223 588.367 770.376 589.28 770.376 590.36C770.376 592.267 769.956 593.733 769.116 594.76C768.289 595.773 767.163 596.28 765.736 596.28C765.336 596.28 764.956 596.227 764.596 596.12C764.249 596.013 763.949 595.853 763.696 595.64V597.64C763.696 598.227 763.843 598.633 764.136 598.86C764.429 599.087 764.883 599.2 765.496 599.2V599.62L764.956 599.6C763.476 599.56 762.536 599.54 762.136 599.54C761.736 599.54 760.896 599.567 759.616 599.62V599.2C760.056 599.2 760.363 599.1 760.536 598.9C760.723 598.713 760.816 598.36 760.816 597.84V587.84C760.816 587.227 760.716 586.78 760.516 586.5C760.329 586.22 760.003 586.08 759.536 586.08V585.66C759.963 585.7 760.376 585.72 760.776 585.72C761.936 585.72 762.909 585.627 763.696 585.44V587.28C763.976 586.667 764.383 586.2 764.916 585.88C765.449 585.547 766.076 585.38 766.796 585.38ZM764.956 595.74C765.809 595.74 766.423 595.32 766.796 594.48C767.169 593.627 767.356 592.387 767.356 590.76C767.356 589.133 767.203 587.973 766.896 587.28C766.603 586.587 766.176 586.24 765.616 586.24C765.163 586.24 764.756 586.393 764.396 586.7C764.049 587.007 763.816 587.433 763.696 587.98V595.2C764.016 595.56 764.436 595.74 764.956 595.74ZM776.068 585.66H778.428V586.06H776.068V594.14C776.068 594.54 776.135 594.827 776.268 595C776.415 595.16 776.641 595.24 776.948 595.24C777.521 595.24 777.975 594.84 778.308 594.04L778.648 594.22C778.141 595.593 777.228 596.28 775.908 596.28C775.028 596.28 774.361 596.053 773.908 595.6C773.628 595.32 773.435 594.973 773.328 594.56C773.235 594.133 773.188 593.553 773.188 592.82V586.06H771.508V585.66H773.188V583.02C774.295 583.02 775.255 582.807 776.068 582.38V585.66Z" fill="#666767"/>
<defs>
<filter id="filter0_dd" x="963.115" y="110" width="738.885" height="454.411" filterUnits="userSpaceOnUse" color-interpolation-filters="sRGB">
<feFlood flood-opacity="0" result="BackgroundImageFix"/>
<feColorMatrix in="SourceAlpha" type="matrix" values="0 0 0 0 0 0 0 0 0 0 0 0 0 0 0 0 0 0 127 0"/>
<feOffset/>
<feGaussianBlur stdDeviation="10"/>
<feColorMatrix type="matrix" values="0 0 0 0 0.788235 0 0 0 0 0.65098 0 0 0 0 0.431373 0 0 0 0.4 0"/>
<feBlend mode="normal" in2="BackgroundImageFix" result="effect1_dropShadow"/>
<feColorMatrix in="SourceAlpha" type="matrix" values="0 0 0 0 0 0 0 0 0 0 0 0 0 0 0 0 0 0 127 0"/>
<feOffset dx="-8" dy="-8"/>
<feGaussianBlur stdDeviation="40"/>
<feColorMatrix type="matrix" values="0 0 0 0 0.788235 0 0 0 0 0.65098 0 0 0 0 0.431373 0 0 0 1 0"/>
<feBlend mode="normal" in2="effect1_dropShadow" result="effect2_dropShadow"/>
<feBlend mode="normal" in="SourceGraphic" in2="effect2_dropShadow" result="shape"/>
</filter>
<filter id="filter1_dd" x="1124" y="220" width="176" height="176" filterUnits="userSpaceOnUse" color-interpolation-filters="sRGB">
<feFlood flood-opacity="0" result="BackgroundImageFix"/>
<feColorMatrix in="SourceAlpha" type="matrix" values="0 0 0 0 0 0 0 0 0 0 0 0 0 0 0 0 0 0 127 0"/>
<feOffset/>
<feGaussianBlur stdDeviation="10"/>
<feColorMatrix type="matrix" values="0 0 0 0 0.788235 0 0 0 0 0.65098 0 0 0 0 0.431373 0 0 0 0.4 0"/>
<feBlend mode="normal" in2="BackgroundImageFix" result="effect1_dropShadow"/>
<feColorMatrix in="SourceAlpha" type="matrix" values="0 0 0 0 0 0 0 0 0 0 0 0 0 0 0 0 0 0 127 0"/>
<feOffset dx="-8" dy="-8"/>
<feGaussianBlur stdDeviation="40"/>
<feColorMatrix type="matrix" values="0 0 0 0 0.788235 0 0 0 0 0.65098 0 0 0 0 0.431373 0 0 0 1 0"/>
<feBlend mode="normal" in2="effect1_dropShadow" result="effect2_dropShadow"/>
<feBlend mode="normal" in="SourceGraphic" in2="effect2_dropShadow" result="shape"/>
</filter>
<filter id="filter2_dd" x="1044" y="283" width="176" height="176" filterUnits="userSpaceOnUse" color-interpolation-filters="sRGB">
<feFlood flood-opacity="0" result="BackgroundImageFix"/>
<feColorMatrix in="SourceAlpha" type="matrix" values="0 0 0 0 0 0 0 0 0 0 0 0 0 0 0 0 0 0 127 0"/>
<feOffset/>
<feGaussianBlur stdDeviation="10"/>
<feColorMatrix type="matrix" values="0 0 0 0 0.788235 0 0 0 0 0.65098 0 0 0 0 0.431373 0 0 0 0.4 0"/>
<feBlend mode="normal" in2="BackgroundImageFix" result="effect1_dropShadow"/>
<feColorMatrix in="SourceAlpha" type="matrix" values="0 0 0 0 0 0 0 0 0 0 0 0 0 0 0 0 0 0 127 0"/>
<feOffset dx="-8" dy="-8"/>
<feGaussianBlur stdDeviation="40"/>
<feColorMatrix type="matrix" values="0 0 0 0 0.788235 0 0 0 0 0.65098 0 0 0 0 0.431373 0 0 0 1 0"/>
<feBlend mode="normal" in2="effect1_dropShadow" result="effect2_dropShadow"/>
<feBlend mode="normal" in="SourceGraphic" in2="effect2_dropShadow" result="shape"/>
</filter>
<filter id="filter3_dd" x="964" y="382" width="176" height="176" filterUnits="userSpaceOnUse" color-interpolation-filters="sRGB">
<feFlood flood-opacity="0" result="BackgroundImageFix"/>
<feColorMatrix in="SourceAlpha" type="matrix" values="0 0 0 0 0 0 0 0 0 0 0 0 0 0 0 0 0 0 127 0"/>
<feOffset/>
<feGaussianBlur stdDeviation="10"/>
<feColorMatrix type="matrix" values="0 0 0 0 0.788235 0 0 0 0 0.65098 0 0 0 0 0.431373 0 0 0 0.4 0"/>
<feBlend mode="normal" in2="BackgroundImageFix" result="effect1_dropShadow"/>
<feColorMatrix in="SourceAlpha" type="matrix" values="0 0 0 0 0 0 0 0 0 0 0 0 0 0 0 0 0 0 127 0"/>
<feOffset dx="-8" dy="-8"/>
<feGaussianBlur stdDeviation="40"/>
<feColorMatrix type="matrix" values="0 0 0 0 0.788235 0 0 0 0 0.65098 0 0 0 0 0.431373 0 0 0 1 0"/>
<feBlend mode="normal" in2="effect1_dropShadow" result="effect2_dropShadow"/>
<feBlend mode="normal" in="SourceGraphic" in2="effect2_dropShadow" result="shape"/>
</filter>
<filter id="filter4_dd" x="804" y="505" width="176" height="176" filterUnits="userSpaceOnUse" color-interpolation-filters="sRGB">
<feFlood flood-opacity="0" result="BackgroundImageFix"/>
<feColorMatrix in="SourceAlpha" type="matrix" values="0 0 0 0 0 0 0 0 0 0 0 0 0 0 0 0 0 0 127 0"/>
<feOffset/>
<feGaussianBlur stdDeviation="10"/>
<feColorMatrix type="matrix" values="0 0 0 0 0.6 0 0 0 0 0.6 0 0 0 0 0.6 0 0 0 0.8 0"/>
<feBlend mode="normal" in2="BackgroundImageFix" result="effect1_dropShadow"/>
<feColorMatrix in="SourceAlpha" type="matrix" values="0 0 0 0 0 0 0 0 0 0 0 0 0 0 0 0 0 0 127 0"/>
<feOffset dx="-8" dy="-8"/>
<feGaussianBlur stdDeviation="40"/>
<feColorMatrix type="matrix" values="0 0 0 0 0.6 0 0 0 0 0.6 0 0 0 0 0.6 0 0 0 1 0"/>
<feBlend mode="normal" in2="effect1_dropShadow" result="effect2_dropShadow"/>
<feBlend mode="normal" in="SourceGraphic" in2="effect2_dropShadow" result="shape"/>
</filter>
<filter id="filter5_dd" x="644" y="530" width="176" height="176" filterUnits="userSpaceOnUse" color-interpolation-filters="sRGB">
<feFlood flood-opacity="0" result="BackgroundImageFix"/>
<feColorMatrix in="SourceAlpha" type="matrix" values="0 0 0 0 0 0 0 0 0 0 0 0 0 0 0 0 0 0 127 0"/>
<feOffset/>
<feGaussianBlur stdDeviation="10"/>
<feColorMatrix type="matrix" values="0 0 0 0 0.6 0 0 0 0 0.6 0 0 0 0 0.6 0 0 0 0.4 0"/>
<feBlend mode="normal" in2="BackgroundImageFix" result="effect1_dropShadow"/>
<feColorMatrix in="SourceAlpha" type="matrix" values="0 0 0 0 0 0 0 0 0 0 0 0 0 0 0 0 0 0 127 0"/>
<feOffset dx="-8" dy="-8"/>
<feGaussianBlur stdDeviation="40"/>
<feColorMatrix type="matrix" values="0 0 0 0 0.6 0 0 0 0 0.6 0 0 0 0 0.6 0 0 0 1 0"/>
<feBlend mode="normal" in2="effect1_dropShadow" result="effect2_dropShadow"/>
<feBlend mode="normal" in="SourceGraphic" in2="effect2_dropShadow" result="shape"/>
</filter>
<linearGradient id="paint0_linear" x1="1415.53" y1="160.017" x2="1415.53" y2="847.724" gradientUnits="userSpaceOnUse">
<stop stop-color="#C9A66E" stop-opacity="0.2"/>
<stop offset="0.426449" stop-color="white" stop-opacity="0.05"/>
<stop offset="1" stop-color="white" stop-opacity="0"/>
</linearGradient>
<linearGradient id="paint1_linear" x1="669.729" y1="445.622" x2="669.729" y2="896" gradientUnits="userSpaceOnUse">
<stop stop-color="white" stop-opacity="0.05"/>
<stop offset="1" stop-color="white" stop-opacity="0"/>
</linearGradient>
<linearGradient id="paint2_linear" x1="1053" y1="619" x2="80" y2="619" gradientUnits="userSpaceOnUse">
<stop offset="0.0280505" stop-color="white" stop-opacity="0.2"/>
<stop offset="0.697287" stop-color="white" stop-opacity="0.1"/>
<stop offset="1" stop-color="white" stop-opacity="0"/>
<stop offset="1" stop-color="white" stop-opacity="0"/>
</linearGradient>
<linearGradient id="paint3_linear" x1="701.447" y1="528" x2="701.447" y2="850.297" gradientUnits="userSpaceOnUse">
<stop stop-color="#C9A66E"/>
<stop offset="0.367355" stop-color="#C9A66E" stop-opacity="0.4"/>
<stop offset="1" stop-color="#C9A66E" stop-opacity="0"/>
</linearGradient>
</defs>
</svg>
