<svg width="1440" height="896" viewBox="0 0 1440 896" fill="none" xmlns="http://www.w3.org/2000/svg">
<g clip-path="url(#clip0)">
<path d="M-180 200C18.3404 200 289.5 311.5 380.11 477.876L380 895.703L-180 896V200Z" fill="url(#paint0_linear)"/>
<path d="M380 477C457 626 640.5 629.297 903.918 629.297H1440V896H380V477Z" fill="url(#paint1_linear)"/>
<path d="M376.86 471C457 640 703.32 628.297 923.918 628.297H1360" stroke="url(#paint2_linear)" stroke-width="4"/>
<path d="M1310 890.297C556 890.297 477 643 387.1 491.5" stroke="url(#paint3_linear)" stroke-width="4"/>
<g filter="url(#filter0_dd)">
<path d="M-190 200C3.99963 200 285 292 387.1 491.5" stroke="#C9A66E" stroke-width="4"/>
</g>
<g filter="url(#filter1_dd)">
<path d="M220 324C215.582 324 212 320.418 212 316C212 311.582 215.582 308 220 308C224.418 308 228 311.582 228 316C228 320.418 224.418 324 220 324Z" fill="#5B422C"/>
<path d="M220 322C216.686 322 214 319.314 214 316C214 312.686 216.686 310 220 310C223.314 310 226 312.686 226 316C226 319.314 223.314 322 220 322Z" stroke="#C9A66E" stroke-width="4"/>
</g>
<g filter="url(#filter2_dd)">
<path d="M300 387C295.582 387 292 383.418 292 379C292 374.582 295.582 371 300 371C304.418 371 308 374.582 308 379C308 383.418 304.418 387 300 387Z" fill="#5B422C"/>
<path d="M300 385C296.686 385 294 382.314 294 379C294 375.686 296.686 373 300 373C303.314 373 306 375.686 306 379C306 382.314 303.314 385 300 385Z" stroke="#C9A66E" stroke-width="4"/>
</g>
<g filter="url(#filter3_dd)">
<path d="M380 486C375.582 486 372 482.418 372 478C372 473.582 375.582 470 380 470C384.418 470 388 473.582 388 478C388 482.418 384.418 486 380 486Z" fill="#5B422C"/>
<path d="M380 484C376.686 484 374 481.314 374 478C374 474.686 376.686 472 380 472C383.314 472 386 474.686 386 478C386 481.314 383.314 484 380 484Z" stroke="#C9A66E" stroke-width="4"/>
</g>
<g filter="url(#filter4_dd)">
<path d="M540 609C535.582 609 532 605.418 532 601C532 596.582 535.582 593 540 593C544.418 593 548 596.582 548 601C548 605.418 544.418 609 540 609Z" fill="#666767"/>
<path d="M540 607C536.686 607 534 604.314 534 601C534 597.686 536.686 595 540 595C543.314 595 546 597.686 546 601C546 604.314 543.314 607 540 607Z" stroke="#CCCCCC" stroke-width="4"/>
</g>
<g filter="url(#filter5_dd)">
<path d="M700 634C695.582 634 692 630.418 692 626C692 621.582 695.582 618 700 618C704.418 618 708 621.582 708 626C708 630.418 704.418 634 700 634Z" fill="#4C4D4D"/>
<path d="M700 632C696.686 632 694 629.314 694 626C694 622.686 696.686 620 700 620C703.314 620 706 622.686 706 626C706 629.314 703.314 632 700 632Z" stroke="#B2B3B3" stroke-width="4"/>
</g>
<path d="M497.799 558.28V561.76C497.799 562.293 497.852 562.687 497.959 562.94C498.079 563.18 498.279 563.34 498.559 563.42C498.852 563.5 499.312 563.547 499.939 563.56V564C498.299 563.96 497.079 563.94 496.279 563.94C495.612 563.94 494.772 563.953 493.759 563.98L493.119 564V563.6C493.559 563.573 493.879 563.52 494.079 563.44C494.292 563.36 494.432 563.207 494.499 562.98C494.579 562.753 494.619 562.387 494.619 561.88V551.96C494.619 551.453 494.579 551.087 494.499 550.86C494.432 550.633 494.292 550.48 494.079 550.4C493.879 550.32 493.559 550.267 493.119 550.24V549.84C493.799 549.88 494.812 549.9 496.159 549.9L498.379 549.88C498.646 549.867 498.952 549.86 499.299 549.86C501.099 549.86 502.472 550.22 503.419 550.94C504.366 551.647 504.839 552.6 504.839 553.8C504.839 554.533 504.652 555.24 504.279 555.92C503.906 556.587 503.272 557.147 502.379 557.6C501.499 558.053 500.326 558.28 498.859 558.28H497.799ZM499.039 550.24C498.679 550.24 498.412 550.287 498.239 550.38C498.079 550.473 497.966 550.64 497.899 550.88C497.832 551.12 497.799 551.48 497.799 551.96V557.88H498.659C499.739 557.88 500.486 557.533 500.899 556.84C501.312 556.147 501.519 555.207 501.519 554.02C501.519 552.727 501.326 551.773 500.939 551.16C500.566 550.547 499.932 550.24 499.039 550.24ZM513.012 553.38C513.612 553.38 514.065 553.56 514.372 553.92C514.678 554.28 514.832 554.713 514.832 555.22C514.832 555.713 514.685 556.12 514.392 556.44C514.112 556.747 513.738 556.9 513.272 556.9C512.818 556.9 512.458 556.787 512.192 556.56C511.925 556.32 511.792 556.007 511.792 555.62C511.792 554.98 512.085 554.46 512.672 554.06C512.618 554.047 512.538 554.04 512.432 554.04C512.298 554.04 512.192 554.053 512.112 554.08C511.605 554.16 511.172 554.467 510.812 555C510.465 555.533 510.292 556.08 510.292 556.64V561.94C510.292 562.553 510.438 562.98 510.732 563.22C511.038 563.46 511.518 563.58 512.172 563.58V564C511.985 564 511.832 563.993 511.712 563.98C510.352 563.94 509.445 563.92 508.992 563.92C508.632 563.92 507.812 563.94 506.532 563.98C506.425 563.993 506.292 564 506.132 564V563.58C506.612 563.58 506.945 563.48 507.132 563.28C507.318 563.067 507.412 562.687 507.412 562.14V555.84C507.412 555.227 507.318 554.78 507.132 554.5C506.945 554.22 506.612 554.08 506.132 554.08V553.66C506.558 553.7 506.972 553.72 507.372 553.72C508.558 553.72 509.532 553.627 510.292 553.44V555.3C510.545 554.727 510.912 554.267 511.392 553.92C511.872 553.56 512.412 553.38 513.012 553.38ZM520.754 553.38C522.287 553.38 523.487 553.82 524.354 554.7C525.221 555.567 525.654 556.947 525.654 558.84C525.654 560.733 525.221 562.113 524.354 562.98C523.487 563.847 522.287 564.28 520.754 564.28C519.234 564.28 518.034 563.847 517.154 562.98C516.287 562.113 515.854 560.733 515.854 558.84C515.854 556.947 516.287 555.567 517.154 554.7C518.034 553.82 519.234 553.38 520.754 553.38ZM520.754 553.78C520.181 553.78 519.721 554.2 519.374 555.04C519.041 555.867 518.874 557.133 518.874 558.84C518.874 560.547 519.041 561.813 519.374 562.64C519.721 563.467 520.181 563.88 520.754 563.88C521.341 563.88 521.801 563.473 522.134 562.66C522.467 561.833 522.634 560.56 522.634 558.84C522.634 557.12 522.461 555.847 522.114 555.02C521.781 554.193 521.327 553.78 520.754 553.78ZM531.363 553.66H533.723V554.06H531.363V562.14C531.363 562.54 531.429 562.827 531.563 563C531.709 563.16 531.936 563.24 532.243 563.24C532.816 563.24 533.269 562.84 533.603 562.04L533.943 562.22C533.436 563.593 532.523 564.28 531.203 564.28C530.323 564.28 529.656 564.053 529.203 563.6C528.923 563.32 528.729 562.973 528.623 562.56C528.529 562.133 528.483 561.553 528.483 560.82V554.06H526.803V553.66H528.483V551.02C529.589 551.02 530.549 550.807 531.363 550.38V553.66ZM539.816 553.38C541.349 553.38 542.549 553.82 543.416 554.7C544.282 555.567 544.716 556.947 544.716 558.84C544.716 560.733 544.282 562.113 543.416 562.98C542.549 563.847 541.349 564.28 539.816 564.28C538.296 564.28 537.096 563.847 536.216 562.98C535.349 562.113 534.916 560.733 534.916 558.84C534.916 556.947 535.349 555.567 536.216 554.7C537.096 553.82 538.296 553.38 539.816 553.38ZM539.816 553.78C539.242 553.78 538.782 554.2 538.436 555.04C538.102 555.867 537.936 557.133 537.936 558.84C537.936 560.547 538.102 561.813 538.436 562.64C538.782 563.467 539.242 563.88 539.816 563.88C540.402 563.88 540.862 563.473 541.196 562.66C541.529 561.833 541.696 560.56 541.696 558.84C541.696 557.12 541.522 555.847 541.176 555.02C540.842 554.193 540.389 553.78 539.816 553.78ZM550.424 553.66H552.784V554.06H550.424V562.14C550.424 562.54 550.491 562.827 550.624 563C550.771 563.16 550.998 563.24 551.304 563.24C551.878 563.24 552.331 562.84 552.664 562.04L553.004 562.22C552.498 563.593 551.584 564.28 550.264 564.28C549.384 564.28 548.718 564.053 548.264 563.6C547.984 563.32 547.791 562.973 547.684 562.56C547.591 562.133 547.544 561.553 547.544 560.82V554.06H545.864V553.66H547.544V551.02C548.651 551.02 549.611 550.807 550.424 550.38V553.66ZM562.036 553.72C562.702 553.72 563.216 553.7 563.576 553.66V554.06C563.296 554.14 563.042 554.313 562.816 554.58C562.602 554.833 562.396 555.233 562.196 555.78L558.616 565.84C558.349 566.533 558.056 567.007 557.736 567.26C557.349 567.593 556.769 567.76 555.996 567.76C555.436 567.76 554.929 567.62 554.476 567.34C554.036 567.073 553.816 566.68 553.816 566.16C553.816 565.747 553.962 565.413 554.256 565.16C554.549 564.92 554.936 564.8 555.416 564.8C555.869 564.8 556.229 564.907 556.496 565.12C556.776 565.347 556.916 565.66 556.916 566.06C556.916 566.34 556.829 566.593 556.656 566.82C556.482 567.06 556.236 567.24 555.916 567.36C556.009 567.373 556.162 567.38 556.376 567.38C557.202 567.38 557.809 566.853 558.196 565.8L558.516 564.84L554.276 555.2C554.062 554.747 553.856 554.447 553.656 554.3C553.456 554.153 553.249 554.08 553.036 554.08V553.66C553.916 553.74 554.829 553.78 555.776 553.78C556.562 553.78 557.489 553.74 558.556 553.66V554.08C558.129 554.08 557.809 554.113 557.596 554.18C557.396 554.233 557.296 554.387 557.296 554.64C557.296 554.787 557.342 554.973 557.436 555.2L559.876 561.1L561.256 557.26C561.469 556.633 561.576 556.1 561.576 555.66C561.576 554.687 561.082 554.153 560.096 554.06V553.66C560.722 553.7 561.369 553.72 562.036 553.72ZM571.747 553.38C572.44 553.38 573.053 553.567 573.587 553.94C574.133 554.313 574.56 554.873 574.867 555.62C575.173 556.367 575.327 557.28 575.327 558.36C575.327 560.267 574.907 561.733 574.067 562.76C573.24 563.773 572.113 564.28 570.687 564.28C570.287 564.28 569.907 564.227 569.547 564.12C569.2 564.013 568.9 563.853 568.647 563.64V565.64C568.647 566.227 568.793 566.633 569.087 566.86C569.38 567.087 569.833 567.2 570.447 567.2V567.62L569.907 567.6C568.427 567.56 567.487 567.54 567.087 567.54C566.687 567.54 565.847 567.567 564.567 567.62V567.2C565.007 567.2 565.313 567.1 565.487 566.9C565.673 566.713 565.767 566.36 565.767 565.84V555.84C565.767 555.227 565.667 554.78 565.467 554.5C565.28 554.22 564.953 554.08 564.487 554.08V553.66C564.913 553.7 565.327 553.72 565.727 553.72C566.887 553.72 567.86 553.627 568.647 553.44V555.28C568.927 554.667 569.333 554.2 569.867 553.88C570.4 553.547 571.027 553.38 571.747 553.38ZM569.907 563.74C570.76 563.74 571.373 563.32 571.747 562.48C572.12 561.627 572.307 560.387 572.307 558.76C572.307 557.133 572.153 555.973 571.847 555.28C571.553 554.587 571.127 554.24 570.567 554.24C570.113 554.24 569.707 554.393 569.347 554.7C569 555.007 568.767 555.433 568.647 555.98V563.2C568.967 563.56 569.387 563.74 569.907 563.74ZM582.839 562.64C583.932 562.64 584.812 562.107 585.479 561.04L585.839 561.16C585.572 562.027 585.092 562.767 584.399 563.38C583.719 563.98 582.866 564.28 581.839 564.28C580.426 564.28 579.299 563.833 578.459 562.94C577.632 562.033 577.219 560.7 577.219 558.94C577.219 557.14 577.666 555.767 578.559 554.82C579.452 553.86 580.639 553.38 582.119 553.38C584.626 553.38 585.879 554.86 585.879 557.82H580.259C580.246 558.02 580.239 558.333 580.239 558.76C580.239 559.64 580.359 560.373 580.599 560.96C580.852 561.547 581.172 561.973 581.559 562.24C581.959 562.507 582.386 562.64 582.839 562.64ZM581.999 553.8C581.519 553.8 581.119 554.1 580.799 554.7C580.492 555.287 580.299 556.2 580.219 557.44H583.359C583.386 556.387 583.279 555.52 583.039 554.84C582.812 554.147 582.466 553.8 581.999 553.8Z" fill="#999999"/>
<path d="M402.944 443.58C403.634 443.58 404.184 443.647 404.604 443.78C405.014 443.913 405.434 444.107 405.864 444.36C406.004 444.44 406.134 444.507 406.244 444.56C406.364 444.613 406.464 444.64 406.544 444.64C406.664 444.64 406.754 444.573 406.824 444.44C406.884 444.293 406.944 444.067 406.984 443.76H407.444C407.374 444.653 407.344 446.173 407.344 448.32H406.884C406.824 447.6 406.664 446.913 406.384 446.26C406.114 445.607 405.724 445.08 405.224 444.68C404.724 444.267 404.144 444.06 403.484 444.06C402.824 444.06 402.294 444.247 401.884 444.62C401.484 444.98 401.284 445.473 401.284 446.1C401.284 446.567 401.384 446.973 401.584 447.32C401.784 447.667 402.064 447.987 402.424 448.28C402.784 448.56 403.334 448.947 404.084 449.44L404.724 449.88C405.504 450.4 406.124 450.853 406.584 451.24C407.034 451.627 407.404 452.08 407.684 452.6C407.974 453.107 408.124 453.7 408.124 454.38C408.124 455.233 407.904 455.953 407.464 456.54C407.024 457.113 406.424 457.547 405.664 457.84C404.914 458.133 404.084 458.28 403.164 458.28C402.414 458.28 401.794 458.213 401.304 458.08C400.804 457.947 400.354 457.767 399.939 457.54C399.646 457.353 399.419 457.26 399.259 457.26C399.139 457.26 399.046 457.333 398.979 457.48C398.913 457.613 398.859 457.833 398.819 458.14H398.359C398.413 457.3 398.439 455.5 398.439 452.74H398.899C398.993 454.233 399.326 455.447 399.899 456.38C400.474 457.3 401.354 457.76 402.544 457.76C403.264 457.76 403.854 457.567 404.324 457.18C404.784 456.793 405.024 456.24 405.024 455.52C405.024 454.773 404.784 454.133 404.304 453.6C403.824 453.067 403.064 452.467 402.024 451.8C401.224 451.28 400.584 450.827 400.099 450.44C399.619 450.053 399.226 449.6 398.919 449.08C398.613 448.547 398.459 447.933 398.459 447.24C398.459 446.44 398.659 445.767 399.059 445.22C399.473 444.66 400.019 444.247 400.704 443.98C401.384 443.713 402.124 443.58 402.944 443.58ZM415.704 456.64C416.794 456.64 417.674 456.107 418.344 455.04L418.704 455.16C418.434 456.027 417.954 456.767 417.264 457.38C416.584 457.98 415.724 458.28 414.704 458.28C413.284 458.28 412.164 457.833 411.324 456.94C410.494 456.033 410.084 454.7 410.084 452.94C410.084 451.14 410.524 449.767 411.424 448.82C412.314 447.86 413.504 447.38 414.984 447.38C417.484 447.38 418.744 448.86 418.744 451.82H413.124C413.104 452.02 413.104 452.333 413.104 452.76C413.104 453.64 413.224 454.373 413.464 454.96C413.714 455.547 414.034 455.973 414.424 456.24C414.824 456.507 415.244 456.64 415.704 456.64ZM414.864 447.8C414.384 447.8 413.984 448.1 413.664 448.7C413.354 449.287 413.164 450.2 413.084 451.44H416.224C416.244 450.387 416.144 449.52 415.904 448.84C415.674 448.147 415.324 447.8 414.864 447.8ZM426.174 456.64C427.274 456.64 428.154 456.107 428.814 455.04L429.174 455.16C428.914 456.027 428.434 456.767 427.734 457.38C427.054 457.98 426.204 458.28 425.174 458.28C423.764 458.28 422.634 457.833 421.794 456.94C420.974 456.033 420.554 454.7 420.554 452.94C420.554 451.14 421.004 449.767 421.894 448.82C422.794 447.86 423.974 447.38 425.454 447.38C427.964 447.38 429.214 448.86 429.214 451.82H423.594C423.584 452.02 423.574 452.333 423.574 452.76C423.574 453.64 423.694 454.373 423.934 454.96C424.194 455.547 424.514 455.973 424.894 456.24C425.294 456.507 425.724 456.64 426.174 456.64ZM425.334 447.8C424.854 447.8 424.454 448.1 424.134 448.7C423.834 449.287 423.634 450.2 423.554 451.44H426.694C426.724 450.387 426.614 449.52 426.374 448.84C426.154 448.147 425.804 447.8 425.334 447.8ZM440.614 455.8C440.614 456.413 440.704 456.86 440.894 457.14C441.084 457.42 441.414 457.56 441.894 457.56V457.98C441.484 457.94 441.064 457.92 440.654 457.92C439.464 457.92 438.494 458.013 437.734 458.2V456.48C437.284 457.68 436.414 458.28 435.134 458.28C433.884 458.28 432.884 457.827 432.134 456.92C431.404 456 431.044 454.62 431.054 452.78C431.054 451.607 431.244 450.62 431.614 449.82C432.004 449.007 432.524 448.4 433.194 448C433.874 447.587 434.644 447.38 435.514 447.38C436.484 447.38 437.224 447.633 437.734 448.14V444.74C437.734 444.127 437.634 443.68 437.434 443.4C437.244 443.12 436.924 442.98 436.454 442.98V442.56C436.884 442.6 437.294 442.62 437.694 442.62C438.854 442.62 439.824 442.527 440.614 442.34V455.8ZM435.954 457.42C436.394 457.42 436.784 457.26 437.114 456.94C437.464 456.62 437.664 456.187 437.734 455.64V448.64C437.404 448.187 436.914 447.96 436.274 447.96C435.564 447.96 435.024 448.367 434.634 449.18C434.244 449.993 434.064 451.207 434.074 452.82C434.064 454.447 434.214 455.62 434.534 456.34C434.864 457.06 435.344 457.42 435.954 457.42Z" fill="#CCCCCC"/>
<path d="M314.51 348.12C314.15 348.533 313.76 348.827 313.35 349C312.93 349.187 312.43 349.28 311.85 349.28C311.07 349.28 310.46 349.12 310.01 348.8C309.57 348.467 309.28 347.907 309.15 347.12L308.79 345.12C308.61 344.147 308.4 343.433 308.15 342.98C307.91 342.513 307.5 342.28 306.93 342.28H305.63V346.88C305.63 347.387 305.66 347.753 305.73 347.98C305.81 348.207 305.95 348.36 306.15 348.44C306.35 348.52 306.67 348.573 307.13 348.6V349C306.41 348.96 305.4 348.94 304.11 348.94C302.68 348.94 301.63 348.96 300.95 349V348.6C301.39 348.573 301.71 348.52 301.91 348.44C302.12 348.36 302.26 348.207 302.33 347.98C302.41 347.753 302.45 347.387 302.45 346.88V336.96C302.45 336.453 302.41 336.087 302.33 335.86C302.26 335.633 302.12 335.48 301.91 335.4C301.71 335.32 301.39 335.267 300.95 335.24V334.84C301.63 334.88 302.64 334.9 303.99 334.9L306.21 334.88C306.47 334.867 306.78 334.86 307.13 334.86C308.97 334.86 310.35 335.16 311.27 335.76C312.2 336.36 312.67 337.22 312.67 338.34C312.67 339.287 312.32 340.12 311.63 340.84C310.93 341.56 309.79 342.013 308.19 342.2C309.39 342.307 310.28 342.567 310.87 342.98C311.45 343.393 311.83 344.013 312.01 344.84L312.47 346.9C312.57 347.433 312.69 347.807 312.83 348.02C312.97 348.233 313.17 348.34 313.43 348.34C313.59 348.327 313.72 348.287 313.83 348.22C313.95 348.153 314.08 348.04 314.23 347.88L314.51 348.12ZM306.87 335.24C306.51 335.24 306.24 335.287 306.07 335.38C305.91 335.473 305.79 335.64 305.73 335.88C305.66 336.12 305.63 336.48 305.63 336.96V341.88H306.49C307.58 341.88 308.33 341.593 308.73 341.02C309.14 340.433 309.35 339.613 309.35 338.56C309.35 337.467 309.15 336.64 308.77 336.08C308.38 335.52 307.75 335.24 306.87 335.24ZM320.87 347.64C321.97 347.64 322.85 347.107 323.51 346.04L323.87 346.16C323.61 347.027 323.13 347.767 322.43 348.38C321.75 348.98 320.9 349.28 319.87 349.28C318.46 349.28 317.33 348.833 316.49 347.94C315.67 347.033 315.25 345.7 315.25 343.94C315.25 342.14 315.7 340.767 316.59 339.82C317.49 338.86 318.67 338.38 320.15 338.38C322.66 338.38 323.91 339.86 323.91 342.82H318.29C318.28 343.02 318.27 343.333 318.27 343.76C318.27 344.64 318.39 345.373 318.63 345.96C318.89 346.547 319.21 346.973 319.59 347.24C319.99 347.507 320.42 347.64 320.87 347.64ZM320.03 338.8C319.55 338.8 319.15 339.1 318.83 339.7C318.53 340.287 318.33 341.2 318.25 342.44H321.39C321.42 341.387 321.31 340.52 321.07 339.84C320.85 339.147 320.5 338.8 320.03 338.8ZM333.4 338.72C334.08 338.72 334.59 338.7 334.94 338.66V339.06C334.66 339.14 334.4 339.313 334.18 339.58C333.96 339.833 333.76 340.233 333.56 340.78L330.64 349.04C330.49 349.027 330.27 349.02 329.98 349.02C329.7 349.02 329.48 349.027 329.34 349.04L325.78 340.2C325.59 339.747 325.4 339.447 325.2 339.3C325.01 339.153 324.82 339.08 324.62 339.08V338.66C325.55 338.727 326.5 338.76 327.46 338.76C328.3 338.76 329.16 338.727 330.06 338.66V339.08C329.6 339.08 329.28 339.113 329.08 339.18C328.89 339.233 328.8 339.393 328.8 339.66C328.8 339.767 328.83 339.933 328.9 340.16L331.18 346.22L332.62 342.26C332.83 341.633 332.94 341.093 332.94 340.64C332.94 339.667 332.45 339.14 331.48 339.06V338.66C332.09 338.7 332.73 338.72 333.4 338.72ZM341.42 347.64C342.51 347.64 343.39 347.107 344.06 346.04L344.42 346.16C344.15 347.027 343.67 347.767 342.98 348.38C342.3 348.98 341.45 349.28 340.42 349.28C339.01 349.28 337.88 348.833 337.04 347.94C336.21 347.033 335.8 345.7 335.8 343.94C335.8 342.14 336.25 340.767 337.14 339.82C338.03 338.86 339.22 338.38 340.7 338.38C343.21 338.38 344.46 339.86 344.46 342.82H338.84C338.83 343.02 338.82 343.333 338.82 343.76C338.82 344.64 338.94 345.373 339.18 345.96C339.43 346.547 339.75 346.973 340.14 347.24C340.54 347.507 340.97 347.64 341.42 347.64ZM340.58 338.8C340.1 338.8 339.7 339.1 339.38 339.7C339.07 340.287 338.88 341.2 338.8 342.44H341.94C341.97 341.387 341.86 340.52 341.62 339.84C341.39 339.147 341.05 338.8 340.58 338.8ZM353.34 338.38C354.35 338.38 355.09 338.64 355.54 339.16C355.77 339.413 355.93 339.74 356.02 340.14C356.11 340.54 356.16 341.08 356.16 341.76V347.14C356.16 347.687 356.25 348.067 356.44 348.28C356.64 348.48 356.97 348.58 357.44 348.58V349C356.11 348.947 355.23 348.92 354.8 348.92C354.4 348.92 353.53 348.947 352.2 349V348.58C352.6 348.58 352.88 348.48 353.04 348.28C353.2 348.067 353.28 347.687 353.28 347.14V340.92C353.28 340.373 353.19 339.96 353 339.68C352.83 339.4 352.51 339.26 352.04 339.26C351.49 339.26 351.03 339.487 350.64 339.94C350.25 340.38 350.06 340.927 350.06 341.58V347.14C350.06 347.687 350.14 348.067 350.3 348.28C350.46 348.48 350.74 348.58 351.14 348.58V349C349.91 348.947 349.09 348.92 348.66 348.92C348.26 348.92 347.34 348.947 345.9 349V348.58C346.38 348.58 346.71 348.48 346.9 348.28C347.09 348.067 347.18 347.687 347.18 347.14V340.84C347.18 340.227 347.09 339.78 346.9 339.5C346.71 339.22 346.38 339.08 345.9 339.08V338.66C346.33 338.7 346.74 338.72 347.14 338.72C348.33 338.72 349.3 338.627 350.06 338.44V340.24C350.66 339 351.75 338.38 353.34 338.38ZM368.55 346.82C368.55 347.433 368.64 347.88 368.83 348.16C369.03 348.44 369.36 348.58 369.83 348.58V349C369.41 348.96 369 348.94 368.59 348.94C367.43 348.94 366.45 349.033 365.67 349.22V347.42C365.05 348.66 363.98 349.28 362.45 349.28C361.45 349.28 360.72 349.02 360.27 348.5C360.05 348.247 359.89 347.92 359.79 347.52C359.69 347.107 359.65 346.567 359.65 345.9V340.84C359.65 340.227 359.55 339.78 359.35 339.5C359.16 339.22 358.83 339.08 358.37 339.08V338.66C358.78 338.7 359.19 338.72 359.61 338.72C360.77 338.72 361.74 338.627 362.53 338.44V346.72C362.53 347.28 362.61 347.7 362.77 347.98C362.94 348.26 363.26 348.4 363.73 348.4C364.26 348.4 364.71 348.18 365.09 347.74C365.47 347.287 365.67 346.733 365.67 346.08V340.84C365.67 340.227 365.57 339.78 365.37 339.5C365.18 339.22 364.85 339.08 364.39 339.08V338.66C364.81 338.7 365.23 338.72 365.63 338.72C366.79 338.72 367.76 338.627 368.55 338.44V346.82ZM377 347.64C378.09 347.64 378.97 347.107 379.64 346.04L380 346.16C379.73 347.027 379.25 347.767 378.56 348.38C377.88 348.98 377.02 349.28 376 349.28C374.58 349.28 373.46 348.833 372.62 347.94C371.79 347.033 371.38 345.7 371.38 343.94C371.38 342.14 371.82 340.767 372.72 339.82C373.61 338.86 374.8 338.38 376.28 338.38C378.78 338.38 380.04 339.86 380.04 342.82H374.42C374.4 343.02 374.4 343.333 374.4 343.76C374.4 344.64 374.52 345.373 374.76 345.96C375.01 346.547 375.33 346.973 375.72 347.24C376.12 347.507 376.54 347.64 377 347.64ZM376.16 338.8C375.68 338.8 375.28 339.1 374.96 339.7C374.65 340.287 374.46 341.2 374.38 342.44H377.52C377.54 341.387 377.44 340.52 377.2 339.84C376.97 339.147 376.62 338.8 376.16 338.8Z" fill="#E6E6E6"/>
<path d="M184.95 248.56C186.69 248.693 187.96 249.093 188.77 249.76C189.59 250.427 189.99 251.213 189.99 252.12C189.99 253.36 189.51 254.32 188.53 255C187.56 255.667 186.21 256 184.47 256C184.09 256 183.76 255.993 183.49 255.98C182.61 255.953 181.75 255.94 180.91 255.94C179.54 255.94 178.51 255.96 177.83 256V255.6C178.27 255.573 178.59 255.52 178.79 255.44C179.01 255.36 179.15 255.207 179.21 254.98C179.29 254.753 179.33 254.387 179.33 253.88V243.96C179.33 243.453 179.29 243.087 179.21 242.86C179.15 242.633 179.01 242.48 178.79 242.4C178.59 242.32 178.27 242.267 177.83 242.24V241.84C178.51 241.88 179.53 241.9 180.87 241.9L183.09 241.88C183.36 241.867 183.67 241.86 184.01 241.86C185.61 241.86 186.83 242.147 187.67 242.72C188.53 243.293 188.95 244.053 188.95 245C188.95 245.773 188.61 246.493 187.93 247.16C187.27 247.827 186.27 248.28 184.95 248.52V248.56ZM183.75 242.24C183.39 242.24 183.13 242.287 182.95 242.38C182.79 242.473 182.68 242.64 182.61 242.88C182.55 243.12 182.51 243.48 182.51 243.96V248.48H183.37C184.24 248.48 184.85 248.187 185.19 247.6C185.54 247 185.71 246.207 185.71 245.22C185.71 244.22 185.55 243.473 185.23 242.98C184.93 242.487 184.43 242.24 183.75 242.24ZM183.89 255.54C185.75 255.54 186.67 254.373 186.67 252.04C186.67 250.987 186.41 250.187 185.87 249.64C185.34 249.093 184.5 248.82 183.35 248.82H182.51V253.88C182.51 254.36 182.55 254.713 182.61 254.94C182.68 255.167 182.81 255.327 182.99 255.42C183.19 255.5 183.49 255.54 183.89 255.54ZM201.43 253.82C201.43 254.433 201.52 254.88 201.71 255.16C201.91 255.44 202.24 255.58 202.71 255.58V256C202.3 255.96 201.88 255.94 201.47 255.94C200.31 255.94 199.34 256.033 198.55 256.22V254.42C197.94 255.66 196.86 256.28 195.33 256.28C194.33 256.28 193.6 256.02 193.15 255.5C192.94 255.247 192.78 254.92 192.67 254.52C192.58 254.107 192.53 253.567 192.53 252.9V247.84C192.53 247.227 192.43 246.78 192.23 246.5C192.04 246.22 191.72 246.08 191.25 246.08V245.66C191.66 245.7 192.08 245.72 192.49 245.72C193.65 245.72 194.62 245.627 195.41 245.44V253.72C195.41 254.28 195.49 254.7 195.65 254.98C195.82 255.26 196.14 255.4 196.61 255.4C197.14 255.4 197.6 255.18 197.97 254.74C198.36 254.287 198.55 253.733 198.55 253.08V247.84C198.55 247.227 198.45 246.78 198.25 246.5C198.06 246.22 197.74 246.08 197.27 246.08V245.66C197.7 245.7 198.11 245.72 198.51 245.72C199.67 245.72 200.64 245.627 201.43 245.44V253.82ZM207.96 245.38C208.47 245.38 208.93 245.447 209.36 245.58C209.79 245.7 210.11 245.84 210.34 246C210.47 246.093 210.59 246.14 210.7 246.14C210.82 246.14 210.92 246.08 211 245.96C211.09 245.827 211.15 245.64 211.18 245.4H211.6C211.55 246.08 211.52 247.253 211.52 248.92H211.1C210.98 248.04 210.71 247.307 210.3 246.72C209.9 246.12 209.31 245.82 208.54 245.82C208.14 245.82 207.81 245.933 207.54 246.16C207.29 246.387 207.16 246.7 207.16 247.1C207.16 247.553 207.31 247.947 207.62 248.28C207.93 248.6 208.41 248.993 209.06 249.46L209.64 249.88C210.45 250.493 211.05 251.04 211.44 251.52C211.83 252 212.02 252.6 212.02 253.32C212.02 253.907 211.85 254.427 211.5 254.88C211.17 255.333 210.71 255.68 210.14 255.92C209.57 256.16 208.93 256.28 208.24 256.28C207.51 256.28 206.88 256.14 206.36 255.86C205.93 255.647 205.63 255.507 205.44 255.44C205.31 255.4 205.19 255.447 205.08 255.58C204.99 255.7 204.91 255.887 204.86 256.14H204.44C204.49 255.38 204.52 254.047 204.52 252.14H204.94C205.21 254.593 206.11 255.82 207.64 255.82C208.03 255.82 208.35 255.707 208.62 255.48C208.9 255.24 209.04 254.88 209.04 254.4C209.04 254.027 208.95 253.693 208.78 253.4C208.62 253.107 208.41 252.847 208.16 252.62C207.91 252.393 207.53 252.08 207.02 251.68C206.42 251.2 205.96 250.813 205.64 250.52C205.33 250.227 205.07 249.88 204.84 249.48C204.63 249.08 204.52 248.633 204.52 248.14C204.52 247.287 204.85 246.613 205.52 246.12C206.19 245.627 207 245.38 207.96 245.38ZM216.24 240.5C216.8 240.5 217.24 240.64 217.56 240.92C217.89 241.187 218.06 241.56 218.06 242.04C218.06 242.52 217.89 242.9 217.56 243.18C217.24 243.447 216.8 243.58 216.24 243.58C215.68 243.58 215.23 243.447 214.9 243.18C214.58 242.9 214.42 242.52 214.42 242.04C214.42 241.56 214.58 241.187 214.9 240.92C215.23 240.64 215.68 240.5 216.24 240.5ZM217.8 254.14C217.8 254.687 217.89 255.067 218.08 255.28C218.28 255.48 218.61 255.58 219.08 255.58V256C217.74 255.947 216.86 255.92 216.42 255.92C216 255.92 215.08 255.947 213.64 256V255.58C214.12 255.58 214.45 255.48 214.64 255.28C214.82 255.067 214.92 254.687 214.92 254.14V247.84C214.92 247.227 214.82 246.78 214.64 246.5C214.45 246.22 214.12 246.08 213.64 246.08V245.66C214.06 245.7 214.48 245.72 214.88 245.72C216.06 245.72 217.04 245.627 217.8 245.44V254.14ZM227.79 245.38C228.8 245.38 229.53 245.64 229.99 246.16C230.21 246.413 230.37 246.74 230.47 247.14C230.56 247.54 230.61 248.08 230.61 248.76V254.14C230.61 254.687 230.7 255.067 230.89 255.28C231.09 255.48 231.42 255.58 231.89 255.58V256C230.55 255.947 229.67 255.92 229.25 255.92C228.85 255.92 227.98 255.947 226.65 256V255.58C227.05 255.58 227.33 255.48 227.49 255.28C227.65 255.067 227.73 254.687 227.73 254.14V247.92C227.73 247.373 227.63 246.96 227.45 246.68C227.27 246.4 226.95 246.26 226.49 246.26C225.94 246.26 225.47 246.487 225.09 246.94C224.7 247.38 224.51 247.927 224.51 248.58V254.14C224.51 254.687 224.59 255.067 224.75 255.28C224.91 255.48 225.19 255.58 225.59 255.58V256C224.36 255.947 223.53 255.92 223.11 255.92C222.71 255.92 221.79 255.947 220.35 256V255.58C220.83 255.58 221.16 255.48 221.35 255.28C221.53 255.067 221.63 254.687 221.63 254.14V247.84C221.63 247.227 221.53 246.78 221.35 246.5C221.16 246.22 220.83 246.08 220.35 246.08V245.66C220.77 245.7 221.19 245.72 221.59 245.72C222.77 245.72 223.75 245.627 224.51 245.44V247.24C225.11 246 226.2 245.38 227.79 245.38ZM238.91 254.64C240.01 254.64 240.89 254.107 241.55 253.04L241.91 253.16C241.65 254.027 241.17 254.767 240.47 255.38C239.79 255.98 238.94 256.28 237.91 256.28C236.5 256.28 235.37 255.833 234.53 254.94C233.71 254.033 233.29 252.7 233.29 250.94C233.29 249.14 233.74 247.767 234.63 246.82C235.53 245.86 236.71 245.38 238.19 245.38C240.7 245.38 241.95 246.86 241.95 249.82H236.33C236.32 250.02 236.31 250.333 236.31 250.76C236.31 251.64 236.43 252.373 236.67 252.96C236.93 253.547 237.25 253.973 237.63 254.24C238.03 254.507 238.46 254.64 238.91 254.64ZM238.07 245.8C237.59 245.8 237.19 246.1 236.87 246.7C236.57 247.287 236.37 248.2 236.29 249.44H239.43C239.46 248.387 239.35 247.52 239.11 246.84C238.89 246.147 238.54 245.8 238.07 245.8ZM247.47 245.38C247.98 245.38 248.44 245.447 248.87 245.58C249.3 245.7 249.62 245.84 249.85 246C249.98 246.093 250.1 246.14 250.21 246.14C250.33 246.14 250.43 246.08 250.51 245.96C250.6 245.827 250.66 245.64 250.69 245.4H251.11C251.06 246.08 251.03 247.253 251.03 248.92H250.61C250.49 248.04 250.22 247.307 249.81 246.72C249.41 246.12 248.82 245.82 248.05 245.82C247.65 245.82 247.32 245.933 247.05 246.16C246.8 246.387 246.67 246.7 246.67 247.1C246.67 247.553 246.82 247.947 247.13 248.28C247.44 248.6 247.92 248.993 248.57 249.46L249.15 249.88C249.96 250.493 250.56 251.04 250.95 251.52C251.34 252 251.53 252.6 251.53 253.32C251.53 253.907 251.36 254.427 251.01 254.88C250.68 255.333 250.22 255.68 249.65 255.92C249.08 256.16 248.44 256.28 247.75 256.28C247.02 256.28 246.39 256.14 245.87 255.86C245.44 255.647 245.14 255.507 244.95 255.44C244.82 255.4 244.7 255.447 244.59 255.58C244.5 255.7 244.42 255.887 244.37 256.14H243.95C244 255.38 244.03 254.047 244.03 252.14H244.45C244.72 254.593 245.62 255.82 247.15 255.82C247.54 255.82 247.86 255.707 248.13 255.48C248.41 255.24 248.55 254.88 248.55 254.4C248.55 254.027 248.46 253.693 248.29 253.4C248.13 253.107 247.92 252.847 247.67 252.62C247.42 252.393 247.04 252.08 246.53 251.68C245.93 251.2 245.47 250.813 245.15 250.52C244.84 250.227 244.58 249.88 244.35 249.48C244.14 249.08 244.03 248.633 244.03 248.14C244.03 247.287 244.36 246.613 245.03 246.12C245.7 245.627 246.51 245.38 247.47 245.38ZM257.11 245.38C257.61 245.38 258.08 245.447 258.51 245.58C258.93 245.7 259.26 245.84 259.49 246C259.62 246.093 259.74 246.14 259.85 246.14C259.97 246.14 260.07 246.08 260.15 245.96C260.24 245.827 260.3 245.64 260.33 245.4H260.75C260.69 246.08 260.67 247.253 260.67 248.92H260.25C260.13 248.04 259.86 247.307 259.45 246.72C259.05 246.12 258.46 245.82 257.69 245.82C257.29 245.82 256.95 245.933 256.69 246.16C256.43 246.387 256.31 246.7 256.31 247.1C256.31 247.553 256.46 247.947 256.77 248.28C257.07 248.6 257.55 248.993 258.21 249.46L258.79 249.88C259.6 250.493 260.2 251.04 260.59 251.52C260.97 252 261.17 252.6 261.17 253.32C261.17 253.907 260.99 254.427 260.65 254.88C260.31 255.333 259.86 255.68 259.29 255.92C258.71 256.16 258.08 256.28 257.39 256.28C256.65 256.28 256.03 256.14 255.51 255.86C255.08 255.647 254.77 255.507 254.59 255.44C254.45 255.4 254.33 255.447 254.23 255.58C254.13 255.7 254.06 255.887 254.01 256.14H253.59C253.64 255.38 253.67 254.047 253.67 252.14H254.09C254.35 254.593 255.25 255.82 256.79 255.82C257.17 255.82 257.5 255.707 257.77 255.48C258.05 255.24 258.19 254.88 258.19 254.4C258.19 254.027 258.1 253.693 257.93 253.4C257.77 253.107 257.56 252.847 257.31 252.62C257.05 252.393 256.67 252.08 256.17 251.68C255.57 251.2 255.11 250.813 254.79 250.52C254.48 250.227 254.21 249.88 253.99 249.48C253.77 249.08 253.67 248.633 253.67 248.14C253.67 247.287 254 246.613 254.67 246.12C255.33 245.627 256.15 245.38 257.11 245.38ZM177.15 274.64C178.24 274.64 179.12 274.107 179.79 273.04L180.15 273.16C179.88 274.027 179.4 274.767 178.71 275.38C178.03 275.98 177.18 276.28 176.15 276.28C174.74 276.28 173.61 275.833 172.77 274.94C171.94 274.033 171.53 272.7 171.53 270.94C171.53 269.14 171.98 267.767 172.87 266.82C173.76 265.86 174.95 265.38 176.43 265.38C178.94 265.38 180.19 266.86 180.19 269.82H174.57C174.56 270.02 174.55 270.333 174.55 270.76C174.55 271.64 174.67 272.373 174.91 272.96C175.16 273.547 175.48 273.973 175.87 274.24C176.27 274.507 176.7 274.64 177.15 274.64ZM176.31 265.8C175.83 265.8 175.43 266.1 175.11 266.7C174.8 267.287 174.61 268.2 174.53 269.44H177.67C177.7 268.387 177.59 267.52 177.35 266.84C177.12 266.147 176.78 265.8 176.31 265.8ZM190.58 274.58C190.79 274.887 190.98 275.12 191.14 275.28C191.3 275.44 191.48 275.54 191.7 275.58V276C190.63 275.947 189.92 275.92 189.56 275.92C189.16 275.92 188.29 275.947 186.96 276V275.58C187.16 275.58 187.32 275.547 187.44 275.48C187.57 275.413 187.64 275.313 187.64 275.18C187.64 275.1 187.6 275.007 187.54 274.9L185.46 271.8L184.76 272.68C184.32 273.253 184.1 273.787 184.1 274.28C184.1 274.653 184.22 274.96 184.48 275.2C184.74 275.427 185.1 275.56 185.54 275.6V276C184.76 275.96 183.8 275.94 182.66 275.94C182.11 275.94 181.64 275.96 181.26 276V275.6C181.56 275.493 181.86 275.32 182.14 275.08C182.42 274.84 182.73 274.5 183.08 274.06L185.22 271.44L182.28 267.08C182.02 266.72 181.82 266.473 181.68 266.34C181.53 266.193 181.36 266.107 181.16 266.08V265.66C182.33 265.713 183.12 265.74 183.54 265.74C183.88 265.74 184.67 265.713 185.9 265.66V266.08C185.7 266.08 185.53 266.113 185.4 266.18C185.28 266.247 185.22 266.347 185.22 266.48C185.22 266.587 185.25 266.68 185.32 266.76L187.2 269.56L187.96 268.56C188.42 267.947 188.66 267.433 188.66 267.02C188.66 266.74 188.55 266.52 188.34 266.36C188.14 266.187 187.84 266.087 187.44 266.06V265.66C188.21 265.7 188.96 265.72 189.7 265.72C190.26 265.72 190.73 265.7 191.12 265.66V266.06C190.56 266.247 189.94 266.76 189.28 267.6L187.44 269.9L190.58 274.58ZM199.76 265.38C200.45 265.38 201.07 265.567 201.6 265.94C202.15 266.313 202.57 266.873 202.88 267.62C203.19 268.367 203.34 269.28 203.34 270.36C203.34 272.267 202.92 273.733 202.08 274.76C201.25 275.773 200.13 276.28 198.7 276.28C198.3 276.28 197.92 276.227 197.56 276.12C197.21 276.013 196.91 275.853 196.66 275.64V277.64C196.66 278.227 196.81 278.633 197.1 278.86C197.39 279.087 197.85 279.2 198.46 279.2V279.62L197.92 279.6C196.44 279.56 195.5 279.54 195.1 279.54C194.7 279.54 193.86 279.567 192.58 279.62V279.2C193.02 279.2 193.33 279.1 193.5 278.9C193.69 278.713 193.78 278.36 193.78 277.84V267.84C193.78 267.227 193.68 266.78 193.48 266.5C193.29 266.22 192.97 266.08 192.5 266.08V265.66C192.93 265.7 193.34 265.72 193.74 265.72C194.9 265.72 195.87 265.627 196.66 265.44V267.28C196.94 266.667 197.35 266.2 197.88 265.88C198.41 265.547 199.04 265.38 199.76 265.38ZM197.92 275.74C198.77 275.74 199.39 275.32 199.76 274.48C200.13 273.627 200.32 272.387 200.32 270.76C200.32 269.133 200.17 267.973 199.86 267.28C199.57 266.587 199.14 266.24 198.58 266.24C198.13 266.24 197.72 266.393 197.36 266.7C197.01 267.007 196.78 267.433 196.66 267.98V275.2C196.98 275.56 197.4 275.74 197.92 275.74ZM207.61 276.14C206.76 276.14 206.12 275.92 205.69 275.48C205.28 275.04 205.07 274.46 205.07 273.74C205.07 273.14 205.22 272.647 205.53 272.26C205.85 271.86 206.23 271.553 206.67 271.34C207.12 271.127 207.7 270.9 208.39 270.66C209.12 270.407 209.66 270.18 209.99 269.98C210.34 269.767 210.51 269.48 210.51 269.12V267.56C210.51 267 210.38 266.567 210.11 266.26C209.86 265.94 209.46 265.78 208.91 265.78C208.27 265.78 207.78 265.94 207.45 266.26C207.82 266.393 208.11 266.593 208.31 266.86C208.52 267.127 208.63 267.44 208.63 267.8C208.63 268.253 208.48 268.613 208.17 268.88C207.86 269.147 207.49 269.28 207.05 269.28C206.58 269.28 206.22 269.133 205.97 268.84C205.72 268.547 205.59 268.18 205.59 267.74C205.59 267.367 205.68 267.053 205.85 266.8C206.04 266.533 206.32 266.287 206.69 266.06C207.05 265.847 207.49 265.68 208.01 265.56C208.54 265.44 209.12 265.38 209.75 265.38C210.4 265.38 210.97 265.447 211.45 265.58C211.93 265.713 212.33 265.94 212.65 266.26C212.94 266.553 213.14 266.913 213.23 267.34C213.34 267.767 213.39 268.347 213.39 269.08V274.52C213.39 274.84 213.42 275.067 213.47 275.2C213.54 275.333 213.66 275.4 213.83 275.4C214.03 275.4 214.27 275.287 214.55 275.06L214.75 275.4C214.15 275.893 213.42 276.14 212.55 276.14C211.82 276.14 211.3 275.993 211.01 275.7C210.72 275.407 210.56 275.013 210.55 274.52C209.88 275.6 208.9 276.14 207.61 276.14ZM209.15 274.86C209.67 274.86 210.12 274.587 210.51 274.04V269.94C210.35 270.207 210.01 270.5 209.49 270.82C208.97 271.153 208.58 271.487 208.31 271.82C208.04 272.153 207.91 272.633 207.91 273.26C207.91 273.807 208.02 274.213 208.25 274.48C208.48 274.733 208.78 274.86 209.15 274.86ZM223.16 265.38C224.18 265.38 224.91 265.64 225.36 266.16C225.59 266.413 225.75 266.74 225.84 267.14C225.94 267.54 225.98 268.08 225.98 268.76V274.14C225.98 274.687 226.08 275.067 226.26 275.28C226.46 275.48 226.8 275.58 227.26 275.58V276C225.93 275.947 225.05 275.92 224.62 275.92C224.22 275.92 223.36 275.947 222.02 276V275.58C222.42 275.58 222.7 275.48 222.86 275.28C223.02 275.067 223.1 274.687 223.1 274.14V267.92C223.1 267.373 223.01 266.96 222.82 266.68C222.65 266.4 222.33 266.26 221.86 266.26C221.32 266.26 220.85 266.487 220.46 266.94C220.08 267.38 219.88 267.927 219.88 268.58V274.14C219.88 274.687 219.96 275.067 220.12 275.28C220.28 275.48 220.56 275.58 220.96 275.58V276C219.74 275.947 218.91 275.92 218.48 275.92C218.08 275.92 217.16 275.947 215.72 276V275.58C216.2 275.58 216.54 275.48 216.72 275.28C216.91 275.067 217 274.687 217 274.14V267.84C217 267.227 216.91 266.78 216.72 266.5C216.54 266.22 216.2 266.08 215.72 266.08V265.66C216.15 265.7 216.56 265.72 216.96 265.72C218.15 265.72 219.12 265.627 219.88 265.44V267.24C220.48 266 221.58 265.38 223.16 265.38ZM232.37 265.38C232.87 265.38 233.34 265.447 233.77 265.58C234.19 265.7 234.52 265.84 234.75 266C234.88 266.093 235 266.14 235.11 266.14C235.23 266.14 235.33 266.08 235.41 265.96C235.5 265.827 235.56 265.64 235.59 265.4H236.01C235.95 266.08 235.93 267.253 235.93 268.92H235.51C235.39 268.04 235.12 267.307 234.71 266.72C234.31 266.12 233.72 265.82 232.95 265.82C232.55 265.82 232.21 265.933 231.95 266.16C231.69 266.387 231.57 266.7 231.57 267.1C231.57 267.553 231.72 267.947 232.03 268.28C232.33 268.6 232.81 268.993 233.47 269.46L234.05 269.88C234.86 270.493 235.46 271.04 235.85 271.52C236.23 272 236.43 272.6 236.43 273.32C236.43 273.907 236.25 274.427 235.91 274.88C235.57 275.333 235.12 275.68 234.55 275.92C233.97 276.16 233.34 276.28 232.65 276.28C231.91 276.28 231.29 276.14 230.77 275.86C230.34 275.647 230.03 275.507 229.85 275.44C229.71 275.4 229.59 275.447 229.49 275.58C229.39 275.7 229.32 275.887 229.27 276.14H228.85C228.9 275.38 228.93 274.047 228.93 272.14H229.35C229.61 274.593 230.51 275.82 232.05 275.82C232.43 275.82 232.76 275.707 233.03 275.48C233.31 275.24 233.45 274.88 233.45 274.4C233.45 274.027 233.36 273.693 233.19 273.4C233.03 273.107 232.82 272.847 232.57 272.62C232.31 272.393 231.93 272.08 231.43 271.68C230.83 271.2 230.37 270.813 230.05 270.52C229.74 270.227 229.47 269.88 229.25 269.48C229.03 269.08 228.93 268.633 228.93 268.14C228.93 267.287 229.26 266.613 229.93 266.12C230.59 265.627 231.41 265.38 232.37 265.38ZM240.65 260.5C241.21 260.5 241.65 260.64 241.97 260.92C242.3 261.187 242.47 261.56 242.47 262.04C242.47 262.52 242.3 262.9 241.97 263.18C241.65 263.447 241.21 263.58 240.65 263.58C240.09 263.58 239.64 263.447 239.31 263.18C238.99 262.9 238.83 262.52 238.83 262.04C238.83 261.56 238.99 261.187 239.31 260.92C239.64 260.64 240.09 260.5 240.65 260.5ZM242.21 274.14C242.21 274.687 242.3 275.067 242.49 275.28C242.69 275.48 243.02 275.58 243.49 275.58V276C242.15 275.947 241.27 275.92 240.83 275.92C240.41 275.92 239.49 275.947 238.05 276V275.58C238.53 275.58 238.86 275.48 239.05 275.28C239.23 275.067 239.33 274.687 239.33 274.14V267.84C239.33 267.227 239.23 266.78 239.05 266.5C238.86 266.22 238.53 266.08 238.05 266.08V265.66C238.47 265.7 238.89 265.72 239.29 265.72C240.47 265.72 241.45 265.627 242.21 265.44V274.14ZM249.91 265.38C251.45 265.38 252.65 265.82 253.51 266.7C254.38 267.567 254.81 268.947 254.81 270.84C254.81 272.733 254.38 274.113 253.51 274.98C252.65 275.847 251.45 276.28 249.91 276.28C248.39 276.28 247.19 275.847 246.31 274.98C245.45 274.113 245.01 272.733 245.01 270.84C245.01 268.947 245.45 267.567 246.31 266.7C247.19 265.82 248.39 265.38 249.91 265.38ZM249.91 265.78C249.34 265.78 248.88 266.2 248.53 267.04C248.2 267.867 248.03 269.133 248.03 270.84C248.03 272.547 248.2 273.813 248.53 274.64C248.88 275.467 249.34 275.88 249.91 275.88C250.5 275.88 250.96 275.473 251.29 274.66C251.63 273.833 251.79 272.56 251.79 270.84C251.79 269.12 251.62 267.847 251.27 267.02C250.94 266.193 250.49 265.78 249.91 265.78ZM263.9 265.38C264.92 265.38 265.65 265.64 266.1 266.16C266.33 266.413 266.49 266.74 266.58 267.14C266.68 267.54 266.72 268.08 266.72 268.76V274.14C266.72 274.687 266.82 275.067 267 275.28C267.2 275.48 267.54 275.58 268 275.58V276C266.67 275.947 265.79 275.92 265.36 275.92C264.96 275.92 264.1 275.947 262.76 276V275.58C263.16 275.58 263.44 275.48 263.6 275.28C263.76 275.067 263.84 274.687 263.84 274.14V267.92C263.84 267.373 263.75 266.96 263.56 266.68C263.39 266.4 263.07 266.26 262.6 266.26C262.06 266.26 261.59 266.487 261.2 266.94C260.82 267.38 260.62 267.927 260.62 268.58V274.14C260.62 274.687 260.7 275.067 260.86 275.28C261.02 275.48 261.3 275.58 261.7 275.58V276C260.48 275.947 259.65 275.92 259.22 275.92C258.82 275.92 257.9 275.947 256.46 276V275.58C256.94 275.58 257.28 275.48 257.46 275.28C257.65 275.067 257.74 274.687 257.74 274.14V267.84C257.74 267.227 257.65 266.78 257.46 266.5C257.28 266.22 256.94 266.08 256.46 266.08V265.66C256.89 265.7 257.3 265.72 257.7 265.72C258.89 265.72 259.86 265.627 260.62 265.44V267.24C261.22 266 262.32 265.38 263.9 265.38Z" fill="white"/>
<path d="M668.432 581.56C669.232 581.56 669.913 581.673 670.473 581.9C671.033 582.127 671.578 582.447 672.112 582.86C672.258 582.98 672.385 583.04 672.492 583.04C672.758 583.04 672.933 582.64 673.013 581.84H673.473C673.419 582.747 673.393 584.36 673.393 586.68H672.932C672.812 585.693 672.653 584.94 672.453 584.42C672.253 583.9 671.912 583.447 671.432 583.06C671.098 582.74 670.713 582.5 670.273 582.34C669.833 582.167 669.373 582.08 668.893 582.08C667.546 582.08 666.546 582.74 665.893 584.06C665.239 585.367 664.913 587 664.913 588.96C664.913 590.907 665.252 592.533 665.932 593.84C666.612 595.147 667.626 595.8 668.973 595.8C669.426 595.8 669.873 595.72 670.312 595.56C670.766 595.387 671.146 595.14 671.453 594.82C671.946 594.447 672.286 593.98 672.473 593.42C672.673 592.86 672.825 592.04 672.932 590.96H673.393C673.393 593.373 673.419 595.053 673.473 596H673.013C672.973 595.573 672.913 595.273 672.833 595.1C672.766 594.913 672.666 594.82 672.533 594.82C672.426 594.82 672.285 594.873 672.112 594.98C671.512 595.407 670.939 595.733 670.393 595.96C669.846 596.173 669.186 596.28 668.413 596.28C666.999 596.28 665.759 595.993 664.693 595.42C663.639 594.847 662.819 594.02 662.233 592.94C661.646 591.847 661.353 590.547 661.353 589.04C661.353 587.573 661.653 586.273 662.253 585.14C662.853 584.007 663.686 583.127 664.753 582.5C665.833 581.873 667.058 581.56 668.432 581.56ZM680.633 585.38C682.167 585.38 683.368 585.82 684.234 586.7C685.101 587.567 685.534 588.947 685.534 590.84C685.534 592.733 685.101 594.113 684.234 594.98C683.368 595.847 682.167 596.28 680.633 596.28C679.113 596.28 677.914 595.847 677.034 594.98C676.168 594.113 675.734 592.733 675.734 590.84C675.734 588.947 676.168 587.567 677.034 586.7C677.914 585.82 679.113 585.38 680.633 585.38ZM680.633 585.78C680.06 585.78 679.601 586.2 679.254 587.04C678.921 587.867 678.754 589.133 678.754 590.84C678.754 592.547 678.921 593.813 679.254 594.64C679.601 595.467 680.06 595.88 680.633 595.88C681.22 595.88 681.68 595.473 682.013 594.66C682.347 593.833 682.513 592.56 682.513 590.84C682.513 589.12 682.341 587.847 681.994 587.02C681.661 586.193 681.207 585.78 680.633 585.78ZM694.622 585.38C695.635 585.38 696.369 585.64 696.823 586.16C697.049 586.413 697.208 586.74 697.302 587.14C697.395 587.54 697.443 588.08 697.443 588.76V594.14C697.443 594.687 697.536 595.067 697.723 595.28C697.923 595.48 698.256 595.58 698.723 595.58V596C697.389 595.947 696.509 595.92 696.083 595.92C695.683 595.92 694.816 595.947 693.483 596V595.58C693.883 595.58 694.163 595.48 694.323 595.28C694.483 595.067 694.562 594.687 694.562 594.14V587.92C694.562 587.373 694.469 586.96 694.283 586.68C694.109 586.4 693.789 586.26 693.323 586.26C692.776 586.26 692.308 586.487 691.922 586.94C691.535 587.38 691.343 587.927 691.343 588.58V594.14C691.343 594.687 691.423 595.067 691.583 595.28C691.743 595.48 692.022 595.58 692.422 595.58V596C691.195 595.947 690.369 595.92 689.943 595.92C689.543 595.92 688.622 595.947 687.182 596V595.58C687.662 595.58 687.995 595.48 688.182 595.28C688.368 595.067 688.463 594.687 688.463 594.14V587.84C688.463 587.227 688.368 586.78 688.182 586.5C687.995 586.22 687.662 586.08 687.182 586.08V585.66C687.608 585.7 688.022 585.72 688.422 585.72C689.608 585.72 690.583 585.627 691.343 585.44V587.24C691.943 586 693.035 585.38 694.622 585.38ZM705.068 585.38C705.561 585.38 706.028 585.433 706.468 585.54C706.908 585.647 707.275 585.793 707.568 585.98C707.915 586.193 708.18 586.467 708.367 586.8C708.567 587.12 708.668 587.473 708.668 587.86C708.668 588.327 708.521 588.713 708.228 589.02C707.935 589.313 707.555 589.46 707.088 589.46C706.621 589.46 706.248 589.327 705.968 589.06C705.688 588.793 705.547 588.433 705.547 587.98C705.547 587.58 705.674 587.233 705.927 586.94C706.18 586.647 706.494 586.447 706.867 586.34C706.76 586.193 706.594 586.08 706.367 586C706.154 585.907 705.921 585.86 705.668 585.86C704.868 585.86 704.241 586.3 703.788 587.18C703.348 588.047 703.128 589.187 703.128 590.6C703.128 592.027 703.381 593.053 703.888 593.68C704.395 594.307 705.028 594.62 705.788 594.62C706.241 594.62 706.695 594.5 707.148 594.26C707.615 594.02 708.035 593.6 708.408 593L708.747 593.12C708.48 593.987 708.015 594.733 707.348 595.36C706.681 595.973 705.821 596.28 704.768 596.28C703.395 596.28 702.275 595.827 701.408 594.92C700.541 594.013 700.108 592.667 700.108 590.88C700.108 589.707 700.32 588.707 700.747 587.88C701.174 587.053 701.761 586.433 702.508 586.02C703.255 585.593 704.108 585.38 705.068 585.38ZM716.07 594.64C717.163 594.64 718.043 594.107 718.71 593.04L719.07 593.16C718.803 594.027 718.323 594.767 717.63 595.38C716.95 595.98 716.096 596.28 715.07 596.28C713.656 596.28 712.53 595.833 711.69 594.94C710.863 594.033 710.45 592.7 710.45 590.94C710.45 589.14 710.895 587.767 711.789 586.82C712.682 585.86 713.869 585.38 715.349 585.38C717.855 585.38 719.109 586.86 719.109 589.82H713.49C713.476 590.02 713.47 590.333 713.47 590.76C713.47 591.64 713.59 592.373 713.83 592.96C714.083 593.547 714.402 593.973 714.789 594.24C715.189 594.507 715.616 594.64 716.07 594.64ZM715.229 585.8C714.749 585.8 714.35 586.1 714.03 586.7C713.723 587.287 713.53 588.2 713.45 589.44H716.59C716.616 588.387 716.51 587.52 716.27 586.84C716.043 586.147 715.695 585.8 715.229 585.8ZM727.848 585.38C728.541 585.38 729.155 585.567 729.688 585.94C730.234 586.313 730.661 586.873 730.968 587.62C731.275 588.367 731.427 589.28 731.427 590.36C731.427 592.267 731.008 593.733 730.168 594.76C729.341 595.773 728.215 596.28 726.788 596.28C726.388 596.28 726.008 596.227 725.648 596.12C725.301 596.013 725 595.853 724.747 595.64V597.64C724.747 598.227 724.894 598.633 725.188 598.86C725.481 599.087 725.934 599.2 726.547 599.2V599.62L726.008 599.6C724.528 599.56 723.588 599.54 723.188 599.54C722.787 599.54 721.948 599.567 720.668 599.62V599.2C721.108 599.2 721.415 599.1 721.588 598.9C721.775 598.713 721.867 598.36 721.867 597.84V587.84C721.867 587.227 721.768 586.78 721.568 586.5C721.381 586.22 721.055 586.08 720.588 586.08V585.66C721.015 585.7 721.428 585.72 721.828 585.72C722.988 585.72 723.96 585.627 724.747 585.44V587.28C725.027 586.667 725.435 586.2 725.968 585.88C726.501 585.547 727.128 585.38 727.848 585.38ZM726.008 595.74C726.861 595.74 727.475 595.32 727.848 594.48C728.221 593.627 728.408 592.387 728.408 590.76C728.408 589.133 728.255 587.973 727.948 587.28C727.655 586.587 727.228 586.24 726.668 586.24C726.215 586.24 725.808 586.393 725.448 586.7C725.101 587.007 724.867 587.433 724.747 587.98V595.2C725.067 595.56 725.488 595.74 726.008 595.74ZM737.12 585.66H739.479V586.06H737.12V594.14C737.12 594.54 737.187 594.827 737.32 595C737.467 595.16 737.693 595.24 738 595.24C738.573 595.24 739.026 594.84 739.359 594.04L739.7 594.22C739.193 595.593 738.28 596.28 736.96 596.28C736.08 596.28 735.413 596.053 734.96 595.6C734.68 595.32 734.487 594.973 734.38 594.56C734.287 594.133 734.24 593.553 734.24 592.82V586.06H732.56V585.66H734.24V583.02C735.347 583.02 736.307 582.807 737.12 582.38V585.66Z" fill="#666767"/>
</g>
<defs>
<filter id="filter0_dd" x="-278" y="110" width="738.88" height="454.411" filterUnits="userSpaceOnUse" color-interpolation-filters="sRGB">
<feFlood flood-opacity="0" result="BackgroundImageFix"/>
<feColorMatrix in="SourceAlpha" type="matrix" values="0 0 0 0 0 0 0 0 0 0 0 0 0 0 0 0 0 0 127 0"/>
<feOffset/>
<feGaussianBlur stdDeviation="10"/>
<feColorMatrix type="matrix" values="0 0 0 0 0.788235 0 0 0 0 0.65098 0 0 0 0 0.431373 0 0 0 0.4 0"/>
<feBlend mode="normal" in2="BackgroundImageFix" result="effect1_dropShadow"/>
<feColorMatrix in="SourceAlpha" type="matrix" values="0 0 0 0 0 0 0 0 0 0 0 0 0 0 0 0 0 0 127 0"/>
<feOffset dx="-8" dy="-8"/>
<feGaussianBlur stdDeviation="40"/>
<feColorMatrix type="matrix" values="0 0 0 0 0.788235 0 0 0 0 0.65098 0 0 0 0 0.431373 0 0 0 1 0"/>
<feBlend mode="normal" in2="effect1_dropShadow" result="effect2_dropShadow"/>
<feBlend mode="normal" in="SourceGraphic" in2="effect2_dropShadow" result="shape"/>
</filter>
<filter id="filter1_dd" x="124" y="220" width="176" height="176" filterUnits="userSpaceOnUse" color-interpolation-filters="sRGB">
<feFlood flood-opacity="0" result="BackgroundImageFix"/>
<feColorMatrix in="SourceAlpha" type="matrix" values="0 0 0 0 0 0 0 0 0 0 0 0 0 0 0 0 0 0 127 0"/>
<feOffset/>
<feGaussianBlur stdDeviation="10"/>
<feColorMatrix type="matrix" values="0 0 0 0 0.788235 0 0 0 0 0.65098 0 0 0 0 0.431373 0 0 0 0.4 0"/>
<feBlend mode="normal" in2="BackgroundImageFix" result="effect1_dropShadow"/>
<feColorMatrix in="SourceAlpha" type="matrix" values="0 0 0 0 0 0 0 0 0 0 0 0 0 0 0 0 0 0 127 0"/>
<feOffset dx="-8" dy="-8"/>
<feGaussianBlur stdDeviation="40"/>
<feColorMatrix type="matrix" values="0 0 0 0 0.788235 0 0 0 0 0.65098 0 0 0 0 0.431373 0 0 0 1 0"/>
<feBlend mode="normal" in2="effect1_dropShadow" result="effect2_dropShadow"/>
<feBlend mode="normal" in="SourceGraphic" in2="effect2_dropShadow" result="shape"/>
</filter>
<filter id="filter2_dd" x="204" y="283" width="176" height="176" filterUnits="userSpaceOnUse" color-interpolation-filters="sRGB">
<feFlood flood-opacity="0" result="BackgroundImageFix"/>
<feColorMatrix in="SourceAlpha" type="matrix" values="0 0 0 0 0 0 0 0 0 0 0 0 0 0 0 0 0 0 127 0"/>
<feOffset/>
<feGaussianBlur stdDeviation="10"/>
<feColorMatrix type="matrix" values="0 0 0 0 0.788235 0 0 0 0 0.65098 0 0 0 0 0.431373 0 0 0 0.4 0"/>
<feBlend mode="normal" in2="BackgroundImageFix" result="effect1_dropShadow"/>
<feColorMatrix in="SourceAlpha" type="matrix" values="0 0 0 0 0 0 0 0 0 0 0 0 0 0 0 0 0 0 127 0"/>
<feOffset dx="-8" dy="-8"/>
<feGaussianBlur stdDeviation="40"/>
<feColorMatrix type="matrix" values="0 0 0 0 0.788235 0 0 0 0 0.65098 0 0 0 0 0.431373 0 0 0 1 0"/>
<feBlend mode="normal" in2="effect1_dropShadow" result="effect2_dropShadow"/>
<feBlend mode="normal" in="SourceGraphic" in2="effect2_dropShadow" result="shape"/>
</filter>
<filter id="filter3_dd" x="284" y="382" width="176" height="176" filterUnits="userSpaceOnUse" color-interpolation-filters="sRGB">
<feFlood flood-opacity="0" result="BackgroundImageFix"/>
<feColorMatrix in="SourceAlpha" type="matrix" values="0 0 0 0 0 0 0 0 0 0 0 0 0 0 0 0 0 0 127 0"/>
<feOffset/>
<feGaussianBlur stdDeviation="10"/>
<feColorMatrix type="matrix" values="0 0 0 0 0.788235 0 0 0 0 0.65098 0 0 0 0 0.431373 0 0 0 0.4 0"/>
<feBlend mode="normal" in2="BackgroundImageFix" result="effect1_dropShadow"/>
<feColorMatrix in="SourceAlpha" type="matrix" values="0 0 0 0 0 0 0 0 0 0 0 0 0 0 0 0 0 0 127 0"/>
<feOffset dx="-8" dy="-8"/>
<feGaussianBlur stdDeviation="40"/>
<feColorMatrix type="matrix" values="0 0 0 0 0.788235 0 0 0 0 0.65098 0 0 0 0 0.431373 0 0 0 1 0"/>
<feBlend mode="normal" in2="effect1_dropShadow" result="effect2_dropShadow"/>
<feBlend mode="normal" in="SourceGraphic" in2="effect2_dropShadow" result="shape"/>
</filter>
<filter id="filter4_dd" x="444" y="505" width="176" height="176" filterUnits="userSpaceOnUse" color-interpolation-filters="sRGB">
<feFlood flood-opacity="0" result="BackgroundImageFix"/>
<feColorMatrix in="SourceAlpha" type="matrix" values="0 0 0 0 0 0 0 0 0 0 0 0 0 0 0 0 0 0 127 0"/>
<feOffset/>
<feGaussianBlur stdDeviation="10"/>
<feColorMatrix type="matrix" values="0 0 0 0 0.6 0 0 0 0 0.6 0 0 0 0 0.6 0 0 0 0.8 0"/>
<feBlend mode="normal" in2="BackgroundImageFix" result="effect1_dropShadow"/>
<feColorMatrix in="SourceAlpha" type="matrix" values="0 0 0 0 0 0 0 0 0 0 0 0 0 0 0 0 0 0 127 0"/>
<feOffset dx="-8" dy="-8"/>
<feGaussianBlur stdDeviation="40"/>
<feColorMatrix type="matrix" values="0 0 0 0 0.6 0 0 0 0 0.6 0 0 0 0 0.6 0 0 0 1 0"/>
<feBlend mode="normal" in2="effect1_dropShadow" result="effect2_dropShadow"/>
<feBlend mode="normal" in="SourceGraphic" in2="effect2_dropShadow" result="shape"/>
</filter>
<filter id="filter5_dd" x="604" y="530" width="176" height="176" filterUnits="userSpaceOnUse" color-interpolation-filters="sRGB">
<feFlood flood-opacity="0" result="BackgroundImageFix"/>
<feColorMatrix in="SourceAlpha" type="matrix" values="0 0 0 0 0 0 0 0 0 0 0 0 0 0 0 0 0 0 127 0"/>
<feOffset/>
<feGaussianBlur stdDeviation="10"/>
<feColorMatrix type="matrix" values="0 0 0 0 0.6 0 0 0 0 0.6 0 0 0 0 0.6 0 0 0 0.4 0"/>
<feBlend mode="normal" in2="BackgroundImageFix" result="effect1_dropShadow"/>
<feColorMatrix in="SourceAlpha" type="matrix" values="0 0 0 0 0 0 0 0 0 0 0 0 0 0 0 0 0 0 127 0"/>
<feOffset dx="-8" dy="-8"/>
<feGaussianBlur stdDeviation="40"/>
<feColorMatrix type="matrix" values="0 0 0 0 0.6 0 0 0 0 0.6 0 0 0 0 0.6 0 0 0 1 0"/>
<feBlend mode="normal" in2="effect1_dropShadow" result="effect2_dropShadow"/>
<feBlend mode="normal" in="SourceGraphic" in2="effect2_dropShadow" result="shape"/>
</filter>
<linearGradient id="paint0_linear" x1="24.4704" y1="160.017" x2="24.4704" y2="847.724" gradientUnits="userSpaceOnUse">
<stop stop-color="#C9A66E" stop-opacity="0.2"/>
<stop offset="0.426449" stop-color="white" stop-opacity="0.05"/>
<stop offset="1" stop-color="white" stop-opacity="0"/>
</linearGradient>
<linearGradient id="paint1_linear" x1="770.271" y1="445.622" x2="770.271" y2="896" gradientUnits="userSpaceOnUse">
<stop stop-color="white" stop-opacity="0.05"/>
<stop offset="1" stop-color="white" stop-opacity="0"/>
</linearGradient>
<linearGradient id="paint2_linear" x1="387" y1="619" x2="1360" y2="619" gradientUnits="userSpaceOnUse">
<stop offset="0.0280505" stop-color="white" stop-opacity="0.2"/>
<stop offset="0.697287" stop-color="white" stop-opacity="0.1"/>
<stop offset="1" stop-color="white" stop-opacity="0"/>
</linearGradient>
<linearGradient id="paint3_linear" x1="738.553" y1="528" x2="738.553" y2="850.297" gradientUnits="userSpaceOnUse">
<stop stop-color="#C9A66E"/>
<stop offset="0.367355" stop-color="#C9A66E" stop-opacity="0.4"/>
<stop offset="1" stop-color="#C9A66E" stop-opacity="0"/>
</linearGradient>
<clipPath id="clip0">
<rect width="1440" height="896" fill="white" transform="matrix(-1 0 0 1 1440 0)"/>
</clipPath>
</defs>
</svg>
