<svg width="0" height="0" class="hidden">

	<symbol xmlns="http://www.w3.org/2000/svg" viewBox="0 0 24 24" id="linkedin"><path d="M20.47 2H3.53a1.45 1.45 0 00-1.47 1.43v17.14A1.45 1.45 0 003.53 22h16.94a1.45 1.45 0 001.47-1.43V3.43A1.45 1.45 0 0020.47 2zM8.09 18.74h-3v-9h3v9zM6.59 8.48a1.56 1.56 0 010-3.12 1.57 1.57 0 110 3.12zm12.32 10.26h-3v-4.83c0-1.21-.43-2-1.52-2A1.65 1.65 0 0012.85 13a2 2 0 00-.1.73v5h-3v-9h3V11a3 3 0 012.71-1.5c2 0 3.45 1.29 3.45 4.06v5.18z"/></symbol>

	<symbol xmlns="http://www.w3.org/2000/svg" viewBox="0 0 24 24" id="facebook"><path d="M15.12 5.32H17V2.14c-.91-.1-1.82-.14-2.74-.14-2.72 0-4.58 1.66-4.58 4.7v2.62H6.61v3.56h3.07V22h3.68v-9.12h3.06l.46-3.56h-3.52V7.05c0-1.05.28-1.73 1.76-1.73z"/></symbol>

	<symbol xmlns="http://www.w3.org/2000/svg" viewBox="0 0 24 24" id="twitter"><path d="M22 5.8a8.5 8.5 0 01-2.36.64 4.13 4.13 0 001.81-2.27 8.2 8.2 0 01-2.61 1 4.1 4.1 0 00-7 3.74 11.64 11.64 0 01-8.45-4.29 4.16 4.16 0 00-.07 4c.32.6.78 1.1 1.34 1.48a4.05 4.05 0 01-1.86-.51v.05a4.1 4.1 0 003.3 4 3.93 3.93 0 01-1.87.1 4.11 4.11 0 003.83 2.84A8.22 8.22 0 012 18.28a11.57 11.57 0 006.29 1.85A11.59 11.59 0 0020 8.45v-.53a8.43 8.43 0 002-2.12z"/></symbol>

	<symbol xmlns="http://www.w3.org/2000/svg" viewBox="0 0 24 24" id="envelope"><path d="M19 4H5a3 3 0 00-3 3v10a3 3 0 003 3h14a3 3 0 003-3V7a3 3 0 00-3-3zM5 6h14a1 1 0 011 1l-8 4.88L4 7a1 1 0 011-1zm15 11a1 1 0 01-1 1H5a1 1 0 01-1-1V9.28l7.48 4.57a1 1 0 001 0L20 9.28V17z"/></symbol>

	<symbol xmlns="http://www.w3.org/2000/svg" viewBox="0 0 24 24" id="phone"><path d="M12.71 16.29l-.15-.12a.76.76 0 00-.18-.09L12.2 16a1 1 0 00-.91.27c-.09.1-.16.2-.21.33a1 1 0 001.3 1.31c.12-.06.23-.13.33-.22a1 1 0 000-1.4zM16 2H8a3 3 0 00-3 3v14a3 3 0 003 3h8a3 3 0 003-3V5a3 3 0 00-3-3zm1 17a1 1 0 01-1 1H8a1 1 0 01-1-1V5a1 1 0 011-1h8a1 1 0 011 1v14z"/></symbol>

	<symbol xmlns="http://www.w3.org/2000/svg" viewBox="0 0 20 20" id="arrow-right"><path d="M14.93 9.68a.83.83 0 00-.17-.27l-4.17-4.17a.84.84 0 00-1.18 1.19l2.75 2.74H.83a.83.83 0 000 1.66h11.33L9.4 13.58a.83.83 0 00.27 1.36.83.83 0 00.91-.18l4.17-4.17a.83.83 0 00.17-.27.83.83 0 000-.64z"/></symbol>

	<symbol xmlns="http://www.w3.org/2000/svg" viewBox="0 0 20 20" id="arrow-up"><path d="M9.69 5.06c-.1.04-.2.1-.28.18L5.25 9.4a.84.84 0 101.18 1.19l2.74-2.75v11.32a.83.83 0 001.67 0V7.84l2.74 2.75a.83.83 0 001.36-.27.83.83 0 00-.18-.92L10.6 5.24a.83.83 0 00-.28-.18.83.83 0 00-.63 0z" fill="#fff"/></symbol>

	<symbol xmlns="http://www.w3.org/2000/svg" viewBox="0 0 20 20" id="arrow-left"><path d="M5.07 9.68c.04-.1.1-.2.17-.27l4.17-4.17a.84.84 0 111.18 1.19L7.84 9.17h11.33a.83.83 0 010 1.66H7.84l2.75 2.75a.83.83 0 01-.27 1.36.83.83 0 01-.91-.18l-4.17-4.17a.83.83 0 01-.17-.27.83.83 0 010-.64z"/></symbol>

	<symbol xmlns="http://www.w3.org/2000/svg" viewBox="0 0 32 48" id="flame"><path d="M32 26.12C32 37.98 17.78 45.65 11.3 48 11.3 30.35 0 33.18 0 21.88 0 10.02 12.99 2.35 19.48 0 19.48 17.65 32 14.82 32 26.12z"/></symbol>

	<symbol xmlns="http://www.w3.org/2000/svg" viewBox="0 0 24 24" id="attach"><path d="M18.08 12.42l-6.18 6.19a4.25 4.25 0 01-6-6l8-8a2.57 2.57 0 013.54 0 2.52 2.52 0 010 3.54l-6.9 6.89A.76.76 0 119.42 14l5.13-5.12a1 1 0 10-1.42-1.42L8 12.6a2.74 2.74 0 000 3.89 2.82 2.82 0 003.89 0l6.89-6.9a4.5 4.5 0 00-6.36-6.36l-8 8A6.25 6.25 0 0013.31 20l6.19-6.18a1 1 0 00-1.42-1.42v.02z"/></symbol>

	<symbol xmlns="http://www.w3.org/2000/svg" viewBox="0 0 24 24" id="close"><path d="M5.3 5.3a1 1 0 011.4 0l5.3 5.29 5.3-5.3a1 1 0 111.4 1.42L13.42 12l5.3 5.3a1 1 0 01-1.42 1.4L12 13.42l-5.3 5.3a1 1 0 01-1.4-1.42L10.58 12l-5.3-5.3a1 1 0 010-1.4z"/></symbol>
</svg>