<svg width="27" height="40" viewBox="0 0 27 40" fill="none" xmlns="http://www.w3.org/2000/svg">
<path d="M22.3056 23.061C17.0933 23.061 13.1621 27.3354 13.1621 33.9625H14.0821C14.0821 27.6253 18.6975 25.5214 21.2587 25.5214C23.8199 25.5214 23.7069 26.1951 23.3303 26.7L25.9668 25.2799C26.061 24.6803 25.6663 23.061 22.3056 23.061Z" fill="#C9A66E"/>
<path d="M26.9837 13.5852C27.0778 12.9813 26.88 11.1533 23.2181 11.1533C18.8623 11.1533 16.722 14.7087 13.3389 18.0954C10.4245 21.0128 7.03793 24.3636 4.84321 24.3636C2.2816 24.3636 2.39461 23.3466 2.77132 22.838L0.0100838 24.5286C-0.0840926 25.1324 0.42893 26.9185 3.79621 26.9185C8.19595 26.9185 10.4391 23.0907 13.8653 19.6608C16.7513 16.7717 20.0093 13.7082 22.1711 13.7082C24.7327 13.7082 24.6197 14.7253 24.243 15.2338L26.9837 13.5852Z" fill="#C9A66E"/>
<path d="M5.29833 11.5264C2.70324 11.5264 1.63678 12.7245 0.847656 13.3235C1.1899 11.3205 4.25668 8.97263 7.57102 8.97266C12.1164 8.97266 17.6087 14.6477 23.3851 14.6477C25.1843 14.6477 26.4154 13.9856 26.4154 13.4181C26.4154 12.8506 26.1625 12.2941 25.9099 12.1365C26.7433 12.1365 26.9835 13.1343 26.9835 13.5127C26.9835 15.3097 24.048 17.1068 21.1124 17.1068C15.2413 17.1068 9.08614 11.5264 5.29833 11.5264Z" fill="#C9A66E"/>
<path d="M21.7841 26.4763C24.1612 26.4763 26.8216 25.4506 24.6258 24.1201C25.3883 24.025 25.9785 24.5823 25.9785 25.4086C25.9785 27.5685 22.7349 28.9307 19.5021 28.9307C14.9381 28.9307 9.42334 23.4329 3.6233 23.4329C1.81674 23.4329 0.580665 24.1201 0.580665 24.7092C0.580665 25.2982 1.08778 25.8627 1.34133 26.0263C0.504602 26.0263 0.0101678 25.0037 0.0101677 24.611C0.0101676 22.7457 2.95773 20.8803 5.90528 20.8803C11.8004 20.8803 17.9808 26.4763 21.7841 26.4763Z" fill="#C9A66E"/>
<path d="M15.6646 3.51338C15.6646 5.10864 13.7294 6.1405 12.8456 6.45702C12.8456 4.08312 11.3086 4.46294 11.3086 2.94364C11.3086 1.34838 13.0762 0.316521 13.9601 0C13.9601 2.37391 15.6646 1.99408 15.6646 3.51338Z" fill="#C9A66E"/>
<path d="M15.7481 37.0563C15.7481 38.6516 13.8129 39.6835 12.9291 40C12.9291 37.6261 11.2246 38.0059 11.2246 36.4866C11.2246 34.8913 13.1598 33.8595 14.0436 33.543C14.0436 35.9169 15.7481 35.537 15.7481 37.0563Z" fill="#C9A66E"/>
</svg>
