<svg width="52" height="76" viewBox="0 0 52 76" fill="none" xmlns="http://www.w3.org/2000/svg">
<path d="M42.306 43.6599C32.6537 43.6599 25.3738 51.567 25.3737 63.8265H27.0775C27.0775 52.1033 35.6245 48.2112 40.3674 48.2112C45.1104 48.2112 44.9011 49.4576 44.2036 50.3917L49.0861 47.7646C49.2604 46.6555 48.5297 43.6599 42.306 43.6599Z" fill="#191A1A" stroke="#191A1A" stroke-width="0.465382"/>
<path d="M50.9696 26.1305C51.144 25.0134 50.7776 21.6318 43.9965 21.6318C35.9301 21.6318 31.9666 28.2089 25.7016 34.4739C20.3046 39.8709 14.0332 46.0695 9.9689 46.0695C5.22518 46.0695 5.43446 44.188 6.13206 43.2473L1.01867 46.3746C0.844273 47.4917 1.79431 50.7958 8.03 50.7958C16.1777 50.7958 20.3315 43.7147 26.6765 37.3697C32.0209 32.0253 38.0543 26.3581 42.0576 26.3581C46.8013 26.3581 46.592 28.2396 45.8944 29.1803L50.9696 26.1305Z" fill="#191A1A" stroke="#191A1A" stroke-width="0.465382"/>
<path d="M10.8119 22.0125C8.35702 22.0125 6.61107 22.5797 5.28889 23.2967C4.40615 23.7754 3.70575 24.3279 3.12949 24.7985C3.70451 23.3136 5.05356 21.756 6.90639 20.4896C9.12835 18.9709 12.0225 17.9089 15.0206 17.9089C17.0637 17.9089 19.2326 18.5467 21.5214 19.5243C23.5366 20.385 25.6222 21.4987 27.7795 22.6506C28.0726 22.8071 28.3669 22.9642 28.6626 23.1216C33.5843 25.7406 38.8681 28.407 44.3059 28.407C46.0069 28.407 47.454 28.0948 48.4869 27.6368C49.0025 27.4081 49.4268 27.1379 49.7272 26.8412C50.0245 26.5477 50.2277 26.1996 50.2277 25.8222C50.2277 25.2536 50.1015 24.6937 49.9116 24.234C49.8867 24.1737 49.8603 24.1141 49.8325 24.0558C50.0143 24.2023 50.1624 24.3946 50.2829 24.6122C50.5585 25.1096 50.6594 25.6932 50.6594 25.9972C50.6594 27.4931 49.4205 29.0741 47.4102 30.3035C45.419 31.5212 42.7567 32.3357 40.0973 32.3357C34.7455 32.3357 29.2406 29.792 24.1483 27.2077C23.5966 26.9277 23.0495 26.6472 22.5081 26.3696C20.5628 25.372 18.6911 24.4122 16.9418 23.6513C14.7089 22.68 12.6324 22.0125 10.8119 22.0125Z" fill="#333434" stroke="#191A1A" stroke-width="0.620509"/>
<path d="M41.3406 50.2887C43.5674 50.2887 45.9661 49.8116 47.3099 48.9865C47.9737 48.5789 48.4801 48.0205 48.4247 47.3148C48.3924 46.9036 48.1715 46.5041 47.7767 46.1153C47.9217 46.1909 48.054 46.2858 48.1716 46.3974C48.5524 46.7589 48.7979 47.3138 48.7979 48.0034C48.7979 49.8253 47.4277 51.3726 45.2173 52.4821C43.0189 53.5857 40.0701 54.2085 37.1148 54.2085C35.0609 54.2085 32.8816 53.5899 30.5833 52.6428C28.5595 51.8089 26.4651 50.7299 24.299 49.6139C24.0048 49.4623 23.7092 49.3101 23.4123 49.1577C18.4697 46.62 13.1664 44.0383 7.70967 44.0383C6.00054 44.0383 4.54645 44.3626 3.50857 44.8383C2.99042 45.0759 2.56453 45.3564 2.26347 45.6637C1.96493 45.9685 1.76492 46.3259 1.76492 46.7095C1.76492 47.3259 2.02255 47.9079 2.32592 48.366C2.17695 48.2366 2.04073 48.0864 1.91844 47.9233C1.72483 47.665 1.57518 47.3851 1.47465 47.1298C1.37206 46.8692 1.32895 46.6555 1.32895 46.5279C1.32895 44.9638 2.58 43.3199 4.596 42.0455C6.59514 40.7817 9.26717 39.9368 11.9356 39.9368C17.3097 39.9368 22.8373 42.4878 27.9505 45.0793C28.5045 45.36 29.0538 45.6414 29.5973 45.9197C31.5506 46.9201 33.43 47.8826 35.1863 48.6456C37.4283 49.6195 39.5131 50.2887 41.3406 50.2887Z" fill="#333434" stroke="#191A1A" stroke-width="0.620509"/>
<path d="M30.0088 7.49938C30.0088 10.4504 26.4252 12.3593 24.7884 12.9448C24.7884 8.55333 21.9422 9.25596 21.9422 6.44542C21.9422 3.49436 25.2156 1.58553 26.8523 1C26.8523 5.39147 30.0088 4.68883 30.0088 7.49938Z" fill="#191A1A" stroke="#191A1A" stroke-width="0.155127"/>
<path d="M30.164 69.5504C30.164 72.5015 26.5803 74.4103 24.9436 74.9958C24.9436 70.6044 21.7871 71.307 21.7871 68.4964C21.7871 65.5454 25.3708 63.6366 27.0075 63.051C27.0075 67.4425 30.164 66.7399 30.164 69.5504Z" fill="#191A1A" stroke="#191A1A" stroke-width="0.155127"/>
</svg>
