<svg width="247" height="40" viewBox="0 0 247 40" fill="none" xmlns="http://www.w3.org/2000/svg">
<path d="M22.3051 23.0605C17.0928 23.0605 13.1616 27.3349 13.1616 33.962H14.0817C14.0817 27.6248 18.697 25.5209 21.2582 25.5209C23.8194 25.5209 23.7064 26.1946 23.3298 26.6996L25.9663 25.2795C26.0605 24.6799 25.6658 23.0605 22.3051 23.0605Z" fill="#C9A66E"/>
<path d="M26.9837 13.5842C27.0778 12.9803 26.88 11.1523 23.2181 11.1523C18.8623 11.1523 16.722 14.7077 13.3389 18.0944C10.4245 21.0118 7.03793 24.3627 4.84321 24.3627C2.2816 24.3627 2.39461 23.3456 2.77132 22.837L0.0100838 24.5276C-0.0840926 25.1315 0.42893 26.9175 3.79621 26.9175C8.19595 26.9175 10.4391 23.0897 13.8653 19.6598C16.7513 16.7708 20.0093 13.7072 22.1711 13.7072C24.7327 13.7072 24.6197 14.7243 24.243 15.2328L26.9837 13.5842Z" fill="#C9A66E"/>
<path d="M5.29833 11.5264C2.70324 11.5264 1.63678 12.7245 0.847656 13.3235C1.1899 11.3205 4.25668 8.97263 7.57102 8.97266C12.1164 8.97266 17.6087 14.6477 23.3851 14.6477C25.1843 14.6477 26.4154 13.9856 26.4154 13.4181C26.4154 12.8506 26.1625 12.2941 25.9099 12.1365C26.7433 12.1365 26.9835 13.1343 26.9835 13.5127C26.9835 15.3097 24.048 17.1068 21.1124 17.1068C15.2413 17.1068 9.08614 11.5264 5.29833 11.5264Z" fill="#C9A66E"/>
<path d="M21.7841 26.4773C24.1612 26.4773 26.8216 25.4515 24.6258 24.1211C25.3883 24.026 25.9785 24.5833 25.9785 25.4096C25.9785 27.5694 22.7349 28.9316 19.5021 28.9316C14.9381 28.9316 9.42334 23.4339 3.6233 23.4339C1.81674 23.4339 0.580665 24.1211 0.580665 24.7101C0.580665 25.2992 1.08778 25.8637 1.34133 26.0273C0.504602 26.0273 0.0101678 25.0047 0.0101677 24.612C0.0101676 22.7466 2.95773 20.8813 5.90528 20.8813C11.8004 20.8813 17.9808 26.4773 21.7841 26.4773Z" fill="#C9A66E"/>
<path d="M15.6646 3.51338C15.6646 5.10864 13.7294 6.1405 12.8456 6.45702C12.8456 4.08312 11.3086 4.46294 11.3086 2.94364C11.3086 1.34838 13.0762 0.316521 13.9601 0C13.9601 2.37391 15.6646 1.99408 15.6646 3.51338Z" fill="#C9A66E"/>
<path d="M15.7486 37.0563C15.7486 38.6516 13.8134 39.6835 12.9296 40C12.9296 37.6261 11.2251 38.0059 11.2251 36.4866C11.2251 34.8913 13.1603 33.8595 14.0441 33.543C14.0441 35.9169 15.7486 35.537 15.7486 37.0563Z" fill="#C9A66E"/>
<path d="M41 26.4262V25.5262L47.75 14.6722H44.204C43.64 14.6722 43.262 14.8222 43.07 15.1222C42.89 15.4222 42.776 15.8182 42.728 16.3102L42.638 17.2822H41.342L41.432 13.5742H51.044V14.4922L44.276 25.3282H48.164C48.656 25.3282 49.034 25.2442 49.298 25.0762C49.562 24.8962 49.748 24.6682 49.856 24.3922C49.964 24.1162 50.03 23.8282 50.054 23.5282L50.144 22.7182H51.44L51.35 26.4262H41Z" fill="#C9A66E"/>
<path d="M53.7443 26.4262V25.4722H53.9603C54.2843 25.4722 54.5543 25.3882 54.7703 25.2202C54.9983 25.0522 55.2083 24.6982 55.4003 24.1582L59.3063 13.5742H61.7723L65.5343 24.1762C65.7143 24.6802 65.9123 25.0222 66.1283 25.2022C66.3563 25.3822 66.6143 25.4722 66.9023 25.4722H67.2263V26.4262H61.2863V25.4722H61.9883C62.1683 25.4722 62.3423 25.4182 62.5103 25.3102C62.6783 25.2022 62.7623 25.0222 62.7623 24.7702C62.7623 24.6262 62.7443 24.4882 62.7083 24.3562C62.6723 24.2122 62.6363 24.0922 62.6003 23.9962L61.9703 22.1962H57.5963L57.0743 23.7442C57.0263 23.8882 56.9783 24.0622 56.9303 24.2662C56.8823 24.4582 56.8583 24.6262 56.8583 24.7702C56.8583 24.9982 56.9423 25.1722 57.1103 25.2922C57.2783 25.4122 57.4643 25.4722 57.6683 25.4722H58.4243V26.4262H53.7443ZM57.9743 21.0982H61.6103L60.6563 18.1462C60.5363 17.7382 60.3983 17.2822 60.2423 16.7782C60.0983 16.2742 59.9783 15.8122 59.8823 15.3922C59.7743 15.7762 59.6423 16.2142 59.4863 16.7062C59.3303 17.1862 59.1803 17.6362 59.0363 18.0562L57.9743 21.0982Z" fill="#C9A66E"/>
<path d="M69.169 26.4262V25.4722H69.925C70.177 25.4722 70.393 25.4122 70.573 25.2922C70.753 25.1722 70.843 24.8722 70.843 24.3922V15.6262C70.843 15.1462 70.753 14.8462 70.573 14.7262C70.393 14.5942 70.177 14.5282 69.925 14.5282H69.169V13.5742H79.141L79.231 16.8862H77.971L77.881 16.0222C77.833 15.5422 77.689 15.2002 77.449 14.9962C77.221 14.7802 76.921 14.6722 76.549 14.6722H73.687V19.5862H77.953V20.6482H73.687V24.3022C73.687 24.8182 73.777 25.1422 73.957 25.2742C74.137 25.4062 74.359 25.4722 74.623 25.4722H75.739V26.4262H69.169Z" fill="#C9A66E"/>
<path d="M80.0911 26.4262V25.4722H80.3071C80.6311 25.4722 80.9011 25.3882 81.1171 25.2202C81.3451 25.0522 81.5551 24.6982 81.7471 24.1582L85.6531 13.5742H88.1191L91.8811 24.1762C92.0611 24.6802 92.2591 25.0222 92.4751 25.2022C92.7031 25.3822 92.9611 25.4722 93.2491 25.4722H93.5731V26.4262H87.6331V25.4722H88.3351C88.5151 25.4722 88.6891 25.4182 88.8571 25.3102C89.0251 25.2022 89.1091 25.0222 89.1091 24.7702C89.1091 24.6262 89.0911 24.4882 89.0551 24.3562C89.0191 24.2122 88.9831 24.0922 88.9471 23.9962L88.3171 22.1962H83.9431L83.4211 23.7442C83.3731 23.8882 83.3251 24.0622 83.2771 24.2662C83.2291 24.4582 83.2051 24.6262 83.2051 24.7702C83.2051 24.9982 83.2891 25.1722 83.4571 25.2922C83.6251 25.4122 83.8111 25.4722 84.0151 25.4722H84.7711V26.4262H80.0911ZM84.3211 21.0982H87.9571L87.0031 18.1462C86.8831 17.7382 86.7451 17.2822 86.5891 16.7782C86.4451 16.2742 86.3251 15.8122 86.2291 15.3922C86.1211 15.7762 85.9891 16.2142 85.8331 16.7062C85.6771 17.1862 85.5271 17.6362 85.3831 18.0562L84.3211 21.0982Z" fill="#C9A66E"/>
<path d="M95.5158 26.4262V25.4722H96.2718C96.5118 25.4722 96.7218 25.4122 96.9018 25.2922C97.0938 25.1722 97.1898 24.8722 97.1898 24.3922V15.6262C97.1898 15.1462 97.0938 14.8462 96.9018 14.7262C96.7218 14.5942 96.5118 14.5282 96.2718 14.5282H95.5158V13.5742H101.312C103.016 13.5742 104.264 13.8622 105.056 14.4382C105.848 15.0022 106.244 15.8242 106.244 16.9042C106.244 17.5402 106.124 18.0802 105.884 18.5242C105.644 18.9682 105.338 19.3342 104.966 19.6222C104.594 19.9102 104.204 20.1382 103.796 20.3062L105.938 23.9962C106.25 24.5122 106.544 24.8902 106.82 25.1302C107.096 25.3582 107.402 25.4722 107.738 25.4722H107.81V26.4262H107.216C106.496 26.4262 105.896 26.3842 105.416 26.3002C104.936 26.2162 104.534 26.0602 104.21 25.8322C103.898 25.5922 103.616 25.2502 103.364 24.8062L101.222 20.8462H100.034V24.3922C100.034 24.8722 100.124 25.1722 100.304 25.2922C100.496 25.4122 100.712 25.4722 100.952 25.4722H101.726V26.4262H95.5158ZM101.042 19.8022C101.87 19.8022 102.44 19.5802 102.752 19.1362C103.064 18.6922 103.22 18.0322 103.22 17.1562C103.22 16.2442 103.052 15.5962 102.716 15.2122C102.38 14.8282 101.81 14.6362 101.006 14.6362H100.034V19.8022H101.042Z" fill="#C9A66E"/>
<path d="M116.15 26.4348V25.6788H116.564C116.96 25.6788 117.302 25.6128 117.59 25.4808C117.89 25.3368 118.04 25.0008 118.04 24.4728V14.4828H116.312C115.784 14.4828 115.418 14.6328 115.214 14.9328C115.01 15.2208 114.884 15.5628 114.836 15.9588L114.746 16.7328H113.81L113.9 13.5828H124.034L124.124 16.7328H123.188L123.098 15.9588C123.05 15.5628 122.924 15.2208 122.72 14.9328C122.516 14.6328 122.144 14.4828 121.604 14.4828H119.858V24.3828C119.858 24.9468 120.002 25.3068 120.29 25.4628C120.578 25.6068 120.926 25.6788 121.334 25.6788H121.748V26.4348H116.15Z" fill="white"/>
<path d="M126.253 26.4348V25.6788H126.487C126.883 25.6788 127.225 25.6128 127.513 25.4808C127.813 25.3368 127.963 25.0008 127.963 24.4728V15.6348C127.963 15.0708 127.819 14.7168 127.531 14.5728C127.243 14.4168 126.895 14.3388 126.487 14.3388H126.253V13.5828H135.325L135.415 16.7328H134.479L134.389 15.9588C134.341 15.5628 134.197 15.2208 133.957 14.9328C133.729 14.6328 133.345 14.4828 132.805 14.4828H129.781V19.2708H134.119V20.1528H129.781V25.5348H133.255C133.819 25.5348 134.227 25.3908 134.479 25.1028C134.743 24.8028 134.905 24.4548 134.965 24.0588L135.091 23.2848H136.027L135.901 26.4348H126.253Z" fill="white"/>
<path d="M144.362 26.6148C143.174 26.6148 142.172 26.3388 141.356 25.7868C140.54 25.2348 139.922 24.4668 139.502 23.4828C139.094 22.4868 138.89 21.3228 138.89 19.9908C138.89 18.6948 139.106 17.5548 139.538 16.5708C139.982 15.5748 140.63 14.8008 141.482 14.2488C142.346 13.6848 143.408 13.4028 144.668 13.4028C145.892 13.4028 146.804 13.5948 147.404 13.9788C148.004 14.3628 148.304 14.8428 148.304 15.4188C148.304 15.8028 148.154 16.1088 147.854 16.3368C147.554 16.5648 147.182 16.6788 146.738 16.6788C146.738 16.3068 146.672 15.9468 146.54 15.5988C146.408 15.2388 146.186 14.9448 145.874 14.7168C145.574 14.4768 145.16 14.3568 144.632 14.3568C143.276 14.3568 142.31 14.8488 141.734 15.8328C141.17 16.8048 140.888 18.1908 140.888 19.9908C140.888 21.0588 141.014 22.0068 141.266 22.8348C141.53 23.6508 141.938 24.2868 142.49 24.7428C143.042 25.1988 143.756 25.4268 144.632 25.4268C145.508 25.4268 146.192 25.2768 146.684 24.9768C147.188 24.6648 147.59 24.3048 147.89 23.8968C147.986 23.9568 148.064 24.0468 148.124 24.1668C148.196 24.2748 148.232 24.4188 148.232 24.5988C148.232 24.8988 148.094 25.2048 147.818 25.5168C147.542 25.8288 147.116 26.0928 146.54 26.3088C145.976 26.5128 145.25 26.6148 144.362 26.6148Z" fill="white"/>
<path d="M150.685 26.4348V25.6788H150.919C151.327 25.6788 151.675 25.6068 151.963 25.4628C152.251 25.3068 152.395 24.9468 152.395 24.3828V15.5628C152.395 15.0348 152.245 14.6988 151.945 14.5548C151.657 14.4108 151.315 14.3388 150.919 14.3388H150.685V13.5828H155.923V14.3388H155.689C155.281 14.3388 154.933 14.4168 154.645 14.5728C154.357 14.7168 154.213 15.0708 154.213 15.6348V19.2708H160.063V15.6348C160.063 15.0708 159.919 14.7168 159.631 14.5728C159.343 14.4168 158.995 14.3388 158.587 14.3388H158.353V13.5828H163.591V14.3388H163.357C162.949 14.3388 162.601 14.4168 162.313 14.5728C162.025 14.7168 161.881 15.0708 161.881 15.6348V24.4728C161.881 25.0008 162.025 25.3368 162.313 25.4808C162.613 25.6128 162.961 25.6788 163.357 25.6788H163.591V26.4348H158.353V25.6788H158.587C158.995 25.6788 159.343 25.6068 159.631 25.4628C159.919 25.3068 160.063 24.9468 160.063 24.3828V20.1708H154.213V24.3828C154.213 24.9468 154.357 25.3068 154.645 25.4628C154.933 25.6068 155.281 25.6788 155.689 25.6788H155.923V26.4348H150.685Z" fill="white"/>
<path d="M166.038 26.4348V25.6788H166.272C166.68 25.6788 167.028 25.6068 167.316 25.4628C167.604 25.3068 167.748 24.9468 167.748 24.3828V15.5628C167.748 15.0348 167.598 14.6988 167.298 14.5548C167.01 14.4108 166.668 14.3388 166.272 14.3388H166.038V13.5828H169.332L175.776 23.5368V15.5628C175.776 15.0348 175.626 14.6988 175.326 14.5548C175.038 14.4108 174.696 14.3388 174.3 14.3388H174.066V13.5828H178.584V14.3388H178.35C177.942 14.3388 177.594 14.4168 177.306 14.5728C177.018 14.7168 176.874 15.0708 176.874 15.6348V26.4348H175.596L168.846 16.0668V24.3828C168.846 24.9468 168.99 25.3068 169.278 25.4628C169.566 25.6068 169.914 25.6788 170.322 25.6788H170.556V26.4348H166.038Z" fill="white"/>
<path d="M186.841 26.6148C185.569 26.6148 184.513 26.3388 183.673 25.7868C182.833 25.2348 182.203 24.4608 181.783 23.4648C181.375 22.4688 181.171 21.3048 181.171 19.9728C181.171 18.6408 181.375 17.4828 181.783 16.4988C182.203 15.5148 182.833 14.7528 183.673 14.2128C184.525 13.6608 185.587 13.3848 186.859 13.3848C188.071 13.3848 189.091 13.6608 189.919 14.2128C190.759 14.7528 191.395 15.5208 191.827 16.5168C192.271 17.5008 192.493 18.6588 192.493 19.9908C192.493 21.3228 192.271 22.4868 191.827 23.4828C191.395 24.4668 190.759 25.2348 189.919 25.7868C189.079 26.3388 188.053 26.6148 186.841 26.6148ZM186.841 25.6428C188.185 25.6428 189.127 25.1448 189.667 24.1488C190.219 23.1528 190.495 21.7668 190.495 19.9908C190.495 18.2028 190.219 16.8168 189.667 15.8328C189.127 14.8488 188.191 14.3568 186.859 14.3568C185.515 14.3568 184.561 14.8488 183.997 15.8328C183.445 16.8168 183.169 18.2028 183.169 19.9908C183.169 21.7668 183.445 23.1528 183.997 24.1488C184.561 25.1448 185.509 25.6428 186.841 25.6428Z" fill="white"/>
<path d="M195.286 26.4348V25.6788H195.52C195.928 25.6788 196.276 25.6068 196.564 25.4628C196.852 25.3068 196.996 24.9468 196.996 24.3828V15.6348C196.996 15.0708 196.852 14.7168 196.564 14.5728C196.276 14.4168 195.928 14.3388 195.52 14.3388H195.286V13.5828H200.524V14.3388H200.29C199.894 14.3388 199.546 14.4108 199.246 14.5548C198.958 14.6988 198.814 15.0348 198.814 15.5628V25.5348H202.36C202.72 25.5348 203.008 25.4568 203.224 25.3008C203.452 25.1328 203.62 24.9228 203.728 24.6708C203.836 24.4188 203.908 24.1668 203.944 23.9148L204.124 22.5648H205.06L204.934 26.4348H195.286Z" fill="white"/>
<path d="M213.575 26.6148C212.303 26.6148 211.247 26.3388 210.407 25.7868C209.567 25.2348 208.937 24.4608 208.517 23.4648C208.109 22.4688 207.905 21.3048 207.905 19.9728C207.905 18.6408 208.109 17.4828 208.517 16.4988C208.937 15.5148 209.567 14.7528 210.407 14.2128C211.259 13.6608 212.321 13.3848 213.593 13.3848C214.805 13.3848 215.825 13.6608 216.653 14.2128C217.493 14.7528 218.129 15.5208 218.561 16.5168C219.005 17.5008 219.227 18.6588 219.227 19.9908C219.227 21.3228 219.005 22.4868 218.561 23.4828C218.129 24.4668 217.493 25.2348 216.653 25.7868C215.813 26.3388 214.787 26.6148 213.575 26.6148ZM213.575 25.6428C214.919 25.6428 215.861 25.1448 216.401 24.1488C216.953 23.1528 217.229 21.7668 217.229 19.9908C217.229 18.2028 216.953 16.8168 216.401 15.8328C215.861 14.8488 214.925 14.3568 213.593 14.3568C212.249 14.3568 211.295 14.8488 210.731 15.8328C210.179 16.8168 209.903 18.2028 209.903 19.9908C209.903 21.7668 210.179 23.1528 210.731 24.1488C211.295 25.1448 212.243 25.6428 213.575 25.6428Z" fill="white"/>
<path d="M228.554 26.6148C227.162 26.6148 226.004 26.3388 225.08 25.7868C224.168 25.2348 223.484 24.4668 223.028 23.4828C222.584 22.4868 222.362 21.3228 222.362 19.9908C222.362 18.6948 222.596 17.5548 223.064 16.5708C223.544 15.5748 224.252 14.8008 225.188 14.2488C226.124 13.6848 227.282 13.4028 228.662 13.4028C229.994 13.4028 230.99 13.5948 231.65 13.9788C232.31 14.3628 232.64 14.8428 232.64 15.4188C232.64 15.8028 232.478 16.1088 232.154 16.3368C231.83 16.5648 231.434 16.6788 230.966 16.6788C230.966 16.3068 230.888 15.9468 230.732 15.5988C230.588 15.2388 230.342 14.9448 229.994 14.7168C229.646 14.4768 229.178 14.3568 228.59 14.3568C227.066 14.3568 225.98 14.8488 225.332 15.8328C224.684 16.8048 224.36 18.1908 224.36 19.9908C224.36 21.7908 224.696 23.1768 225.368 24.1488C226.052 25.1088 227.21 25.5888 228.842 25.5888C229.19 25.5888 229.526 25.5708 229.85 25.5348C230.174 25.4988 230.462 25.4448 230.714 25.3728V22.4748C230.714 21.9468 230.564 21.6108 230.264 21.4668C229.976 21.3228 229.634 21.2508 229.238 21.2508H229.166V20.4948H233.846V21.2508H233.774C233.438 21.2508 233.144 21.3288 232.892 21.4848C232.652 21.6288 232.532 21.9828 232.532 22.5468V25.7868C231.932 26.0628 231.314 26.2728 230.678 26.4168C230.042 26.5488 229.334 26.6148 228.554 26.6148Z" fill="white"/>
<path d="M237.776 26.4348V25.6788H238.19C238.586 25.6788 238.928 25.6128 239.216 25.4808C239.516 25.3368 239.666 25.0008 239.666 24.4728V21.0708L236.336 15.2928C236.144 14.9448 235.958 14.6988 235.778 14.5548C235.61 14.4108 235.37 14.3388 235.058 14.3388H234.824V13.5828H239.774V14.3388H239.108C238.784 14.3388 238.568 14.3988 238.46 14.5188C238.364 14.6268 238.316 14.7588 238.316 14.9148C238.316 15.0828 238.352 15.2508 238.424 15.4188C238.496 15.5868 238.568 15.7368 238.64 15.8688L239.972 18.2808C240.176 18.6528 240.35 19.0188 240.494 19.3788C240.65 19.7388 240.776 20.0568 240.872 20.3328C240.98 20.0808 241.136 19.7688 241.34 19.3968C241.544 19.0248 241.748 18.6528 241.952 18.2808L243.104 16.2108C243.224 16.0068 243.308 15.8148 243.356 15.6348C243.404 15.4428 243.428 15.2748 243.428 15.1308C243.428 14.6028 243.068 14.3388 242.348 14.3388H241.826V13.5828H246.218V14.3388H246.002C245.75 14.3388 245.516 14.4408 245.3 14.6448C245.084 14.8368 244.82 15.2028 244.508 15.7428L241.484 21.0708V24.3828C241.484 24.9468 241.628 25.3068 241.916 25.4628C242.204 25.6068 242.552 25.6788 242.96 25.6788H243.374V26.4348H237.776Z" fill="white"/>
</svg>
